<?xml version="1.0" encoding="UTF-8" standalone="no"?>
<!-- Created with Inkscape (http://www.inkscape.org/) -->

<svg
   version="1.1"
   id="svg1"
   width="1000"
   height="1788"
   viewBox="0 0 1000 1788"
   xmlns="http://www.w3.org/2000/svg"
   xmlns:svg="http://www.w3.org/2000/svg">
  <defs
     id="defs1" />
  <g
     id="g1">
    <path
       style="fill:#000000"
       d="m 629.89892,1785.2026 c 3.3314,-2.6053 38.2182,-17.3527 50.6731,-21.4205 2.8451,-0.9292 5.7053,-2.3309 6.3558,-3.1148 0.6506,-0.7838 2.2425,-5.5967 3.5376,-10.6952 1.295,-5.0984 4.4104,-16.9199 6.9231,-26.2699 6.3628,-23.6773 8.8244,-32.9429 12.8853,-48.5 1.9381,-7.425 5.3867,-20.475 7.6636,-29 2.2769,-8.525 5.239,-20 6.5824,-25.5 1.3434,-5.5 3.1017,-12.025 3.9074,-14.5 0.8057,-2.475 2.555,-9.225 3.8874,-15 1.3325,-5.775 5.0876,-21.75 8.3447,-35.5 9.2536,-39.064 10.6894,-46.2034 17.7891,-88.4561 2.0109,-11.9675 6.2227,-46.3379 7.4192,-60.5439 1.3371,-15.8753 1.311,-70.5948 -0.042,-87.5501 -3.8335,-48.0501 -18.3269,-105.8476 -36.995,-147.5305 -1.0052,-2.2443 -2.7004,-6.2943 -3.7671,-9 -1.0668,-2.7057 -4.4184,-10.3194 -7.4481,-16.9194 -3.0296,-6.6 -7.1768,-15.825 -9.2159,-20.5 -6.7074,-15.3778 -35.584,-78.3591 -46.7666,-102.0001 -17.0445,-36.03387 -27.7457,-65.577 -32.0899,-88.59193 -1.3016,-6.89562 -3.2078,-26.57219 -3.9145,-40.40806 l -0.2298,-4.5 -5.2685,-0.3029 c -2.9919,-0.17202 -10.9857,0.86064 -18.5,2.38987 -7.2773,1.48102 -14.4735,2.90655 -15.9913,3.16784 -3.0486,0.52478 -3.0483,0.52385 -4.7101,12.72704 -1.5452,11.34661 -3.2826,14.31129 -10.529,17.96583 -3.2993,1.66396 -5.3243,3.1169 -4.5,3.22875 0.8244,0.11186 4.5364,0.49123 8.2489,0.84307 l 6.75,0.63969 v 8.80854 c 0,12.74226 3.6792,25.28578 8.7753,29.9176 2.0486,1.86194 8.6747,8.25733 14.7247,14.21199 10.7656,10.596 11.1802,11.17369 19.4616,27.11467 l 8.4617,16.288 0.357,19 c 0.3549,18.8913 0.3764,19.049 3.7602,27.5696 5.5761,14.0413 5.8073,16.28 3.9883,38.6236 l -1.6126,19.8069 -10.6221,16 c -5.8421,8.8 -12.2132,17.3444 -14.158,18.9876 -3.7035,3.1291 -20.3434,14.2483 -25.8291,17.2597 -3.8611,2.1194 -9.8065,11.0454 -17.0034,25.5273 -5.6262,11.3212 -7.3197,15.4961 -15.5048,38.2226 -4.8698,13.5212 -5.2496,14.1961 -11.17,19.8476 -5.9147,5.6461 -23.1622,19.2009 -36.6257,28.7841 -11.5675,8.2336 -10.9738,6.9155 -14.7064,32.653 -1.8121,12.495 -4.421,31.3931 -5.7977,41.996 -1.3767,10.6028 -2.9219,21.1778 -3.4338,23.5 -0.512,2.3221 -1.8951,11.8721 -3.0736,21.2221 -4.0439,32.0834 -6.3654,43.1434 -11.9763,57.0587 -6.9737,17.2949 -10.4403,23.9052 -13.7342,26.1893 -2.7539,1.9096 -15.6652,8.7033 -26.2811,13.8286 -3.025,1.4604 -10.1186,4.4032 -15.7636,6.5394 -9.9088,3.7498 -10.6864,3.8832 -22.5,3.8605 -12.8208,-0.025 -56.966,-3.3823 -58.7198,-4.4662 -1.6267,-1.0054 -1.1806,-2.6886 2.0957,-7.9074 l 3.0744,-4.897 11.6566,0.6611 c 6.4112,0.3636 18.4067,1.3765 26.6567,2.2508 26.3055,2.7878 40.5094,0.5969 58.3067,-8.9938 16.9401,-9.1287 17.984,-9.9801 21.3659,-17.4283 1.6721,-3.6827 4.7435,-10.9707 6.8253,-16.1957 4.0679,-10.2098 3.8077,-8.5113 14.0184,-91.5 1.624,-13.2 3.7915,-28.8348 4.8166,-34.744 1.6906,-9.7457 1.7199,-10.9494 0.3155,-12.9545 -0.8516,-1.2158 -2.5261,-4.9108 -3.7211,-8.2111 l -2.1728,-6.0006 -11.8773,-4.1007 c -14.6493,-5.0577 -15.6726,-5.6129 -18.3603,-9.9617 -2.3582,-3.8156 -3.542,-4.4353 -23.9601,-12.5426 -11.7923,-4.6823 -13.4848,-5.1108 -15.8781,-4.0201 -4.702,2.1429 -29.1143,8.0353 -33.2905,8.0353 -5.2906,0 -22.6238,-4.4297 -30.3051,-7.7448 -5.4493,-2.3518 -7.1953,-2.6047 -16.7562,-2.4268 l -10.6731,0.1987 -2.0769,-5.5511 c -2.5779,-6.89 -2.5758,-7.7679 0.036,-15.0694 1.407,-3.9344 2.1287,-8.4109 2.1612,-13.4066 0.097,-14.9501 -1.8685,-55.5367 -2.7609,-57 -0.5031,-0.825 -4.102,-5.775 -7.9975,-11 -3.8955,-5.225 -7.7426,-10.4817 -8.549,-11.6816 -0.8064,-1.1999 -5.7412,-8.0826 -10.96621,-15.2948 -5.225,-7.2122 -12.14708,-16.7806 -15.38239,-21.2631 -8.98346,-12.4465 -9.08924,-12.8112 -9.06572,-31.2606 0.0217,-16.9887 1.80805,-29.3677 6.88739,-47.7272 2.75022,-9.9408 2.07233,-8.5944 9.95529,-19.7728 12.90824,-18.3046 15.63254,-21.0848 25.77254,-26.3014 8.6612,-4.4558 10.4484,-4.96969 24.8329,-7.14039 8.525,-1.28647 21.35,-2.84632 28.5,-3.46633 32.311,-2.80182 37.6749,-3.53548 52.9353,-7.24029 8.8356,-2.14506 22.5897,-5.43668 30.5647,-7.31472 12.8367,-3.02294 20.0652,-5.24209 35.8078,-10.99313 2.3692,-0.86553 10.6174,-2.68047 18.3292,-4.03319 l 14.0214,-2.45948 11.6708,-12.15477 c 6.4189,-6.68512 11.8119,-12.51997 11.9844,-12.96633 0.3543,-0.91693 -3.5023,-2.10038 -15.8136,-4.85262 -4.675,-1.04511 -14.6956,-3.38557 -22.2681,-5.20102 l -13.7681,-3.30082 -9.2507,9.21225 c -5.0879,5.06674 -9.6922,9.20877 -10.2319,9.20452 -0.5397,-0.004 -5.2563,-3.82577 -10.4813,-8.49227 -11.1644,-9.97107 -4.0086,-9.00003 -54.8055,-7.43708 -24.1121,0.74189 -35.2547,0.74126 -37.5,-0.002 -2.4417,-0.80842 -5.5012,-4.18028 -12.9833,-14.30923 -43.2213,-58.51037 -63.64513,-84.39942 -69.61045,-88.23741 -1.99181,-1.2815 -6.72854,-2.836 -10.60073,-3.47896 -8.92498,-1.48194 -13.5962,-4.25197 -23.30714,-13.82114 -5.83047,-5.74535 -8.89684,-9.79688 -12.01501,-15.87522 -3.36226,-6.55415 -7.01111,-11.18152 -18.53056,-23.5 -7.88914,-8.43648 -15.03444,-16.68896 -15.87843,-18.33896 -1.7711,-3.46247 -7.31473,-23.01444 -8.26971,-29.16661 -0.57005,-3.67235 -1.48814,-4.83695 -7.73943,-9.81751 -3.90097,-3.108 -9.31441,-6.77675 -12.02987,-8.15278 -4.92393,-2.49514 -4.97255,-2.49878 -18.08353,-1.35309 -7.23048,0.63183 -19.44632,2.26617 -27.14632,3.63187 -43.286047,7.67736 -60.375197,10.47213 -72.499997,11.8567 -13.26537,1.51481 -33.62601,4.71944 -41.5,6.53183 -7.12108997,1.63909 -8.5,1.32802 -8.5,-1.91755 v -2.88713 l 13.75,-2.61782 c 7.5625,-1.4398 21.625,-3.52766 31.25,-4.63968 20.98484,-2.42449 37.33724,-4.97459 57.499997,-8.96692 23.58751,-4.67045 39.09515,-7.00103 51.0147,-7.66681 13.02886,-0.72773 14.62547,-0.14797 28.67092,10.4109 8.79483,6.61164 10.11718,8.45136 11.32413,15.7546 1.04403,6.3175 6.51661,24.77548 8.06368,27.19733 0.77201,1.20853 7.3932,8.44484 14.71375,16.08068 10.77888,11.24312 14.38942,15.7896 18.98563,23.90718 4.17744,7.37796 7.52511,11.76862 12.6826,16.63394 8.6062,8.11865 10.75008,9.2589 19.75453,10.50672 10.65265,1.47623 13.81879,4.1296 31.63014,26.50745 7.4233,9.32652 54.1289,70.98464 58.6251,77.39355 l 2.4652,3.51389 23.0348,-0.63717 c 12.6691,-0.35045 29.2552,-0.91399 36.858,-1.25232 l 13.8231,-0.61515 -13.4366,-13.61805 c -35.1199,-35.59411 -43.0202,-59.15274 -26.9241,-80.28698 8.9653,-11.77138 21.4135,-17.44062 36.543,-16.64264 9.1642,0.48335 15.9266,3.1601 23.4992,9.30165 6.0659,4.91966 9.3569,4.73466 15.9544,-0.89684 7.5278,-6.42557 12.6775,-8.10239 24.7178,-8.0484 11.3404,0.0508 18.3722,2.18807 25.774,7.83366 9.9842,7.61515 16.6122,21.42477 15.3671,32.0179 -1.9743,16.79838 -12.4888,33.23025 -36.5397,57.1036 -6.6491,6.6 -12.092,12.25522 -12.0953,12.56716 0,0.31193 3.4814,1.36065 7.7439,2.33047 4.2625,0.96982 15.982,3.77141 26.0432,6.22574 17.7006,4.31787 18.6066,4.43674 27.9652,3.66953 l 9.672,-0.7929 2.8678,-4.27524 c 1.8014,-2.68538 4.6647,-5.18574 7.6996,-6.72365 5.3926,-2.73263 5.3162,-2.54807 7.0391,-17.00111 1.0339,-8.67323 2.7634,-13.24534 5.2714,-13.93538 0.6554,-0.18035 7.4279,-1.5097 15.0499,-2.95411 7.622,-1.44442 14.1989,-2.83679 14.6154,-3.09417 1.5013,-0.92784 -6.4847,-40.83637 -9.195,-45.95001 -4.083,-7.70389 -15.1269,-18.38808 -23.1478,-22.3939 -8.9228,-4.45626 -18.3231,-7.23256 -27.8557,-8.22696 -8.8133,-0.91936 -13.5317,-1.9372 -29.3363,-6.32829 -2.7837,-0.77341 -9.0837,-1.70714 -14,-2.07496 -19.2373,-1.43926 -24.1488,-2.31977 -59.2403,-10.62024 -13.3992,-3.1694 -16.6057,-4.9386 -41.6985,-23.00703 -24.4446,-17.60171 -27.8522,-19.31995 -49.5,-24.96009 -5.775,-1.50463 -16.35,-4.32993 -23.5,-6.27845 -7.15,-1.94852 -17.1621,-4.66527 -22.2491,-6.03722 l -9.2491,-2.49446 -0.6053,2.67764 c -0.3329,1.4727 -1.2129,5.15263 -1.9555,8.17763 -0.7426,3.025 -2.3087,10.87322 -3.4802,17.44049 -1.6191,9.07635 -3.0585,13.78714 -6.0008,19.63907 -3.72243,7.40359 -4.15026,7.84956 -11.16537,11.63886 -4.01203,2.16716 -8.26917,4.55162 -9.46029,5.29882 -2.48388,1.55815 -5.82085,0.71131 -15.3105,-3.88541 l -5.47619,-2.65262 -8.37959,-17.9896 c -19.92145,-42.7681 -20.40636,-44.20371 -19.98372,-59.16212 0.30457,-10.7793 0.43083,-11.33573 3.5875,-15.81019 1.7995,-2.55072 3.00297,-5.07268 2.67438,-5.60435 -1.59407,-2.57926 -17.0414,-8.9219 -28.9462,-11.88524 -31.47701,-7.83526 -44.27973,-13.44484 -57.06391,-25.00288 -6.5465,-5.91862 -11.78178,-9.55059 -19.57778,-13.58207 -8.9249,-4.61526 -12.6354,-7.35035 -22.999997,-16.95379 -6.79707,-6.29791 -16.03563,-14.04684 -20.53012,-17.21986 -8.01725,-5.65999 -13.32819,-12.31447 -13.32819,-16.69989 0,-2.84567 -4.55497,-6.38398 -10.40914,-8.08583 -4.51793,-1.3134 -6.34686,-2.52828 -9.35347,-6.21312 -2.05556,-2.51926 -7.11239,-8.60219 -11.23739,-13.51762 -13.37828,-15.94181 -18.43542,-22.58289 -22,-28.89064 -1.925,-3.4064 -5.1875,-8.32081 -7.25,-10.9209 -3.16214,-3.98635 -3.75,-5.48389 -3.75,-9.55297 v -4.82553 l 5.85042,5.78937 c 3.36163,3.32655 8.42667,10.11968 11.90645,15.96869 3.33863,5.61175 11.04265,16.01258 17.16919,23.17933 6.11223,7.15 12.68416,14.88198 14.60431,17.18217 2.70612,3.24175 4.75874,4.55067 9.12823,5.82091 7.12291,2.07069 10.47853,5.42509 13.37569,13.37081 2.15401,5.90757 2.74742,6.59093 9.87869,11.37604 8.65249,5.80586 15.16118,11.09054 26.587017,21.58713 4.4,4.04216 10.025,8.49293 12.5,9.89062 9.05447,5.11325 18.64688,11.71391 24.64348,16.9575 3.37891,2.95461 9.36248,6.93861 13.29683,8.85334 8.43564,4.10538 28.05267,10.77236 36.55969,12.42505 9.70608,1.88564 15.30888,3.93513 27.6249,10.1051 l 11.62491,5.82374 5.87509,-1.82533 c 3.23131,-1.00393 12.1751,-4.45343 19.8751,-7.66556 13.12941,-5.47705 14.49748,-5.83941 22,-5.8272 10.45658,0.017 15.71188,1.658 21.04088,6.57013 5.9863,5.518 8.4591,10.98254 8.4591,18.69347 0,5.24829 -0.6175,7.4347 -4,14.16208 -2.2798,4.53441 -4,9.39165 -4,11.29496 v 3.33935 l 7.75,1.74809 c 4.2625,0.96144 12.25,3.03996 17.75,4.61891 5.5,1.57896 17.875,4.96807 27.5,7.53135 26.3272,7.01133 28.8471,8.20748 50.7709,24.10033 20.7694,15.05606 28.272,19.92527 32.8251,21.3036 1.5972,0.48351 10.554,2.71946 19.904,4.96879 20.1878,4.85658 36.3468,7.62768 49.9057,8.55828 6.9002,0.47359 13.5751,1.77477 22,4.28859 10.4084,3.10567 13.558,3.61841 22.5943,3.67823 l 10.5,0.0695 11.7981,-5.85124 c 11.0021,-5.45647 36.9851,-21.8752 39.5955,-25.02053 1.4395,-1.73445 0.3391,-9.54198 -4.5278,-32.12823 -7.8967,-36.64598 -22.1987,-84.51058 -35.408,-118.5 -8.0618,-20.74431 -25.0498,-57.14776 -36.1661,-77.5 -10.6021,-19.41078 -16.2621,-28.90863 -41.4166,-69.5 -2.8971,-4.675 -8.1041,-13.11251 -11.5713,-18.75001 -3.4671,-5.63751 -7.6538,-12.4274 -9.3038,-15.08864 -1.65,-2.66125 -5.6604,-9.29874 -8.9119,-14.74999 -25.4769,-42.71194 -48.8449,-77.80631 -84.5057,-126.91134 -1.9971,-2.75 -5.4201,-7.793 -7.6067,-11.20668 -4.8193,-7.52375 -3.5752,-7.37879 -27.9946,-3.26181 -9.8896,1.66733 -24.2811,3.91903 -31.9811,5.00378 -7.7,1.08475 -20.975,3.08753 -29.5,4.45062 -8.52498,1.36308 -29.22498,4.52741 -45.99998,7.03184 -40.4234,6.03501 -62.92497,9.59615 -102,16.14268 -17.875,2.99473 -39.304127,6.53127 -47.620277,7.85896 -8.31615,1.3277 -17.31358,2.90553 -19.99428,3.50628 -2.68071,0.60076 -12.30158,2.40469 -21.37972,4.00872 -9.07815,1.60404 -24.15572,4.27527 -33.50572,5.93606 -9.35,1.66079 -17.14101,3.02186 -17.31336,3.02459 -0.17235,0.003 -0.17235,-1.45754 0,-3.24504 0.26886,-2.78849 0.73937,-3.29509 3.31336,-3.56751 1.65,-0.17463 9.75,-1.62562 18,-3.22442 8.25,-1.5988 19.275,-3.55767 24.5,-4.35305 5.225,-0.79538 23.225,-3.94151 40,-6.9914 39.698487,-7.21764 56.740977,-10.10871 77.499997,-13.14702 9.35,-1.36847 20.375,-3.15972 24.5,-3.98054 4.125,-0.82082 18.3,-3.05889 31.5,-4.97349 13.2,-1.9146 31.2,-4.58048 40,-5.92416 8.8,-1.34369 26.79541,-4.0547 39.98978,-6.02446 13.1944,-1.96977 24.7828,-3.83307 25.752,-4.14069 1.2102,-0.38411 1.6049,-1.24274 1.2601,-2.74128 -1.8803,-8.17223 -10.7636,-43.2964 -11.0792,-43.80714 -0.2143,-0.34664 -9.9595,1.36644 -21.6561,3.80683 -31.47886,6.56778 -47.3853,9.40187 -49.09221,8.74687 -2.06199,-0.79126 -2.86284,-3.20786 -1.75133,-5.28474 1.04666,-1.95571 9.21923,-4.03381 39.57696,-10.06355 10.99998,-2.18485 22.37538,-4.48676 25.27858,-5.11535 l 5.2786,-1.1429 -0.6508,-3.661 c -0.358,-2.01355 -1.9207,-7.711 -3.4727,-12.661 -4.5082,-14.37844 -8.6345,-31.84389 -11.3403,-48 -1.3817,-8.25 -3.8293,-18.825 -5.4392,-23.5 -2.7837,-8.084 -14.00839,-38.82687 -18.07308,-49.499995 -1.0473,-2.75 -2.90598,-8.15 -4.13042,-12 -2.78482,-8.756309 -5.42673,-14.090677 -9.01766,-18.207803 -1.84101,-2.11079 -3.02185,-4.846652 -3.45293,-8 -0.65931,-4.8229 -2.94943,-14.837797 -6.35528,-27.792197 -1.01221,-3.85 -2.11813,-8.4625033 -2.4576,-10.2500033 -0.6011,-3.16514 -0.52584,-3.25 2.88254,-3.25 2.79535,0 3.68752,0.49388 4.43267,2.45376 1.97178,5.1861923 8.23007,29.3190493 9.03331,34.8337633 0.60585,4.159517 1.6498,6.706448 3.71124,9.054292 3.2468,3.697902 3.37388,4.006223 9.54539,23.158188 4.28866,13.308958 7.70782,22.686397 18.22612,49.987465 3.64,9.44774 5.2465,15.69776 7.5829,29.5 2.9332,17.32837 5.0296,26.35619 12.8907,55.51253 2.2243,8.25 5.135,19.5 6.4682,25 3.4631,14.2868 8.453,34.48437 9.3881,38 0.9496,3.57021 0.8544,3.56852 21.4216,0.38132 8.2924,-1.28503 13.7431,-2.5774 13.7327,-3.25604 -0.01,-0.6189 -3.6454,-7.42528 -8.0796,-15.12528 -9.0337,-15.68676 -30.0018,-57.70274 -37.9279,-76 -4.6747,-10.79129 -8.1088,-19.02757 -16.4696,-39.5 -1.46,-3.575 -3.2456,-7.85 -3.9679,-9.5 -2.0745,-4.73858 -15.98646,-39.916508 -20.40448,-51.594969 -5.63371,-14.891988 -14.59823,-42.134951 -18.72493,-56.904666 -1.92095,-6.875198 -3.72898,-13.2878633 -4.01784,-14.2503633 -0.47575,-1.58521 0.41877,-1.75 9.49984,-1.75 h 10.02504 l 2.12413,7.2500033 c 6.74409,23.01865 13.93804,43.674681 24.59164,70.610542 26.0816,65.942763 30.92,77.625203 44.5795,107.639453 11.036,24.2493 36.2422,70.38139 41.1225,75.26164 1.5117,1.51169 15.041,-0.54246 24.4387,-3.71051 13.8583,-4.67177 36.4206,-11.12898 44.2282,-12.6579 6.7391,-1.31967 16.1652,-1.73714 45.5,-2.01512 75.9408,-0.71965 195.5593,-2.40545 242,-3.41054 l 48,-1.03885 7.1796,-3.66819 7.1797,-3.6682 1.629,-6.54617 c 9.1784,-36.88305 21.2921,-72.77087 31.166,-92.33206 6.4972,-12.87158 24.0727,-25.17833 41.1012,-28.78007 2.6095,-0.55194 26.7945,-1.60957 53.7445,-2.35031 42.5484,-1.16947 49.9546,-1.6024 56.25,-3.28809 l 7.25,-1.9413 v 4.23997 4.23998 l -5.25,1.13261 c -11.5645,2.49487 -21.968,3.16973 -61.75,4.00564 -45.7295,0.96088 -50.5733,1.5288 -61.9816,7.26722 -8.6084,4.33006 -19.3811,14.55484 -23.103,21.92788 -6.8121,13.49474 -14.7082,35.97059 -25.4114,72.33237 -4.2092,14.3 -8.9276,30.05 -10.4853,35 -4.4231,14.05544 -15.8856,52.8468 -20.8321,70.5 -1.6182,5.775 -4.8099,17.7 -7.0927,26.5 -2.2828,8.8 -5.4605,20.725 -7.0615,26.5 -2.6534,9.57067 -7.9173,39.71242 -9.5178,54.5 -0.5428,5.01494 -6.6884,48.60129 -12.0288,85.31141 -0.745,5.12128 -2.0706,17.49628 -2.9458,27.5 -4.8363,55.28168 -6.2772,66.70506 -9.6506,76.51001 -4.2646,12.39536 -23.1935,34.9584 -41.3894,49.33575 -14.1301,11.16482 -18.2264,15.58212 -23.8106,25.67626 -7.2872,13.17288 -8.871,15.87365 -12.7055,21.66657 -14.2847,21.58036 -22.3058,34.25048 -24.8904,39.31671 -2.0888,4.09443 -2.1074,4.46133 -0.655,12.94856 2.4673,14.41861 7.3984,58.60198 8.5083,76.23473 0.5712,9.075 1.4999,28.875 2.0637,44 1.1756,31.53832 1.2314,32.07635 5.1356,49.5 4.2905,19.14795 13.1386,43.68285 25.064,69.49999 1.1432,2.475 3.0849,6.75 4.3149,9.5 1.2299,2.75 6.8171,14.9 12.4159,27 5.5989,12.1 10.7793,23.35 11.512,25 0.7328,1.65 4.7889,10.65 9.0136,20 4.2247,9.35 9.183,20.375 11.0184,24.5 1.8355,4.1251 6.2521,14.0251 9.8147,22.0001 3.5626,7.975 7.5091,16.975 8.7699,20 3.7081,8.8964 3.9897,9.1228 15.6615,12.5867 19.9179,5.9112 37.3632,13.9336 52.738,24.2522 7.9569,5.3401 9.4545,6.8455 13.2715,13.3402 7.0261,11.9552 17.6293,35.0297 21.2829,46.3157 2.1372,6.6015 8.6385,20.1277 14.3488,29.8527 10.1867,17.3488 16.9696,32.423 20.1492,44.7791 5.0612,19.6686 15.5125,36.6827 37.3928,60.8734 11.2245,12.4098 17.5754,20.0886 27.2931,33 4.7604,6.325 14.1142,18.025 20.7862,26 12.3032,14.7061 19.9459,25.3624 26.4257,36.8461 3.4384,6.0937 3.5788,6.7299 3.5293,16 l -0.052,9.6539 -1.5711,-4 c -6.7604,-17.2127 -12.3384,-26.3142 -26.3534,-43 -10.3294,-12.2979 -28.0047,-34.3561 -38.4625,-48 -3.7941,-4.95 -13.4877,-16.6793 -21.5414,-26.0652 -8.0537,-9.3859 -16.5353,-19.8517 -18.848,-23.2573 -6.9077,-10.1721 -13.5644,-24.8678 -17.5196,-38.6775 -4.0231,-14.0468 -8.3031,-24.0563 -16.017,-37.4587 -10.7775,-18.725 -12.9284,-22.9813 -17.2032,-34.0413 -5.2923,-13.6926 -10.932,-25.9424 -18.1097,-39.3354 -2.8991,-5.4095 -5.2711,-10.2561 -5.2711,-10.7702 0,-1.6395 -15.0935,-10.8985 -27.5,-16.8697 -10.3126,-4.9634 -32.2888,-13.0247 -35.5072,-13.0247 -0.5977,0 -0.3345,1.3723 0.6155,3.2095 2.7084,5.2374 14.1243,38.9258 18.3518,54.1562 12.2817,44.2475 18.7526,106.4214 16.1459,155.1343 -1.9927,37.2393 -3.8011,53.7227 -10.7517,98 -3.1758,20.2306 -10.7292,56.8438 -19.2893,93.5 -3.4393,14.7276 -20.823,81.5326 -28.6238,110 -2.0346,7.425 -5.4112,20.025 -7.5036,28 -2.0923,7.975 -5.1744,19.675 -6.849,26 -1.6746,6.325 -3.0547,11.7915 -3.0667,12.1479 -0.032,0.9535 14.0666,-2.822 19.6581,-5.2642 4.4173,-1.9294 5.9896,-2.0534 18.82,-1.4837 13.5148,0.6 21.837,1.9607 31.6627,5.1766 4.7079,1.5409 6.2283,3.2409 5.2286,5.8461 -0.9595,2.5004 -3.3716,2.6249 -11.3567,0.5861 -4.2902,-1.0954 -14.1451,-2.445 -21.8996,-2.9992 -13.658,-0.976 -14.3265,-0.9313 -21.3671,1.4294 -3.9973,1.3403 -11.0797,3.5361 -15.7385,4.8796 l -8.4707,2.4427 -1.3362,5.3693 c -0.7349,2.9532 -2.2296,8.4069 -3.3217,12.1194 l -1.9855,6.75 h -10.9576 c -6.0267,0 -10.95,-0.3375 -10.9405,-0.75 0.01,-0.4125 0.8645,-4.0125 1.9002,-8 1.0358,-3.9875 1.7786,-7.25 1.6509,-7.25 -1.0425,0 -24.0024,8.6972 -31.4977,11.9313 -8.4738,3.6564 -10.2472,4.0664 -17.5,4.0465 l -8.0706,-0.022 z m -196.7057,-599.4143 9.7942,-6.7455 5.2276,-10.9107 5.2275,-10.9106 -6.901,-7.1801 c -6.8586,-7.136 -6.9202,-7.1722 -10.0218,-5.8972 -1.7164,0.7056 -5.8208,2.3072 -9.1208,3.5591 -4.809,1.8243 -7.3399,3.7063 -12.75,9.4813 -6.3627,6.7918 -6.7479,7.4723 -6.7132,11.8614 0.02,2.5609 0.6301,7.7229 1.3554,11.4711 1.1329,5.8544 1.9307,7.4383 5.6606,11.2389 4.2572,4.3378 4.3819,4.3885 6.3946,2.6009 1.1289,-1.0027 6.46,-4.8586 11.8469,-8.5686 z m 191.6877,-314.33619 c -0.062,-30.20742 -5.5465,-96.25 -7.993,-96.25 -0.3789,0 -2.4439,1.26353 -4.5889,2.80784 -6.8014,4.89663 -23.5622,14.78803 -33.3904,19.70534 l -9.4903,4.74825 5.2056,2.29738 c 10.5415,4.65226 20.6727,12.78116 27.8818,22.37142 5.0332,6.69555 6.7088,11.84566 9.9463,30.56977 0.8559,4.95 2.2802,12.0375 3.1653,15.75 l 1.6091,6.75 h 3.8363 3.8362 z m 12.0003,-131.5 c 2.0218,-3.6556 7.8674,-12.77887 22.5856,-35.25 1.8012,-2.75 5.7896,-9.77202 8.8631,-15.60449 4.9046,-9.3072 6.8409,-11.81758 15.8286,-20.52069 5.6322,-5.45391 14.8482,-13.88721 20.48,-18.74067 15.9014,-13.70379 26.0236,-27.47596 29.1325,-39.63754 1.8529,-7.24861 3.8198,-24.79725 6.164,-54.99661 1.2516,-16.123 4.499,-41.76988 8.9267,-70.5 1.6105,-10.45 3.6391,-25.075 4.508,-32.5 5.891,-50.3414 10.6231,-73.96253 24.541,-122.5 1.5771,-5.5 4.4983,-15.85 6.4916,-23 4.0486,-14.52263 10.1905,-35.26384 14.5874,-49.26196 3.8702,-12.32153 3.8542,-12.53082 -0.8126,-10.5809 -3.0414,1.27077 -11.4476,1.71257 -45.9789,2.41652 -23.2414,0.4738 -61.954,1.36105 -86.0282,1.97166 -24.0741,0.61062 -79.7711,1.4809 -123.7711,1.93396 -90.307,0.92986 -82.1801,0.22509 -114.08,9.89305 -10.956,3.32044 -23.1825,6.7686 -27.17,7.66257 -3.9875,0.89397 -7.25,1.9371 -7.25,2.31806 0,1.52204 11.5973,18.11202 34.007,48.64704 6.5529,8.92889 37.2539,56.02134 46.4231,71.20866 11.689,19.36109 17.8691,29.39215 37.7611,61.29134 38.4966,61.73393 50.5846,83.56726 70.3133,127 5.5568,12.23351 14.4303,34.18858 18.1339,44.86772 1.0239,2.95225 2.4287,5.58965 3.1218,5.8609 0.6931,0.27125 7.6681,-0.7862 15.5,-2.34989 19.6257,-3.9184 34.6551,-3.98104 42.904,-0.1788 6.9849,3.21962 8.5051,5.62285 6.9147,10.93122 -0.6322,2.10992 -2.0039,4.29356 -3.0484,4.85253 -5.2233,2.79543 -20.2586,-0.0835 -32.6365,-6.24928 l -8.894,-4.43032 -7.5452,1.30444 c -4.1499,0.71744 -8.5128,1.66236 -9.6954,2.09981 l -2.1501,0.79537 2.5474,7.49815 c 8.9291,26.28285 22.0508,75.63721 24.9246,93.74815 0.3709,2.3375 0.984,4.25 1.3624,4.25 0.3784,0 1.7458,-1.9125 3.0386,-4.25 z m 27.0177,-101.656 c 0,-1.37478 -1.3238,-2.36744 -4.75,-3.56164 -5.6236,-1.96016 -23.25,-3.3368 -23.25,-1.81585 0,0.84399 7.3957,4.59362 13,6.59099 0.825,0.29403 4.5375,0.57013 8.25,0.61355 6,0.0702 6.75,-0.13283 6.75,-1.82705 z M 277.92963,1782.5114 c -12.69657,-2.2555 -15.2674,-3.318 -16.1597,-6.6786 -0.41903,-1.5781 -1.32566,-11.9077 -2.01473,-22.9546 l -1.25287,-20.0853 -3.44513,-3.0454 c -9.12006,-8.0617 -6.31795,-7.3149 -41.65826,-11.1026 -11.2373,-1.2044 -17.74527,-2.4114 -21.86312,-4.0547 -9.11909,-3.6392 -11.78037,-3.843 -19.51353,-1.4941 -6.26872,1.9041 -7.17695,2.5218 -9.47654,6.4458 -2.87764,4.9103 -2.59746,8.4426 0.72268,9.1112 1.17178,0.2359 5.73051,0.6365 10.13051,0.8902 4.77752,0.2755 10.12967,1.3067 13.28702,2.5601 2.90786,1.1543 7.18286,2.1057 9.5,2.1141 5.59283,0.02 6.21984,0.5554 8.10404,6.9162 3.1903,10.7699 1.68152,12.5998 -11.22121,13.6091 -8.94549,0.6998 -9.01554,0.7265 -13.24959,5.0406 -4.06775,4.1448 -4.85252,4.48 -17.69278,7.557 -9.53894,2.2859 -13.89344,2.9315 -15.01249,2.2256 -2.97767,-1.8783 -8.97175,-12.7781 -9.65118,-17.55 l -0.66722,-4.6862 5.4414,-3.4808 c 2.99278,-1.9145 5.7175,-3.9276 6.05495,-4.4736 1.26294,-2.0435 -0.66867,-3.9202 -7.37296,-7.1635 l -6.89934,-3.3377 -6.05579,-15.0898 c -11.10261,-27.6653 -10.56485,-24.0726 -10.56485,-70.5822 0,-34.1384 0.23561,-40.9223 1.5,-43.1886 1.92505,-3.4504 24.9994,-22.1 39.38404,-31.8317 6.11378,-4.1362 16.25081,-11.5612 22.52674,-16.5 6.27593,-4.9388 16.40093,-12.9127 22.5,-17.7197 11.44654,-9.0215 37.24578,-26.76 38.92046,-26.76 2.08126,0 72.29514,23.1319 75.27404,24.799 1.2855,0.7194 0.2127,1.9003 -5.5043,6.0584 -4.6696,3.3965 -7.101,5.8425 -7.101,7.144 0,2.3896 8.5156,8.9378 11.67,8.9738 1.1935,0.014 7.4321,-1.1129 13.8635,-2.5034 13.4884,-2.9163 11.8892,-3.4923 20.8043,7.493 3.3633,4.1444 9.3882,11.3019 13.3887,15.9057 4.0004,4.6038 7.2735,8.8059 7.2735,9.3379 0,1.2427 5.9559,0.2994 17.5,-2.7715 13.7814,-3.6662 24.2757,-5.4365 32.227,-5.4367 6.393,-2e-4 7.3963,0.2594 8.6951,2.2498 1.6461,2.5227 4.4937,21.0024 7.5401,48.9326 2.8415,26.0507 2.9156,25.108 -2.2122,28.1418 -2.3375,1.3829 -6.05,4.2442 -8.25,6.3584 -2.2,2.1142 -14.35,13.6746 -27,25.6898 -12.65,12.0153 -24.9976,23.8856 -27.4391,26.3786 -6.2166,6.3476 -12.7018,10.2513 -17.0067,10.2369 -1.9548,-0.01 -6.0292,-0.6762 -9.0542,-1.4881 -8.6042,-2.3095 -10.6456,-1.8973 -22,4.4422 l -10.5,5.8624 -0.2993,5.0128 -0.2993,5.0128 6.7993,0.6551 c 11.5607,1.1139 17.6901,2.4595 19.4658,4.2734 2.1749,2.2219 6.8335,14.6291 6.8335,18.1998 0,3.6334 -2.5107,4.6606 -13.5665,5.5503 -7.6157,0.6128 -9.7451,1.2068 -14.4359,4.027 -3.0263,1.8195 -6.5923,4.4683 -7.9243,5.8862 -2.3325,2.4829 -2.8307,2.5746 -13.4976,2.4849 -6.0916,-0.051 -14.88687,-0.7702 -19.54499,-1.5977 z"
       id="path1" />
  </g>
</svg>
