<?xml version="1.0" encoding="UTF-8"?><svg width="150" height="150" viewBox="0 0 150 150" xmlns="http://www.w3.org/2000/svg">
                            <path class="building-outline" d="" stroke="none" fill="black" fill-rule="evenodd"></path><path class="park-area" d="" stroke="none" fill="black" fill-rule="evenodd"></path><path class="road-trace" d="M 32.501 3.223 C 30.302 4.338, 27.456 5.250, 26.176 5.250 C 24.520 5.250, 24.159 5.559, 24.923 6.323 C 25.687 7.087, 27.424 6.883, 30.956 5.613 C 36.589 3.588, 37.253 3.783, 38.991 7.979 C 39.679 9.640, 40.638 11, 41.121 11 C 42.335 11, 42.233 10.351, 40.490 6.981 C 39.659 5.374, 39.097 3.511, 39.240 2.840 C 39.658 0.877, 36.808 1.039, 32.501 3.223 M 51.040 8.344 L 53.013 11.688 45.322 13.923 C 41.092 15.152, 35.027 17.472, 31.844 19.079 C 28.661 20.685, 25.803 22, 25.493 22 C 25.183 22, 24.106 20.081, 23.101 17.736 C 20.898 12.596, 17.943 9.701, 17.190 11.943 C 16.923 12.737, 15.646 14.445, 14.352 15.739 C 13.059 17.032, 12 18.520, 12 19.045 C 12 19.570, 11.550 20, 11 20 C 10.450 20, 10 20.472, 10 21.050 C 10 22.743, 12.574 20.825, 15.861 16.682 L 18.890 12.864 21.015 17.029 C 22.183 19.320, 22.936 21.713, 22.687 22.347 C 22.438 22.981, 18.794 24.802, 14.588 26.394 C 7.706 28.998, 4.322 31, 6.803 31 C 8.111 31, 31.969 21.059, 34.443 19.483 C 35.574 18.762, 40.304 17.017, 44.953 15.605 C 51.425 13.639, 53.588 13.326, 54.187 14.269 C 55.459 16.271, 55.117 18.444, 53.250 20.218 C 52.288 21.132, 49.250 24.177, 46.500 26.984 C 41.833 31.747, 27.845 42, 26.014 42 C 25.564 42, 24.700 40.577, 24.093 38.838 C 23.487 37.099, 22.716 35.951, 22.380 36.287 C 22.044 36.623, 22.226 38.209, 22.785 39.812 C 23.795 42.710, 23.770 42.735, 18.332 44.249 C 12.870 45.769, 12.862 45.768, 11.956 43.385 C 11.458 42.073, 10.573 41, 9.990 41 C 9.250 41, 9.257 41.611, 10.011 43.021 C 11.514 45.830, 10.465 47, 6.441 47 C 4.547 47, 3 47.509, 3 48.132 C 3 49.233, 6.383 48.992, 13.252 47.403 C 15.724 46.831, 16.067 47.083, 16.627 49.883 C 17.478 54.140, 19.013 53.852, 18.317 49.565 C 17.769 46.188, 17.841 46.106, 22.630 44.666 L 27.500 43.200 30.500 46.460 C 32.150 48.253, 35.975 51.218, 39 53.049 C 42.025 54.881, 44.676 56.508, 44.892 56.665 C 45.108 56.822, 42.922 60.549, 40.035 64.946 L 34.787 72.941 31.643 71.322 C 29.914 70.432, 27.507 69.056, 26.293 68.265 L 24.086 66.827 26.690 62.893 C 28.121 60.729, 29.034 58.701, 28.719 58.385 C 28.403 58.069, 26.981 59.654, 25.560 61.906 C 24.138 64.157, 22.818 66, 22.627 66 C 22.436 66, 18.384 64.200, 13.622 62 C 1.551 56.423, 0.393 57.135, 12.173 62.890 L 21.846 67.615 19.821 70.814 C 17.670 74.211, 14.544 75.528, 10.482 74.752 C 7.235 74.131, 7.252 75.774, 10.500 76.589 C 14.582 77.614, 17.888 76.185, 20.756 72.156 L 23.455 68.364 28.586 71.405 L 33.717 74.445 28.208 82.723 C 25.179 87.275, 22.274 91, 21.754 91 C 21.234 91, 19.476 90.051, 17.847 88.891 C 16.218 87.731, 14.643 87.024, 14.347 87.319 C 14.052 87.615, 15.418 88.902, 17.383 90.178 C 20.125 91.961, 20.811 92.963, 20.333 94.492 C 19.810 96.169, 19.948 96.288, 21.204 95.246 C 22.414 94.242, 22.985 94.338, 24.220 95.754 C 27.086 99.040, 28.001 101.599, 26.753 102.847 C 25.882 103.718, 25.998 104, 27.227 104 C 28.121 104, 29.059 104.787, 29.311 105.750 C 29.655 107.067, 29.797 106.943, 29.884 105.250 C 29.962 103.739, 30.630 103, 31.918 103 C 32.973 103, 34.512 102.741, 35.337 102.424 C 36.525 101.968, 36.974 103.062, 37.495 107.674 C 37.857 110.878, 38.568 114.625, 39.075 116 C 39.925 118.305, 39.971 118.247, 39.672 115.250 L 39.346 112 46.790 112 C 54.021 112, 54.216 112.064, 53.630 114.250 C 53.299 115.487, 53.021 117.063, 53.014 117.750 C 53.004 118.614, 51.068 119.005, 46.750 119.015 C 42.346 119.026, 40.943 119.317, 42 120 C 42.825 120.533, 45.356 120.976, 47.625 120.985 C 51.472 120.999, 51.794 121.218, 52.398 124.242 C 52.777 126.134, 52.624 127.625, 52.032 127.823 C 51.441 128.020, 51.611 128.754, 52.437 129.580 C 54.565 131.708, 54.742 131.389, 54.032 126.710 C 53.624 124.026, 54.097 118.598, 55.294 112.206 L 57.207 101.992 61.353 102.110 C 63.634 102.175, 66.737 101.738, 68.250 101.139 C 71.724 99.763, 71.784 100.701, 68.843 110.392 C 67.657 114.301, 66.759 118.850, 66.847 120.500 C 67.071 124.673, 68.993 128, 71.180 128 C 74.197 128, 104.900 106.784, 104.954 104.662 C 104.979 103.652, 103.426 100.011, 101.503 96.572 L 98.006 90.318 100.450 89.205 C 103.258 87.926, 103.567 88.324, 111.001 102.786 C 113.344 107.344, 115.477 110.856, 115.742 110.592 C 116.006 110.327, 110.566 99.398, 103.654 86.305 C 96.741 73.212, 91.509 62.352, 92.027 62.172 C 92.546 61.991, 92.269 60.487, 91.411 58.829 C 90.554 57.171, 89.998 55.688, 90.176 55.534 C 90.354 55.380, 91.922 54.531, 93.660 53.648 C 96.442 52.234, 97.369 52.207, 101.410 53.423 C 103.935 54.183, 106 54.447, 106 54.011 C 106 53.574, 104.790 52.913, 103.312 52.542 C 101.833 52.171, 100.119 51.178, 99.503 50.334 C 98.520 48.990, 97.909 49.122, 94.551 51.401 C 92.445 52.830, 90.356 54, 89.909 54 C 89.463 54, 87.501 51.075, 85.549 47.500 C 83.597 43.925, 80.398 38.067, 78.441 34.481 L 74.881 27.963 84.191 28.179 C 96.752 28.472, 116.628 27.180, 127 25.397 C 138.542 23.413, 140.323 22.990, 139.707 22.374 C 139.417 22.083, 135.426 22.541, 130.839 23.392 C 120.083 25.386, 99.709 27.004, 85.605 26.985 L 74.500 26.969 71.485 21.357 C 69.827 18.270, 68.115 15.821, 67.681 15.916 C 67.247 16.010, 65.981 15.056, 64.867 13.794 C 63.754 12.532, 65.830 17.242, 69.482 24.259 L 76.122 37.019 71.811 38.865 C 69.440 39.880, 66.600 40.993, 65.500 41.339 C 63.365 42.010, 63.330 41.965, 56.308 29.298 L 52.869 23.096 55.019 20.188 L 57.170 17.279 54.070 11.140 C 52.366 7.763, 50.543 5, 50.019 5 C 49.496 5, 49.955 6.505, 51.040 8.344 M 67 16.362 C 67 17.447, 72.968 29, 73.529 29 C 73.804 29, 72.619 26.188, 70.896 22.750 C 67.630 16.234, 67 15.202, 67 16.362 M 47.526 28.392 C 44.037 31.343, 43.718 31.956, 44.918 33.401 C 45.670 34.307, 45.962 35.371, 45.567 35.766 C 45.173 36.160, 44.411 35.698, 43.874 34.739 C 42.992 33.163, 42.299 33.396, 36.699 37.152 C 33.289 39.439, 30.312 41.466, 30.082 41.656 C 29.852 41.847, 30.263 43.123, 30.996 44.493 C 32.226 46.792, 43.960 55, 46.016 55 C 46.511 55, 48.061 53.046, 49.461 50.657 C 51.354 47.427, 52.965 46.019, 55.753 45.161 C 62.738 43.009, 62.733 43.046, 57.381 33.638 C 54.697 28.918, 52.275 25.050, 52 25.043 C 51.725 25.036, 49.711 26.543, 47.526 28.392 M 77.500 37 C 79.439 40.850, 81.250 44, 81.525 44 C 81.800 44, 80.439 40.850, 78.500 37 C 76.561 33.150, 74.750 30, 74.475 30 C 74.200 30, 75.561 33.150, 77.500 37 M 70.316 40.820 L 64.131 43.264 68.030 54.334 C 70.175 60.422, 71.722 65.611, 71.469 65.864 C 71.216 66.117, 70.513 64.901, 69.907 63.162 C 69.300 61.423, 68.694 60, 68.559 60 C 68.424 60, 65.754 60.880, 62.627 61.956 L 56.940 63.913 51.828 60.899 C 49.016 59.241, 46.398 58.248, 46.009 58.692 C 44.278 60.671, 24 92.184, 24 92.895 C 24 93.332, 24.860 94.468, 25.910 95.419 C 26.961 96.369, 28.087 98.211, 28.413 99.510 C 28.941 101.612, 29.421 101.809, 32.753 101.295 C 34.814 100.977, 36.634 100.609, 36.799 100.476 C 37.673 99.773, 35.575 95, 34.392 95 C 32.661 95, 32.550 93.080, 34.250 92.541 C 34.938 92.323, 38.087 91.855, 41.250 91.501 L 47 90.856 47 85.987 C 47 83.309, 47.478 80.823, 48.062 80.462 C 48.646 80.101, 49.534 78.724, 50.037 77.403 C 51.138 74.506, 53 74.231, 53 76.965 C 53 78.045, 53.900 79.411, 55 80 C 56.795 80.960, 57 82.094, 57 91.035 L 57 101 60.935 101 C 63.099 101, 66.078 100.540, 67.556 99.979 C 69.958 99.066, 70.164 98.617, 69.509 95.729 C 67.646 87.522, 67.442 85.348, 68.340 83.269 C 68.870 82.042, 70.023 80.832, 70.902 80.580 C 73.951 79.706, 90.228 76.895, 90.490 77.197 C 90.635 77.363, 92.199 80.082, 93.965 83.238 C 96.912 88.502, 97.356 88.883, 99.339 87.852 C 100.527 87.235, 101.652 86.601, 101.838 86.444 C 102.177 86.157, 79.592 42.868, 77.575 39.938 C 76.617 38.545, 75.830 38.641, 70.316 40.820 M 57.316 45.945 C 54.709 47.128, 52.091 49.416, 50.369 52.019 L 47.606 56.194 50.053 58.052 C 55.580 62.249, 56.666 62.471, 62.563 60.612 C 68.695 58.679, 68.470 59.688, 65.028 49.558 C 64.104 46.840, 62.933 44.488, 62.424 44.331 C 61.916 44.175, 59.617 44.901, 57.316 45.945 M 86.500 54 C 88.439 57.850, 90.250 61, 90.525 61 C 90.800 61, 89.439 57.850, 87.500 54 C 85.561 50.150, 83.750 47, 83.475 47 C 83.200 47, 84.561 50.150, 86.500 54 M 86.750 78.816 C 83.357 79.207, 83.348 79.768, 86.620 86.283 C 89.923 92.858, 89.422 92.482, 92.931 91.029 L 95.926 89.788 93.503 85.144 C 90.159 78.735, 89.864 78.458, 86.750 78.816 M 74.646 80.975 C 72.526 81.384, 70.395 82.345, 69.911 83.110 C 68.934 84.652, 68.693 89.360, 69.547 90.214 C 69.990 90.656, 77.951 88.585, 83.684 86.536 C 84.589 86.213, 84.596 85.391, 83.715 83.057 C 82.486 79.800, 81.682 79.615, 74.646 80.975 M 49 90.937 L 49 101 52.536 101 L 56.072 101 55.786 91.250 L 55.500 81.500 52.250 81.187 L 49 80.873 49 90.937 M 76.241 90.132 C 70.245 91.995, 70.009 92.191, 70.629 94.789 C 70.985 96.280, 71.433 97.785, 71.625 98.132 C 72.156 99.098, 87.344 94.468, 87.763 93.212 C 88.377 91.369, 86.038 87.994, 84.215 88.094 C 83.272 88.145, 79.683 89.062, 76.241 90.132 M 93.234 93.548 L 91.024 95.097 94.543 102.086 L 98.063 109.076 101.032 107.322 C 102.664 106.358, 104 105.160, 104 104.661 C 104 102.914, 97.528 92, 96.492 92 C 95.916 92, 94.450 92.697, 93.234 93.548 M 37.370 95.250 C 37.701 96.487, 37.979 98.287, 37.986 99.250 C 37.997 100.655, 38.886 101, 42.500 101 L 47 101 47 97 L 47 93 41.883 93 C 37.065 93, 36.802 93.131, 37.370 95.250 M 78.185 98.126 C 70.925 100.407, 70.456 102.341, 77.047 102.818 C 80.047 103.036, 82.961 102.424, 86.242 100.887 C 95.180 96.701, 89.220 94.658, 78.185 98.126 M 88.233 101.228 C 85.723 102.438, 85.855 103.723, 89.167 110.285 C 91.102 114.120, 91.725 114.218, 95.208 111.231 C 96.808 109.859, 96.759 109.458, 94.441 104.883 C 91.786 99.644, 91.666 99.573, 88.233 101.228 M 38.370 104.250 C 38.701 105.487, 38.979 107.287, 38.986 108.250 C 38.998 109.761, 40.031 110, 46.531 110 C 51.684 110, 54.184 109.605, 54.448 108.750 C 54.660 108.063, 55.104 106.263, 55.436 104.750 L 56.038 102 46.902 102 C 37.916 102, 37.777 102.037, 38.370 104.250 M 72.226 105.250 C 71.666 105.938, 70.727 108.262, 70.139 110.415 C 69.243 113.696, 69.332 114.522, 70.688 115.514 C 72.476 116.821, 71.697 119, 69.441 119 C 68.648 119, 68 119.930, 68 121.066 C 68 123.621, 69.735 127, 71.047 127 C 72.722 127, 81.963 120.560, 81.982 119.379 C 82.019 117.049, 75.648 104, 74.474 104 C 73.798 104, 72.787 104.563, 72.226 105.250 M 80.258 111.500 C 81.980 115.625, 83.638 118.998, 83.944 118.995 C 84.250 118.992, 85.690 117.980, 87.145 116.745 L 89.790 114.500 87.414 109.250 C 85.130 104.202, 84.887 104, 81.083 104 L 77.127 104 80.258 111.500 M 68.500 117 C 68.840 117.550, 69.316 118, 69.559 118 C 69.802 118, 70 117.550, 70 117 C 70 116.450, 69.523 116, 68.941 116 C 68.359 116, 68.160 116.450, 68.500 117" stroke="none" fill="black" fill-rule="evenodd"></path><path class="marker-path" d="M 66.571 67.571 C 63.172 70.971, 64.705 75.069, 71.763 81.450 L 75.026 84.399 80.013 79.487 C 85.352 74.229, 86.406 70.549, 83.429 67.571 C 81.564 65.706, 77.883 65.517, 76.200 67.200 C 75.267 68.133, 74.733 68.133, 73.800 67.200 C 72.117 65.517, 68.436 65.706, 66.571 67.571" stroke="none" fill="black" fill-rule="evenodd"></path>
                        </svg>