<?xml version="1.0" encoding="UTF-8"?>
<svg version="1.1" xmlns="http://www.w3.org/2000/svg" width="84" height="150">
<path d="M0 0 C27.72 0 55.44 0 84 0 C84 49.5 84 99 84 150 C56.28 150 28.56 150 0 150 C0 100.5 0 51 0 0 Z " fill="#F9F9F9" transform="translate(0,0)"/>
<path d="M0 0 C19.8 0 39.6 0 60 0 C60 49.5 60 99 60 150 C51.75 150 43.5 150 35 150 C35.61875 147.4425 36.2375 144.885 36.875 142.25 C41.66827229 121.89506116 42.83809155 105.95973163 33.48828125 86.921875 C29.33624165 78.21329911 29.49653903 70.44269016 30 61 C29.34 60.67 28.68 60.34 28 60 C27.44057318 58.37340571 26.95509253 56.72131227 26.5 55.0625 C24.62930606 49.16697971 22.01345421 43.95721907 19 38.5625 C18.57267578 37.79365479 18.14535156 37.02480957 17.70507812 36.23266602 C15.84397587 32.96032348 14.04489926 30.0538348 11.625 27.15234375 C11.08875 26.44207031 10.5525 25.73179688 10 25 C10.33 24.01 10.66 23.02 11 22 C14.41751653 20.86082782 17.03487937 20.88661519 20.63671875 20.90234375 C21.93544922 20.90556641 23.23417969 20.90878906 24.57226562 20.91210938 C25.94401108 20.92046469 27.31575587 20.92892963 28.6875 20.9375 C30.07096195 20.94251665 31.45442563 20.94707927 32.83789062 20.95117188 C36.22530395 20.96297471 39.61263033 20.97943981 43 21 C42.70452271 22.00619385 42.70452271 22.00619385 42.40307617 23.03271484 C40.55353856 29.53298754 39.23311089 35.9342214 38.3125 42.625 C38.18294922 43.52089844 38.05339844 44.41679688 37.91992188 45.33984375 C37.2790921 49.15402201 37.2790921 49.15402201 37 53 C38.38154264 47.15501192 39.51903749 41.2879542 40.5625 35.375 C40.75259644 34.30100952 40.75259644 34.30100952 40.9465332 33.20532227 C41.71389454 28.80831646 42.36798277 24.4241206 43 20 C25.675 20.495 25.675 20.495 8 21 C2 9 2 9 0 0 Z " fill="#FBFBFB" transform="translate(24,0)"/>
<path d="M0 0 C0.99 0 1.98 0 3 0 C3.40992188 1.10859375 3.81984375 2.2171875 4.2421875 3.359375 C4.78634101 4.82296029 5.33061835 6.28649955 5.875 7.75 C6.14441406 8.47960938 6.41382812 9.20921875 6.69140625 9.9609375 C6.95566406 10.66992188 7.21992188 11.37890625 7.4921875 12.109375 C7.73308105 12.75874023 7.97397461 13.40810547 8.22216797 14.07714844 C9.03990635 16.09865109 10.02479038 18.04958075 11 20 C22.88 19.67 34.76 19.34 47 19 C45.87301587 28.01587302 45.87301587 28.01587302 45.31640625 31.18359375 C45.19442871 31.87960693 45.07245117 32.57562012 44.94677734 33.29272461 C44.81996582 34.00050049 44.6931543 34.70827637 44.5625 35.4375 C44.43053223 36.17814697 44.29856445 36.91879395 44.16259766 37.68188477 C41.62846783 51.74306434 41.62846783 51.74306434 40 55 C39.01 54.505 39.01 54.505 38 54 C38.31066406 53.16984375 38.62132812 52.3396875 38.94140625 51.484375 C40.26859533 47.11591501 40.69873051 42.79352341 41.12304688 38.2734375 C41.73360447 32.61890408 43.23895427 27.39915086 45 22 C41.06731133 21.97526132 37.13465287 21.95712165 33.2019043 21.94506836 C31.20685232 21.93757271 29.21182214 21.92486655 27.21679688 21.91210938 C25.96318359 21.90888672 24.70957031 21.90566406 23.41796875 21.90234375 C22.26063232 21.89710693 21.1032959 21.89187012 19.91088867 21.88647461 C16.93395589 21.86700539 16.93395589 21.86700539 14 23 C15.36963089 25.81276188 16.85694271 28.50982255 18.4609375 31.1953125 C18.93273437 31.99453125 19.40453125 32.79375 19.890625 33.6171875 C20.86791158 35.26828746 21.8495757 36.91680545 22.8359375 38.5625 C25.73764613 43.4985587 28.11586434 48.40592775 30.12744141 53.76904297 C30.97011974 55.92360219 31.93574204 57.9473855 33 60 C34.49206416 62.98412832 33.77787172 65.62077547 33.5625 68.9375 C33.27203005 77.79326635 36.23925229 84.63291639 39.95703125 92.52734375 C45.77971149 104.95213951 46.01793047 116.30398509 43.75 129.6875 C43.64091309 130.33912109 43.53182617 130.99074219 43.41943359 131.66210938 C42.20655588 138.09052022 40.12130345 143.63608965 38 150 C25.79 150 13.58 150 1 150 C0.67 148.35 0.34 146.7 0 145 C-1.65 145 -3.3 145 -5 145 C-4.67 145.66 -4.34 146.32 -4 147 C-5.65 147.33 -7.3 147.66 -9 148 C-10.80142873 143.49642818 -12.50007338 138.77462379 -11 134 C-8.05803951 130.49828597 -4.54789905 127.24925099 0.15625 126.7890625 C2.0625 127.0625 2.0625 127.0625 5 128 C5 128.66 5 129.32 5 130 C5.66 130 6.32 130 7 130 C7 128.68 7 127.36 7 126 C11.455 125.505 11.455 125.505 16 125 C17.13383537 120.01112439 18.2216863 115.05903908 19 110 C15.99221479 108.99740493 13.46179353 108.69685358 10.3125 108.4375 C9.31863281 108.35371094 8.32476563 108.26992187 7.30078125 108.18359375 C6.54152344 108.12300781 5.78226563 108.06242187 5 108 C4.96261719 107.40832031 4.92523438 106.81664063 4.88671875 106.20703125 C4.50709194 101.05711461 4.50709194 101.05711461 2.375 96.4375 C0.23579449 92.64527206 1.049639 90.20874156 2 86 C3.77129651 83.47042271 4.88252534 83.02940798 7.91796875 82.26953125 C8.99691406 82.11871094 10.07585938 81.96789062 11.1875 81.8125 C12.27417969 81.65394531 13.36085938 81.49539062 14.48046875 81.33203125 C15.72763672 81.16767578 15.72763672 81.16767578 17 81 C16.20425189 77.79388704 16.20425189 77.79388704 13.375 75.625 C12.59125 74.75875 11.8075 73.8925 11 73 C11.1875 70.1875 11.1875 70.1875 12 68 C13.98 67.505 13.98 67.505 16 67 C12.71943367 63.71943367 8.33672425 62.31110268 4 61 C3.8453125 61.9590625 3.8453125 61.9590625 3.6875 62.9375 C3.460625 63.618125 3.23375 64.29875 3 65 C1.515 65.495 1.515 65.495 0 66 C-1.83832664 62.89782379 -2.47446226 60.60591321 -2 57 C1 55 1 55 3.1875 55.375 C3.785625 55.58125 4.38375 55.7875 5 56 C5 57.32 5 58.64 5 60 C5.886875 60.103125 6.77375 60.20625 7.6875 60.3125 C11.0934675 61.01939891 13.09073815 62.16257147 16 64 C19.1272592 65.01333935 21.9756534 65.10558351 25.25 65.0625 C26.14203125 65.05347656 27.0340625 65.04445313 27.953125 65.03515625 C28.62859375 65.02355469 29.3040625 65.01195313 30 65 C28.61962151 51.19621513 21.41672049 40.34622514 13.92822266 29.07177734 C10.8598428 24.4312405 8.18012185 19.77597033 5.90234375 14.6875 C5.1095301 12.81398782 5.1095301 12.81398782 3 12 C2.1484375 10.29296875 2.1484375 10.29296875 1.375 8.1875 C1.11460938 7.50042969 0.85421875 6.81335938 0.5859375 6.10546875 C0 4 0 4 0 0 Z " fill="#F8F8F8" transform="translate(21,0)"/>
<path d="M0 0 C1.46800242 1.87125 2.57038699 3.81624008 3.7109375 5.90234375 C5.63402418 9.03173025 8.1184284 10.74485701 11 13 C14 16.5 14 16.5 14 19 C16.97 19 19.94 19 23 19 C23 19.66 23 20.32 23 21 C23.66 21.33 24.32 21.66 25 22 C21.53837517 23.29810931 18.47942485 24.08204631 14.8125 24.3125 C10.96396763 24.62427232 10.96396763 24.62427232 8.9375 27.125 C7.7318881 30.82220982 8.09570991 33.2437181 9 37 C9.66 37.99 10.32 38.98 11 40 C11.1953125 42.26171875 11.1953125 42.26171875 11.125 44.6875 C11.10695313 45.49574219 11.08890625 46.30398437 11.0703125 47.13671875 C11.04710938 47.75160156 11.02390625 48.36648437 11 49 C11.75925781 48.97679687 12.51851562 48.95359375 13.30078125 48.9296875 C14.29464844 48.91164062 15.28851562 48.89359375 16.3125 48.875 C17.29863281 48.85179687 18.28476562 48.82859375 19.30078125 48.8046875 C22 49 22 49 25 51 C24.88590318 53.10478604 24.75834639 55.20884577 24.625 57.3125 C24.52058594 59.07013672 24.52058594 59.07013672 24.4140625 60.86328125 C24 64 24 64 22 67 C19.8359375 67.29296875 19.8359375 67.29296875 17.375 67.1875 C16.55773437 67.16042969 15.74046875 67.13335937 14.8984375 67.10546875 C14.27195312 67.07066406 13.64546875 67.03585938 13 67 C13 68.32 13 69.64 13 71 C12.34 71 11.68 71 11 71 C11 70.34 11 69.68 11 69 C6.26602747 68.40825343 3.59059574 68.84332366 -0.4375 71.5 C-2.58036696 73.25400693 -3.8028702 74.28004767 -4.5390625 76.96875 C-4.56315881 79.05709711 -4.3629458 80.94466648 -4 83 C-3.835 84.155 -3.67 85.31 -3.5 86.5 C-3.335 87.325 -3.17 88.15 -3 89 C-1.02 88.01 -1.02 88.01 1 87 C0.34 86.34 -0.32 85.68 -1 85 C1.33294775 84.95758277 3.66702567 84.95907063 6 85 C7 86 7 86 7 91 C-0.26 91 -7.52 91 -15 91 C-15 61.63 -15 32.26 -15 2 C-2.96629213 -0.6741573 -2.96629213 -0.6741573 0 0 Z " fill="#FCFCFC" transform="translate(15,59)"/>
<path d="M0 0 C0.99 0 1.98 0 3 0 C3.40992188 1.10859375 3.81984375 2.2171875 4.2421875 3.359375 C4.78634101 4.82296029 5.33061835 6.28649955 5.875 7.75 C6.14441406 8.47960938 6.41382813 9.20921875 6.69140625 9.9609375 C6.95566406 10.66992188 7.21992188 11.37890625 7.4921875 12.109375 C7.73308105 12.75874023 7.97397461 13.40810547 8.22216797 14.07714844 C9.03990635 16.09865109 10.02479038 18.04958075 11 20 C22.88 19.67 34.76 19.34 47 19 C45.87301587 28.01587302 45.87301587 28.01587302 45.31640625 31.18359375 C45.19442871 31.87960693 45.07245117 32.57562012 44.94677734 33.29272461 C44.81996582 34.00050049 44.6931543 34.70827637 44.5625 35.4375 C44.43053223 36.17814697 44.29856445 36.91879395 44.16259766 37.68188477 C41.62846783 51.74306434 41.62846783 51.74306434 40 55 C39.01 54.505 39.01 54.505 38 54 C38.31066406 53.16984375 38.62132812 52.3396875 38.94140625 51.484375 C40.26859533 47.11591501 40.69873051 42.79352341 41.12304688 38.2734375 C41.73360447 32.61890408 43.23895427 27.39915086 45 22 C41.06731133 21.97526132 37.13465287 21.95712165 33.2019043 21.94506836 C31.20685232 21.93757271 29.21182214 21.92486655 27.21679688 21.91210938 C25.96318359 21.90888672 24.70957031 21.90566406 23.41796875 21.90234375 C22.26063232 21.89710693 21.1032959 21.89187012 19.91088867 21.88647461 C16.93395589 21.86700539 16.93395589 21.86700539 14 23 C15.36963089 25.81276188 16.85694271 28.50982255 18.4609375 31.1953125 C18.93273437 31.99453125 19.40453125 32.79375 19.890625 33.6171875 C20.86791158 35.26828746 21.8495757 36.91680545 22.8359375 38.5625 C25.73764613 43.4985587 28.11586434 48.40592775 30.12744141 53.76904297 C30.97011974 55.92360219 31.93574204 57.9473855 33 60 C34.49206416 62.98412832 33.77787172 65.62077547 33.5625 68.9375 C33.27203005 77.79326635 36.23925229 84.63291639 39.95703125 92.52734375 C48.41295351 110.57111442 45.31485956 129.70947427 38.76953125 147.97265625 C38.51558594 148.64167969 38.26164062 149.31070313 38 150 C37.34 150 36.68 150 36 150 C36.9765625 145.60546875 37.953125 141.2109375 38.9296875 136.81640625 C39.1927771 135.61890747 39.1927771 135.61890747 39.46118164 134.3972168 C39.81461251 132.82479374 40.1831129 131.25566611 40.56811523 129.69067383 C44.37619045 113.89730858 41.56632547 100.63265094 34.42553711 86.35107422 C32.56443143 82.56439154 31.47596832 79.19366685 31 75 C30.01 75 29.02 75 28 75 C29.00193437 78.79303725 29.81024227 81.71536341 32 85 C32.94249929 88.36943495 33.31864851 91.51079881 33 95 C31.399786 97.77903831 29.28215402 99.77504282 27 102 C25.94895617 103.63495707 24.94011682 105.29883624 24 107 C23.25169922 108.11955078 23.25169922 108.11955078 22.48828125 109.26171875 C20.82958284 112.31354969 20.34355441 114.75853361 19.875 118.1875 C19.0806175 123.83876501 19.0806175 123.83876501 18 126 C17.34 125.67 16.68 125.34 16 125 C16.13277344 124.41992188 16.26554687 123.83984375 16.40234375 123.2421875 C17.39704001 118.84229018 18.31368332 114.46105842 19 110 C15.99221479 108.99740493 13.46179353 108.69685358 10.3125 108.4375 C8.82169922 108.31181641 8.82169922 108.31181641 7.30078125 108.18359375 C6.54152344 108.12300781 5.78226563 108.06242187 5 108 C4.96261719 107.40832031 4.92523437 106.81664063 4.88671875 106.20703125 C4.50709194 101.05711461 4.50709194 101.05711461 2.375 96.4375 C0.23579449 92.64527206 1.049639 90.20874156 2 86 C3.77129651 83.47042271 4.88252534 83.02940798 7.91796875 82.26953125 C8.99691406 82.11871094 10.07585938 81.96789062 11.1875 81.8125 C12.27417969 81.65394531 13.36085938 81.49539062 14.48046875 81.33203125 C15.72763672 81.16767578 15.72763672 81.16767578 17 81 C16.20425189 77.79388704 16.20425189 77.79388704 13.375 75.625 C12.59125 74.75875 11.8075 73.8925 11 73 C11.1875 70.1875 11.1875 70.1875 12 68 C13.98 67.505 13.98 67.505 16 67 C12.71943367 63.71943367 8.33672425 62.31110268 4 61 C3.896875 61.639375 3.79375 62.27875 3.6875 62.9375 C3.460625 63.618125 3.23375 64.29875 3 65 C1.515 65.495 1.515 65.495 0 66 C-1.83832664 62.89782379 -2.47446226 60.60591321 -2 57 C1 55 1 55 3.1875 55.375 C3.785625 55.58125 4.38375 55.7875 5 56 C5 57.32 5 58.64 5 60 C5.886875 60.103125 6.77375 60.20625 7.6875 60.3125 C11.0934675 61.01939891 13.09073815 62.16257147 16 64 C19.1272592 65.01333935 21.9756534 65.10558351 25.25 65.0625 C26.14203125 65.05347656 27.0340625 65.04445313 27.953125 65.03515625 C28.62859375 65.02355469 29.3040625 65.01195313 30 65 C28.61962151 51.19621513 21.41672049 40.34622514 13.92822266 29.07177734 C10.8598428 24.4312405 8.18012185 19.77597033 5.90234375 14.6875 C5.1095301 12.81398782 5.1095301 12.81398782 3 12 C2.1484375 10.29296875 2.1484375 10.29296875 1.375 8.1875 C1.11460938 7.50042969 0.85421875 6.81335938 0.5859375 6.10546875 C0 4 0 4 0 0 Z " fill="#0E0E0E" transform="translate(21,0)"/>
<path d="M0 0 C3.87264155 0.88517521 5.51036187 2.37471911 7.5625 5.625 C9.49617293 8.94756494 11.13966164 12.36828313 12.76953125 15.84643555 C14.12467939 18.21821367 15.74492921 19.9117632 17.60546875 21.90625 C22.24549432 27.78220965 21.7972998 33.36150051 21.4375 40.5625 C21.293125 44.666875 21.14875 48.77125 21 53 C12.75 53 4.5 53 -4 53 C-3.071875 49.16375 -3.071875 49.16375 -2.125 45.25 C1.4266499 30.16769046 4.28837548 15.27733764 0 0 Z " fill="#F3F3F3" transform="translate(63,97)"/>
<path d="M0 0 C0.99 0 1.98 0 3 0 C3.40992188 1.10859375 3.81984375 2.2171875 4.2421875 3.359375 C4.78634101 4.82296029 5.33061835 6.28649955 5.875 7.75 C6.14441406 8.47960938 6.41382813 9.20921875 6.69140625 9.9609375 C6.95566406 10.66992188 7.21992188 11.37890625 7.4921875 12.109375 C7.73308105 12.75874023 7.97397461 13.40810547 8.22216797 14.07714844 C9.03990635 16.09865109 10.02479038 18.04958075 11 20 C22.88 19.67 34.76 19.34 47 19 C45.87301587 28.01587302 45.87301587 28.01587302 45.31640625 31.18359375 C45.19442871 31.87960693 45.07245117 32.57562012 44.94677734 33.29272461 C44.81996582 34.00050049 44.6931543 34.70827637 44.5625 35.4375 C44.43053223 36.17814697 44.29856445 36.91879395 44.16259766 37.68188477 C41.62846783 51.74306434 41.62846783 51.74306434 40 55 C39.01 54.505 39.01 54.505 38 54 C38.31066406 53.16984375 38.62132812 52.3396875 38.94140625 51.484375 C40.26859533 47.11591501 40.69873051 42.79352341 41.12304688 38.2734375 C41.73360447 32.61890408 43.23895427 27.39915086 45 22 C41.06731133 21.97526132 37.13465287 21.95712165 33.2019043 21.94506836 C31.20685232 21.93757271 29.21182214 21.92486655 27.21679688 21.91210938 C25.96318359 21.90888672 24.70957031 21.90566406 23.41796875 21.90234375 C22.26063232 21.89710693 21.1032959 21.89187012 19.91088867 21.88647461 C16.93395589 21.86700539 16.93395589 21.86700539 14 23 C15.36963089 25.81276188 16.85694271 28.50982255 18.4609375 31.1953125 C18.93273437 31.99453125 19.40453125 32.79375 19.890625 33.6171875 C20.86791158 35.26828746 21.8495757 36.91680545 22.8359375 38.5625 C25.73764613 43.4985587 28.11586434 48.40592775 30.12744141 53.76904297 C30.97011974 55.92360219 31.93574204 57.9473855 33 60 C34.49206416 62.98412832 33.77787172 65.62077547 33.5625 68.9375 C33.27203005 77.79326635 36.23925229 84.63291639 39.95703125 92.52734375 C48.41295351 110.57111442 45.31485956 129.70947427 38.76953125 147.97265625 C38.51558594 148.64167969 38.26164062 149.31070313 38 150 C37.34 150 36.68 150 36 150 C36.9765625 145.60546875 37.953125 141.2109375 38.9296875 136.81640625 C39.1927771 135.61890747 39.1927771 135.61890747 39.46118164 134.3972168 C39.81461251 132.82479374 40.1831129 131.25566611 40.56811523 129.69067383 C44.37619045 113.89730858 41.56632547 100.63265094 34.42553711 86.35107422 C32.56443143 82.56439154 31.47596832 79.19366685 31 75 C30.01 75 29.02 75 28 75 C28 76.65 28 78.3 28 80 C27.34 79.34 26.68 78.68 26 78 C25.01 78 24.02 78 23 78 C22.67 78.99 22.34 79.98 22 81 C19.18662821 80.91725377 17.44840452 80.38155522 15.296875 78.55078125 C13.64134119 76.76760114 12.23625782 75.09722308 11 73 C11.125 70.0625 11.125 70.0625 12 68 C13.98 67.505 13.98 67.505 16 67 C12.71943367 63.71943367 8.33672425 62.31110268 4 61 C3.896875 61.639375 3.79375 62.27875 3.6875 62.9375 C3.460625 63.618125 3.23375 64.29875 3 65 C1.515 65.495 1.515 65.495 0 66 C-1.83832664 62.89782379 -2.47446226 60.60591321 -2 57 C1 55 1 55 3.1875 55.375 C3.785625 55.58125 4.38375 55.7875 5 56 C5 57.32 5 58.64 5 60 C5.886875 60.103125 6.77375 60.20625 7.6875 60.3125 C11.0934675 61.01939891 13.09073815 62.16257147 16 64 C19.1272592 65.01333935 21.9756534 65.10558351 25.25 65.0625 C26.14203125 65.05347656 27.0340625 65.04445313 27.953125 65.03515625 C28.62859375 65.02355469 29.3040625 65.01195313 30 65 C28.61962151 51.19621513 21.41672049 40.34622514 13.92822266 29.07177734 C10.8598428 24.4312405 8.18012185 19.77597033 5.90234375 14.6875 C5.1095301 12.81398782 5.1095301 12.81398782 3 12 C2.1484375 10.29296875 2.1484375 10.29296875 1.375 8.1875 C1.11460938 7.50042969 0.85421875 6.81335938 0.5859375 6.10546875 C0 4 0 4 0 0 Z " fill="#575757" transform="translate(21,0)"/>
<path d="M0 0 C0 0.66 0 1.32 0 2 C0.86625 2.2165625 0.86625 2.2165625 1.75 2.4375 C2.4925 2.623125 3.235 2.80875 4 3 C4.680625 3.165 5.36125 3.33 6.0625 3.5 C7.7280404 3.92981688 9.36816342 4.45605447 11 5 C11.43285079 8.02995551 11.61576835 10.14965323 9.76953125 12.69921875 C7.21236272 15.30689925 5.51892326 16.82702558 2 18 C2.33 18.99 2.66 19.98 3 21 C0.69 21.33 -1.62 21.66 -4 22 C-4.33 20.35 -4.66 18.7 -5 17 C-6.65 17 -8.3 17 -10 17 C-9.67 17.66 -9.34 18.32 -9 19 C-10.65 19.33 -12.3 19.66 -14 20 C-15.80142873 15.49642818 -17.50007338 10.77462379 -16 6 C-11.36176661 0.47927087 -7.00098332 -2.23435638 0 0 Z " fill="#0A0A0A" transform="translate(26,128)"/>
<path d="M0 0 C1.98 1.65 3.96 3.3 6 5 C6 5.66 6 6.32 6 7 C8.00858778 8.00654063 10.01874394 9.00921007 12.03515625 10 C13.03869141 10.495 13.03869141 10.495 14.0625 11 C14.73410156 11.33 15.40570313 11.66 16.09765625 12 C18 13 18 13 21 15 C20.34 15 19.68 15 19 15 C19.66 17.97 20.32 20.94 21 24 C24.24849977 22.27773504 24.24849977 22.27773504 25 19 C30.76832116 20.2143834 35.00186731 21.87616707 40 25 C37.66682784 25.77772405 35.38564077 26.42415568 33 27 C33.52268466 29.76276177 34.10869587 32.3260876 35 35 C35.99 35.495 35.99 35.495 37 36 C31.94056934 36.69785251 31.94056934 36.69785251 29 36 C27.12829351 34.18568073 25.85399704 32.27984786 24.4453125 30.08984375 C23.02765387 28.03998601 21.74007861 26.84112072 19.75 25.375 C16.67110918 22.71595793 15.90865854 20.90723172 15 17 C14.25234375 17.144375 13.5046875 17.28875 12.734375 17.4375 C11.74953125 17.623125 10.7646875 17.80875 9.75 18 C8.77546875 18.185625 7.8009375 18.37125 6.796875 18.5625 C4 19 4 19 0 19 C0 12.73 0 6.46 0 0 Z " fill="#E2E2E2" transform="translate(0,42)"/>
<path d="M0 0 C0.598125 0.20625 1.19625 0.4125 1.8125 0.625 C1.8125 1.945 1.8125 3.265 1.8125 4.625 C2.699375 4.728125 3.58625 4.83125 4.5 4.9375 C7.9059675 5.64439891 9.90323815 6.78757147 12.8125 8.625 C15.9397592 9.63833935 18.7881534 9.73058351 22.0625 9.6875 C22.95453125 9.67847656 23.8465625 9.66945313 24.765625 9.66015625 C25.44109375 9.64855469 26.1165625 9.63695313 26.8125 9.625 C27.1425 8.635 27.4725 7.645 27.8125 6.625 C27.8125 10.255 27.8125 13.885 27.8125 17.625 C26.4925 17.955 25.1725 18.285 23.8125 18.625 C23.4825 19.945 23.1525 21.265 22.8125 22.625 C21.8225 22.625 20.8325 22.625 19.8125 22.625 C19.4825 23.615 19.1525 24.605 18.8125 25.625 C15.99912821 25.54225377 14.26090452 25.00655522 12.109375 23.17578125 C10.45384119 21.39260114 9.04875782 19.72222308 7.8125 17.625 C7.9375 14.6875 7.9375 14.6875 8.8125 12.625 C10.1325 12.295 11.4525 11.965 12.8125 11.625 C9.53193367 8.34443367 5.14922425 6.93610268 0.8125 5.625 C0.709375 6.264375 0.60625 6.90375 0.5 7.5625 C0.273125 8.243125 0.04625 8.92375 -0.1875 9.625 C-1.1775 9.955 -2.1675 10.285 -3.1875 10.625 C-5.02582664 7.52282379 -5.66196226 5.23091321 -5.1875 1.625 C-2.1875 -0.375 -2.1875 -0.375 0 0 Z " fill="#F3F3F2" transform="translate(24.1875,55.375)"/>
<path d="M0 0 C5.76832116 1.2143834 10.00186731 2.87616707 15 6 C12.66682784 6.77772405 10.38564077 7.42415568 8 8 C8.52268466 10.76276177 9.10869587 13.3260876 10 16 C10.66 16.33 11.32 16.66 12 17 C6.90861448 17.70226007 6.90861448 17.70226007 4 17 C2.0750898 15.13057502 0.74490411 13.21678078 -0.67578125 10.9453125 C-2.01181442 8.7208043 -2.01181442 8.7208043 -5 7 C-4.67 6.01 -4.34 5.02 -4 4 C-3.01 3.67 -2.02 3.34 -1 3 C-0.67 2.01 -0.34 1.02 0 0 Z " fill="#E6E6E6" transform="translate(25,61)"/>
<path d="M0 0 C5.651886 4.70714259 7.60532326 13.60722839 8.42578125 20.66015625 C8.70727832 34.51277505 5.90168703 48.08641844 1 61 C0.34 61 -0.32 61 -1 61 C-0.0234375 56.60546875 0.953125 52.2109375 1.9296875 47.81640625 C2.10508057 47.01807373 2.28047363 46.21974121 2.46118164 45.3972168 C2.81461251 43.82479374 3.1831129 42.25566611 3.56811523 40.69067383 C4.7980088 35.58989267 5.3525893 30.80751655 5.3125 25.5625 C5.30976074 24.82749268 5.30702148 24.09248535 5.30419922 23.33520508 C5.17758303 16.7242392 4.02212356 10.80761565 0.8984375 4.92578125 C0 3 0 3 0 0 Z " fill="#262626" transform="translate(58,89)"/>
<path d="M0 0 C1.67012983 0.06378968 3.33780985 0.20028115 5 0.375 C5.9075 0.46523437 6.815 0.55546875 7.75 0.6484375 C10 1 10 1 11 2 C11.375 4.25 11.375 4.25 11 7 C8.5 9.8125 8.5 9.8125 6 12 C2.15837998 10.75406918 -0.1145859 9.66608297 -2 6 C-1.58974359 1.58974359 -1.58974359 1.58974359 0 0 Z " fill="#0E0E0E" transform="translate(34,67)"/>
<path d="M0 0 C0.598125 0.20625 1.19625 0.4125 1.8125 0.625 C1.46016839 6.0861399 1.46016839 6.0861399 0.8125 8.625 C-1.25 10.125 -1.25 10.125 -3.1875 10.625 C-5.02582664 7.52282379 -5.66196226 5.23091321 -5.1875 1.625 C-2.1875 -0.375 -2.1875 -0.375 0 0 Z " fill="#111111" transform="translate(24.1875,55.375)"/>
<path d="M0 0 C4.27667196 1.36737131 8.39863498 2.70478445 12.4375 4.6875 C17.06059031 6.3907438 21.13073432 6.26452751 26 6 C26.33 5.01 26.66 4.02 27 3 C27 4.32 27 5.64 27 7 C21.39347181 10.22077151 21.39347181 10.22077151 17.70703125 9.63671875 C13.44877523 8.24583111 9.80278701 6.36389463 6 4 C4.01548229 3.28856912 2.01797888 2.61008664 0 2 C0 1.34 0 0.68 0 0 Z " fill="#929292" transform="translate(25,59)"/>
<path d="M0 0 C2.33294775 -0.04241723 4.66702567 -0.04092937 7 0 C8 1 8 1 8.0625 3.5625 C8.041875 4.366875 8.02125 5.17125 8 6 C1.9453125 6.1953125 1.9453125 6.1953125 0 6 C-0.66 5.34 -1.32 4.68 -2 4 C-0.68 3.34 0.64 2.68 2 2 C1.34 1.34 0.68 0.68 0 0 Z " fill="#E3E3E3" transform="translate(14,144)"/>
<path d="M0 0 C3.3 0.99 6.6 1.98 10 3 C9.01 3.495 9.01 3.495 8 4 C8.16757812 4.55429687 8.33515625 5.10859375 8.5078125 5.6796875 C8.71148437 6.40414062 8.91515625 7.12859375 9.125 7.875 C9.33382813 8.59429687 9.54265625 9.31359375 9.7578125 10.0546875 C9.83773438 10.69664063 9.91765625 11.33859375 10 12 C9.34 12.66 8.68 13.32 8 14 C6.68 12.02 5.36 10.04 4 8 C4.33 7.34 4.66 6.68 5 6 C5.66 6.33 6.32 6.66 7 7 C7 6.01 7 5.02 7 4 C6.030625 3.71125 5.06125 3.4225 4.0625 3.125 C1 2 1 2 0 0 Z " fill="#A4A4A4" transform="translate(11,53)"/>
<path d="M0 0 C0.66 0.66 1.32 1.32 2 2 C1.65428657 7.64665273 -0.09060254 12.70412403 -2 18 C-2.66 18 -3.32 18 -4 18 C-2.68 12.06 -1.36 6.12 0 0 Z " fill="#333333" transform="translate(61,132)"/>
<path d="M0 0 C0.99 0 1.98 0 3 0 C5.21538462 7.38461538 5.21538462 7.38461538 4.125 10.5 C3.75375 10.995 3.3825 11.49 3 12 C2.49166409 10.75336669 1.99368855 9.50250613 1.5 8.25 C1.2215625 7.55390625 0.943125 6.8578125 0.65625 6.140625 C0 4 0 4 0 0 Z " fill="#4F4F4F" transform="translate(21,0)"/>
<path d="M0 0 C3.33557632 2.9905167 5.15083921 5.93184627 7 10 C6.01 10.495 6.01 10.495 5 11 C4.15841464 9.73461631 3.32700252 8.46246221 2.5 7.1875 C1.80390625 6.12595703 1.80390625 6.12595703 1.09375 5.04296875 C0 3 0 3 0 0 Z " fill="#2F2F2F" transform="translate(36,28)"/>
<path d="M0 0 C-0.99 0.33 -1.98 0.66 -3 1 C-3.33 1.99 -3.66 2.98 -4 4 C-5.65 3.67 -7.3 3.34 -9 3 C-6.38997624 -0.48003168 -4.1689578 -0.27793052 0 0 Z " fill="#D0D0D0" transform="translate(47,77)"/>
<path d="M0 0 C2 1 2 1 2.8515625 3.06640625 C3.10679688 3.89011719 3.36203125 4.71382812 3.625 5.5625 C3.88539062 6.38878906 4.14578125 7.21507812 4.4140625 8.06640625 C4.60742188 8.70449219 4.80078125 9.34257812 5 10 C4.34 10 3.68 10 3 10 C0.4606772 6.58168085 -0.3636198 4.24223102 0 0 Z " fill="#C7C7C7" transform="translate(25,12)"/>
<path d="M0 0 C0.66 0 1.32 0 2 0 C2 2.31 2 4.62 2 7 C1.01 7.495 1.01 7.495 0 8 C-0.38063221 5.6739143 -0.71269945 3.33944736 -1 1 C-0.67 0.67 -0.34 0.34 0 0 Z " fill="#CCCCCC" transform="translate(50,66)"/>
<path d="M0 0 C2.91488977 2.6234008 4.88503898 5.71816394 7 9 C6.01 9 5.02 9 4 9 C0 2.25 0 2.25 0 0 Z " fill="#242424" transform="translate(30,19)"/>
</svg>
