<?xml version="1.0" encoding="UTF-8"?>
<svg version="1.1" xmlns="http://www.w3.org/2000/svg" width="84" height="150">
<path d="M0 0 C1.32 0 2.64 0 4 0 C6.64 6.27 9.28 12.54 12 19 C15.031875 19.020625 18.06375 19.04125 21.1875 19.0625 C22.13391357 19.071604 23.08032715 19.08070801 24.05541992 19.09008789 C28.16682812 19.10361657 31.99201172 19.05386027 36 18 C36 17.67 36 17.34 36 17 C39.63 17 43.26 17 47 17 C47.45375 15.88625 47.9075 14.7725 48.375 13.625 C50 10 50 10 52 8 C54.8203125 7.5859375 54.8203125 7.5859375 58.125 7.375 C59.22070312 7.30023437 60.31640625 7.22546875 61.4453125 7.1484375 C62.28835937 7.09945313 63.13140625 7.05046875 64 7 C64 8.65 64 10.3 64 12 C60.04 12 56.08 12 52 12 C48.64939164 22.19278918 45.79386688 32.00622565 44.5625 42.6875 C43.72912777 49.69104494 42.48441076 54.06223115 37.5234375 59.34765625 C35.20956426 61.85731876 35 63.61475149 35 67 C34.979375 67.81597656 34.95875 68.63195312 34.9375 69.47265625 C35.07933472 76.059106 36.67847914 81.60578851 39.1875 87.625 C39.46658203 88.32415527 39.74566406 89.02331055 40.03320312 89.74365234 C40.98721219 92.01166961 40.98721219 92.01166961 43 95 C44.98846958 95.70030934 46.98863125 96.36846205 49 97 C50.79296875 99.828125 50.79296875 99.828125 52.1875 103.25 C52.65542969 104.36890625 53.12335938 105.4878125 53.60546875 106.640625 C54.06566406 107.74921875 54.52585937 108.8578125 55 110 C56.71467426 113.71512756 58.33244044 116.63694514 61.1875 119.5625 C63.34526798 121.96001997 63.95416409 122.64095201 64.375 125.9375 C64.25125 126.618125 64.1275 127.29875 64 128 C62.66014102 126.33857487 61.32917292 124.66998649 60 123 C59.46761719 122.37996094 58.93523437 121.75992188 58.38671875 121.12109375 C53.87436752 115.68826289 51.00743369 110.12444577 48.26171875 103.625 C47.27271931 100.88119173 47.27271931 100.88119173 45 100 C45.33 101.258125 45.66 102.51625 46 103.8125 C48.07443174 113.40861228 46.78365544 122.04253618 44.734375 131.515625 C43.92714423 135.34567739 43.39696549 139.10973815 43 143 C43.99 143.66 44.98 144.32 46 145 C46 146.66666667 46 148.33333333 46 150 C41.38 150 36.76 150 32 150 C32 149.01 32 148.02 32 147 C33.65 146.67 35.3 146.34 37 146 C37.81848252 142.81400604 38.62868699 139.6259612 39.4375 136.4375 C39.66759766 135.54224609 39.89769531 134.64699219 40.13476562 133.72460938 C44.69197691 115.69390387 43.00528629 102.43683323 34 86 C34.19078125 86.89332031 34.3815625 87.78664063 34.578125 88.70703125 C34.99729072 91.97885254 34.83704068 93.63419456 33.75 96.6875 C33.37101562 97.80705078 33.37101562 97.80705078 32.984375 98.94921875 C31.44573547 102.15471777 29.0874424 103.92322131 26.4375 106.25 C23.11801217 109.99506319 22.52853317 113.50109518 21.51171875 118.30859375 C21.34285156 119.09363281 21.17398438 119.87867187 21 120.6875 C20.855625 121.41324219 20.71125 122.13898438 20.5625 122.88671875 C19.4873872 126.92585779 18.5426847 128.6382102 15 131 C15.66 131.33 16.32 131.66 17 132 C17.8125 135.3125 17.8125 135.3125 18 139 C16.75 141.0625 16.75 141.0625 15 143 C14.319375 144.5778125 14.319375 144.5778125 13.625 146.1875 C12 149 12 149 9.625 149.875 C8.75875 149.91625 7.8925 149.9575 7 150 C6.154375 150.061875 5.30875 150.12375 4.4375 150.1875 C2 150 2 150 0.0625 148.9375 C-2.85198018 147.61273628 -4.94912242 148.30661873 -8 149 C-10.67429003 143.65141993 -11.57995854 139.99290494 -11 134 C-9.6875 131.0625 -9.6875 131.0625 -8 129 C-7.01 128.67 -6.02 128.34 -5 128 C-4.505 127.01 -4.505 127.01 -4 126 C-1.78515625 125.5859375 -1.78515625 125.5859375 0.9375 125.375 C2.28134766 125.26285156 2.28134766 125.26285156 3.65234375 125.1484375 C5.09951706 125.05693569 6.54993684 125 8 125 C8 124.67 8 124.34 8 124 C10.97 124 13.94 124 17 124 C17.66 120.37 18.32 116.74 19 113 C17.5975 112.360625 16.195 111.72125 14.75 111.0625 C13.96109375 110.70285156 13.1721875 110.34320313 12.359375 109.97265625 C10.24176302 109.09966721 8.23330638 108.48661492 6 108 C5.89042969 107.32453125 5.78085937 106.6490625 5.66796875 105.953125 C5.50941406 105.06109375 5.35085937 104.1690625 5.1875 103.25 C5.03667969 102.36828125 4.88585937 101.4865625 4.73046875 100.578125 C4.14802217 97.93351562 4.14802217 97.93351562 2.4140625 95.88671875 C1 94 1 94 1.1875 90.5625 C2.56934307 84.50364964 2.56934307 84.50364964 4 82 C6.625 80.6875 6.625 80.6875 9 80 C7.3407049 76.40486061 5.42322378 73.13593666 3 70 C1.68 70 0.36 70 -1 70 C-1.268125 69.2575 -1.53625 68.515 -1.8125 67.75 C-3.02382034 64.94483711 -3.82153342 63.1421588 -6 61 C-9.42764055 60.51482597 -9.42764055 60.51482597 -13.1875 60.75 C-15.09595703 60.80414063 -15.09595703 60.80414063 -17.04296875 60.859375 C-18.01878906 60.90578125 -18.99460937 60.9521875 -20 61 C-20 60.34 -20 59.68 -20 59 C-16.04 58.01 -12.08 57.02 -8 56 C-9.65 55.34 -11.3 54.68 -13 54 C-14 52.25 -14 52.25 -15 50 C-15.86625 49.030625 -16.7325 48.06125 -17.625 47.0625 C-20 44 -20 44 -20.3125 41.125 C-20.209375 40.42375 -20.10625 39.7225 -20 39 C-18 41 -18 41 -16.6875 43.375 C-13.68068908 48.05226143 -10.06174738 50.03154269 -5 52 C-4.67 52.66 -4.34 53.32 -4 54 C-1.47266765 54.65555119 -1.47266765 54.65555119 1 55 C1 54.34 1 53.68 1 53 C3.375 52.8125 3.375 52.8125 6 53 C6.66 53.99 7.32 54.98 8 56 C11.83575607 59.34399247 15.08070146 60.80402053 19.9375 62.0625 C20.60652344 62.23910156 21.27554688 62.41570313 21.96484375 62.59765625 C24.30825085 63.12929535 24.30825085 63.12929535 28 63 C30.23711342 53.35775799 24.22393369 45.07698359 19.4375 37 C19.06189941 36.36521729 18.68629883 35.73043457 18.29931641 35.07641602 C16.1985412 31.63748837 14.19480192 28.49096625 11 26 C1.25975583 23.94174541 -10.32853725 27.3004124 -20 29 C-19.505 27.515 -19.505 27.515 -19 26 C-12.07 24.68 -5.14 23.36 2 22 C1.34 21.67 0.68 21.34 0 21 C1.875 16.125 1.875 16.125 3 15 C2.47494539 9.85446483 1.3124336 4.98724768 0 0 Z M4 15 C5 18 5 18 5 18 Z M7 17 C8 19 8 19 8 19 Z M8 19 C8 19.99 8 20.98 8 22 C8.66 21.67 9.32 21.34 10 21 C9.34 20.34 8.68 19.68 8 19 Z M5 20 C6 22 6 22 6 22 Z M45 21 C46 24 46 24 46 24 Z M35.45703125 21.21875 C33.84731445 21.28642578 33.84731445 21.28642578 32.20507812 21.35546875 C30.52575195 21.42701172 30.52575195 21.42701172 28.8125 21.5 C27.11577148 21.57154297 27.11577148 21.57154297 25.38476562 21.64453125 C22.58981962 21.76246146 19.79489952 21.88097381 17 22 C16.00549245 25.62679265 16.00549245 25.62679265 17.00390625 29.10546875 C17.51824219 29.79253906 18.03257813 30.47960938 18.5625 31.1875 C20.92086511 34.48041539 23.15621587 37.78103914 25.25 41.25 C25.72953125 42.03890625 26.2090625 42.8278125 26.703125 43.640625 C28.0202385 46.03681944 29.03873918 48.44268349 30 51 C30.99 51 31.98 51 33 51 C35.125 51.3125 35.125 51.3125 37 52 C37.33 52.99 37.66 53.98 38 55 C41.10974493 52.48332328 41.58405249 50.33607372 42.203125 46.44921875 C42.3784375 45.35802734 42.55375 44.26683594 42.734375 43.14257812 C42.90453125 42.00240234 43.0746875 40.86222656 43.25 39.6875 C43.435625 38.55892578 43.62125 37.43035156 43.8125 36.26757812 C44.65818801 30.82506324 45.12294159 26.44525505 44 21 C41.14345704 21 38.31082218 21.09795462 35.45703125 21.21875 Z M6 24 C10 25 10 25 10 25 Z M32 54 C33 57 33 57 33 57 Z M-3 57 C-3.33 57.66 -3.66 58.32 -4 59 C-3.01 60.485 -3.01 60.485 -2 62 C-2 60.35 -2 58.7 -2 57 C-2.33 57 -2.66 57 -3 57 Z M33 57 C33.33 58.32 33.66 59.64 34 61 C34.33 59.68 34.66 58.36 35 57 C34.34 57 33.68 57 33 57 Z M30 61 C31 64 31 64 31 64 Z M5 62 C4.67 64.31 4.34 66.62 4 69 C7.05580974 71.58777208 7.05580974 71.58777208 11 72 C11.66 70.35 12.32 68.7 13 67 C10.94766315 64.7522025 9.99332739 63.9977758 7 63 C6.34 62.67 5.68 62.34 5 62 Z M18 64 C18 64.33 18 64.66 18 65 C19.98 65 21.96 65 24 65 C24 64.67 24 64.34 24 64 C22.02 64 20.04 64 18 64 Z M14 65 C14 65.66 14 66.32 14 67 C14.99 66.67 15.98 66.34 17 66 C16.01 65.67 15.02 65.34 14 65 Z M30 66 C31 68 31 68 31 68 Z M27 68 C26.34 70.31 25.68 72.62 25 75 C25.66 75.66 26.32 76.32 27 77 C28.6483633 75.24755753 28.6483633 75.24755753 30 73 C29.93391003 70.81656815 29.93391003 70.81656815 29 69 C28.34 68.67 27.68 68.34 27 68 Z M31 68 C32 70 32 70 32 70 Z M8 72 C9 74 9 74 9 74 Z M11 72 C12 74 12 74 12 74 Z M31 75 C31 76.65 31 78.3 31 80 C31.33 80 31.66 80 32 80 C32 78.35 32 76.7 32 75 C31.67 75 31.34 75 31 75 Z M29 76 C30 80 30 80 30 80 Z M17 79 C17 79.66 17 80.32 17 81 C17.99 80.67 18.98 80.34 20 80 C19.01 79.67 18.02 79.34 17 79 Z M11 81 C11 81.33 11 81.66 11 82 C12.65 82 14.3 82 16 82 C16 81.67 16 81.34 16 81 C14.35 81 12.7 81 11 81 Z M6 82 C6 82.33 6 82.66 6 83 C7.65 83 9.3 83 11 83 C11 82.67 11 82.34 11 82 C9.35 82 7.7 82 6 82 Z M15 97 C15 97.66 15 98.32 15 99 C15.66 99 16.32 99 17 99 C17 98.34 17 97.68 17 97 C16.34 97 15.68 97 15 97 Z M7 128 C8 130 8 130 8 130 Z M9 128 C10.485 128.99 10.485 128.99 12 130 C13.32 129.34 14.64 128.68 16 128 C13.69 128 11.38 128 9 128 Z M41 143 C42 146 42 146 42 146 Z M9 145 C9.33 145.66 9.66 146.32 10 147 C10.33 146.34 10.66 145.68 11 145 C10.34 145 9.68 145 9 145 Z " fill="#000000" transform="translate(20,0)"/>
<path d="M0 0 C0.33 0 0.66 0 1 0 C1 4.29 1 8.58 1 13 C0.67 13 0.34 13 0 13 C0 8.71 0 4.42 0 0 Z " fill="#000000" transform="translate(68,108)"/>
<path d="M0 0 C4.29 0 8.58 0 13 0 C13 0.33 13 0.66 13 1 C8.71 1 4.42 1 0 1 C0 0.67 0 0.34 0 0 Z " fill="#000000" transform="translate(36,18)"/>
<path d="M0 0 C0.33 0 0.66 0 1 0 C1 3.96 1 7.92 1 12 C0.67 12 0.34 12 0 12 C0 8.04 0 4.08 0 0 Z " fill="#000000" transform="translate(56,66)"/>
<path d="M0 0 C0.99 0.495 0.99 0.495 2 1 C2.625 3.5625 2.625 3.5625 3 6 C2.01 6.495 2.01 6.495 1 7 C0.67 4.69 0.34 2.38 0 0 Z " fill="#000000" transform="translate(66,101)"/>
<path d="M0 0 C2.97 0 5.94 0 9 0 C9 0.33 9 0.66 9 1 C6.03 1 3.06 1 0 1 C0 0.67 0 0.34 0 0 Z " fill="#000000" transform="translate(73,6)"/>
<path d="M0 0 C0.33 0 0.66 0 1 0 C1 2.64 1 5.28 1 8 C0.67 8 0.34 8 0 8 C0 5.36 0 2.72 0 0 Z " fill="#000000" transform="translate(7,134)"/>
<path d="M0 0 C0.33 0 0.66 0 1 0 C1 2.31 1 4.62 1 7 C0.67 7 0.34 7 0 7 C0 4.69 0 2.38 0 0 Z " fill="#000000" transform="translate(61,118)"/>
<path d="M0 0 C0.33 0 0.66 0 1 0 C1 2.31 1 4.62 1 7 C0.67 7 0.34 7 0 7 C0 4.69 0 2.38 0 0 Z " fill="#000000" transform="translate(37,114)"/>
<path d="M0 0 C0.33 0 0.66 0 1 0 C1 2.31 1 4.62 1 7 C0.67 7 0.34 7 0 7 C0 4.69 0 2.38 0 0 Z " fill="#000000" transform="translate(62,111)"/>
<path d="M0 0 C0.99 0.495 0.99 0.495 2 1 C2 1.99 2 2.98 2 4 C1.34 4 0.68 4 0 4 C0 2.68 0 1.36 0 0 Z " fill="#000000" transform="translate(47,69)"/>
<path d="M0 0 C0.33 0 0.66 0 1 0 C1 2.31 1 4.62 1 7 C0.67 7 0.34 7 0 7 C0 4.69 0 2.38 0 0 Z " fill="#000000" transform="translate(59,45)"/>
<path d="M0 0 C0.33 0 0.66 0 1 0 C1 2.31 1 4.62 1 7 C0.67 7 0.34 7 0 7 C0 4.69 0 2.38 0 0 Z " fill="#000000" transform="translate(65,39)"/>
<path d="M0 0 C0.33 0 0.66 0 1 0 C1 1.98 1 3.96 1 6 C0.67 6 0.34 6 0 6 C0 4.02 0 2.04 0 0 Z " fill="#000000" transform="translate(67,121)"/>
<path d="M0 0 C0.33 0 0.66 0 1 0 C1 1.98 1 3.96 1 6 C0.67 6 0.34 6 0 6 C0 4.02 0 2.04 0 0 Z " fill="#000000" transform="translate(42,116)"/>
<path d="M0 0 C0.33 0 0.66 0 1 0 C1 1.98 1 3.96 1 6 C0.67 6 0.34 6 0 6 C0 4.02 0 2.04 0 0 Z " fill="#000000" transform="translate(43,110)"/>
<path d="M0 0 C0.33 0 0.66 0 1 0 C1 1.98 1 3.96 1 6 C0.67 6 0.34 6 0 6 C0 4.02 0 2.04 0 0 Z " fill="#000000" transform="translate(24,100)"/>
<path d="M0 0 C0.33 0 0.66 0 1 0 C1 1.98 1 3.96 1 6 C0.67 6 0.34 6 0 6 C0 4.02 0 2.04 0 0 Z " fill="#000000" transform="translate(60,38)"/>
<path d="M0 0 C0.33 0 0.66 0 1 0 C1 1.98 1 3.96 1 6 C0.67 6 0.34 6 0 6 C0 4.02 0 2.04 0 0 Z " fill="#000000" transform="translate(66,32)"/>
<path d="M0 0 C0.33 0 0.66 0 1 0 C1 1.98 1 3.96 1 6 C0.67 6 0.34 6 0 6 C0 4.02 0 2.04 0 0 Z " fill="#000000" transform="translate(61,31)"/>
<path d="M0 0 C1.98 0 3.96 0 6 0 C6 0.33 6 0.66 6 1 C4.02 1 2.04 1 0 1 C0 0.67 0 0.34 0 0 Z " fill="#000000" transform="translate(13,27)"/>
<path d="M0 0 C1.98 0 3.96 0 6 0 C6 0.33 6 0.66 6 1 C4.02 1 2.04 1 0 1 C0 0.67 0 0.34 0 0 Z " fill="#000000" transform="translate(19,26)"/>
<path d="M0 0 C1.98 0 3.96 0 6 0 C6 0.33 6 0.66 6 1 C4.02 1 2.04 1 0 1 C0 0.67 0 0.34 0 0 Z " fill="#000000" transform="translate(12,22)"/>
<path d="M0 0 C0.33 0 0.66 0 1 0 C1 1.65 1 3.3 1 5 C0.67 5 0.34 5 0 5 C0 3.35 0 1.7 0 0 Z " fill="#000000" transform="translate(38,132)"/>
<path d="M0 0 C0.33 0 0.66 0 1 0 C1 1.65 1 3.3 1 5 C0.67 5 0.34 5 0 5 C0 3.35 0 1.7 0 0 Z " fill="#000000" transform="translate(60,125)"/>
<path d="M0 0 C0.33 0 0.66 0 1 0 C1 1.65 1 3.3 1 5 C0.67 5 0.34 5 0 5 C0 3.35 0 1.7 0 0 Z " fill="#000000" transform="translate(61,105)"/>
<path d="M0 0 C0.33 0.66 0.66 1.32 1 2 C0.34 2.66 -0.32 3.32 -1 4 C-0.67 2.68 -0.34 1.36 0 0 Z " fill="#000000" transform="translate(56,92)"/>
<path d="M0 0 C0.33 0 0.66 0 1 0 C1 1.65 1 3.3 1 5 C0.67 5 0.34 5 0 5 C0 3.35 0 1.7 0 0 Z " fill="#000000" transform="translate(19,89)"/>
<path d="M0 0 C1.65 0 3.3 0 5 0 C5 0.33 5 0.66 5 1 C3.35 1 1.7 1 0 1 C0 0.67 0 0.34 0 0 Z " fill="#000000" transform="translate(0,62)"/>
<path d="M0 0 C1.65 0 3.3 0 5 0 C5 0.33 5 0.66 5 1 C3.35 1 1.7 1 0 1 C0 0.67 0 0.34 0 0 Z " fill="#000000" transform="translate(5,56)"/>
<path d="M0 0 C0.33 0 0.66 0 1 0 C1 1.65 1 3.3 1 5 C0.67 5 0.34 5 0 5 C0 3.35 0 1.7 0 0 Z " fill="#000000" transform="translate(64,47)"/>
<path d="M0 0 C1.65 0 3.3 0 5 0 C5 0.33 5 0.66 5 1 C3.35 1 1.7 1 0 1 C0 0.67 0 0.34 0 0 Z " fill="#000000" transform="translate(7,28)"/>
<path d="M0 0 C1.65 0 3.3 0 5 0 C5 0.33 5 0.66 5 1 C3.35 1 1.7 1 0 1 C0 0.67 0 0.34 0 0 Z " fill="#000000" transform="translate(1,24)"/>
<path d="M0 0 C1.65 0 3.3 0 5 0 C5 0.33 5 0.66 5 1 C3.35 1 1.7 1 0 1 C0 0.67 0 0.34 0 0 Z " fill="#000000" transform="translate(7,23)"/>
<path d="M0 0 C1 4 1 4 1 4 Z " fill="#000000" transform="translate(56,142)"/>
<path d="M0 0 C1 4 1 4 1 4 Z " fill="#000000" transform="translate(63,139)"/>
<path d="M0 0 C1 4 1 4 1 4 Z " fill="#000000" transform="translate(57,138)"/>
<path d="M0 0 C1 4 1 4 1 4 Z " fill="#000000" transform="translate(58,134)"/>
<path d="M0 0 C1 4 1 4 1 4 Z " fill="#000000" transform="translate(59,130)"/>
<path d="M0 0 C1 4 1 4 1 4 Z " fill="#000000" transform="translate(66,127)"/>
<path d="M0 0 C4 1 4 1 4 1 Z " fill="#000000" transform="translate(19,124)"/>
<path d="M0 0 C4 1 4 1 4 1 Z " fill="#000000" transform="translate(26,109)"/>
<path d="M0 0 C1 4 1 4 1 4 Z " fill="#000000" transform="translate(57,78)"/>
<path d="M0 0 C4 1 4 1 4 1 Z " fill="#000000" transform="translate(6,61)"/>
<path d="M0 0 C1 4 1 4 1 4 Z " fill="#000000" transform="translate(48,57)"/>
<path d="M0 0 C4 1 4 1 4 1 Z " fill="#000000" transform="translate(0,57)"/>
<path d="M0 0 C1 4 1 4 1 4 Z " fill="#000000" transform="translate(67,28)"/>
<path d="M0 0 C4 1 4 1 4 1 Z " fill="#000000" transform="translate(2,29)"/>
<path d="M0 0 C1 4 1 4 1 4 Z " fill="#000000" transform="translate(22,10)"/>
<path d="" fill="#000000" transform="translate(0,0)"/>
<path d="" fill="#000000" transform="translate(0,0)"/>
<path d="" fill="#000000" transform="translate(0,0)"/>
<path d="M0 0 C3 1 3 1 3 1 Z " fill="#000000" transform="translate(30,110)"/>
<path d="" fill="#000000" transform="translate(0,0)"/>
<path d="" fill="#000000" transform="translate(0,0)"/>
<path d="" fill="#000000" transform="translate(0,0)"/>
<path d="" fill="#000000" transform="translate(0,0)"/>
<path d="" fill="#000000" transform="translate(0,0)"/>
<path d="M0 0 C3 1 3 1 3 1 Z " fill="#000000" transform="translate(16,53)"/>
<path d="" fill="#000000" transform="translate(0,0)"/>
<path d="" fill="#000000" transform="translate(0,0)"/>
<path d="" fill="#000000" transform="translate(0,0)"/>
<path d="" fill="#000000" transform="translate(0,0)"/>
<path d="" fill="#000000" transform="translate(0,0)"/>
<path d="" fill="#000000" transform="translate(0,0)"/>
<path d="" fill="#000000" transform="translate(0,0)"/>
<path d="" fill="#000000" transform="translate(0,0)"/>
<path d="" fill="#000000" transform="translate(0,0)"/>
<path d="" fill="#000000" transform="translate(0,0)"/>
<path d="" fill="#000000" transform="translate(0,0)"/>
<path d="" fill="#000000" transform="translate(0,0)"/>
<path d="M0 0 C2 1 2 1 2 1 Z " fill="#000000" transform="translate(15,149)"/>
<path d="" fill="#000000" transform="translate(0,0)"/>
<path d="" fill="#000000" transform="translate(0,0)"/>
<path d="" fill="#000000" transform="translate(0,0)"/>
<path d="" fill="#000000" transform="translate(0,0)"/>
<path d="" fill="#000000" transform="translate(0,0)"/>
<path d="" fill="#000000" transform="translate(0,0)"/>
<path d="" fill="#000000" transform="translate(0,0)"/>
<path d="" fill="#000000" transform="translate(0,0)"/>
<path d="" fill="#000000" transform="translate(0,0)"/>
<path d="" fill="#000000" transform="translate(0,0)"/>
<path d="" fill="#000000" transform="translate(0,0)"/>
<path d="" fill="#000000" transform="translate(0,0)"/>
<path d="" fill="#000000" transform="translate(0,0)"/>
<path d="" fill="#000000" transform="translate(0,0)"/>
<path d="" fill="#000000" transform="translate(0,0)"/>
<path d="" fill="#000000" transform="translate(0,0)"/>
<path d="" fill="#000000" transform="translate(0,0)"/>
<path d="" fill="#000000" transform="translate(0,0)"/>
<path d="" fill="#000000" transform="translate(0,0)"/>
<path d="" fill="#000000" transform="translate(0,0)"/>
<path d="" fill="#000000" transform="translate(0,0)"/>
<path d="" fill="#000000" transform="translate(0,0)"/>
<path d="" fill="#000000" transform="translate(0,0)"/>
<path d="" fill="#000000" transform="translate(0,0)"/>
<path d="" fill="#000000" transform="translate(0,0)"/>
<path d="" fill="#000000" transform="translate(0,0)"/>
<path d="" fill="#000000" transform="translate(0,0)"/>
<path d="" fill="#000000" transform="translate(0,0)"/>
<path d="" fill="#000000" transform="translate(0,0)"/>
<path d="" fill="#000000" transform="translate(0,0)"/>
<path d="" fill="#000000" transform="translate(0,0)"/>
<path d="M0 0 C2 1 2 1 2 1 Z " fill="#000000" transform="translate(19,54)"/>
<path d="" fill="#000000" transform="translate(0,0)"/>
<path d="" fill="#000000" transform="translate(0,0)"/>
<path d="" fill="#000000" transform="translate(0,0)"/>
<path d="" fill="#000000" transform="translate(0,0)"/>
<path d="" fill="#000000" transform="translate(0,0)"/>
<path d="" fill="#000000" transform="translate(0,0)"/>
<path d="" fill="#000000" transform="translate(0,0)"/>
<path d="" fill="#000000" transform="translate(0,0)"/>
<path d="" fill="#000000" transform="translate(0,0)"/>
<path d="" fill="#000000" transform="translate(0,0)"/>
<path d="" fill="#000000" transform="translate(0,0)"/>
<path d="" fill="#000000" transform="translate(0,0)"/>
<path d="" fill="#000000" transform="translate(0,0)"/>
<path d="" fill="#000000" transform="translate(0,0)"/>
<path d="" fill="#000000" transform="translate(0,0)"/>
<path d="" fill="#000000" transform="translate(0,0)"/>
<path d="" fill="#000000" transform="translate(0,0)"/>
<path d="" fill="#000000" transform="translate(0,0)"/>
<path d="" fill="#000000" transform="translate(0,0)"/>
<path d="" fill="#000000" transform="translate(0,0)"/>
<path d="" fill="#000000" transform="translate(0,0)"/>
<path d="" fill="#000000" transform="translate(0,0)"/>
<path d="" fill="#000000" transform="translate(0,0)"/>
<path d="" fill="#000000" transform="translate(0,0)"/>
<path d="" fill="#000000" transform="translate(0,0)"/>
<path d="" fill="#000000" transform="translate(0,0)"/>
<path d="" fill="#000000" transform="translate(0,0)"/>
<path d="" fill="#000000" transform="translate(0,0)"/>
<path d="" fill="#000000" transform="translate(0,0)"/>
<path d="" fill="#000000" transform="translate(0,0)"/>
<path d="" fill="#000000" transform="translate(0,0)"/>
<path d="" fill="#000000" transform="translate(0,0)"/>
<path d="" fill="#000000" transform="translate(0,0)"/>
<path d="" fill="#000000" transform="translate(0,0)"/>
<path d="" fill="#000000" transform="translate(0,0)"/>
<path d="" fill="#000000" transform="translate(0,0)"/>
<path d="" fill="#000000" transform="translate(0,0)"/>
<path d="" fill="#000000" transform="translate(0,0)"/>
<path d="" fill="#000000" transform="translate(0,0)"/>
<path d="" fill="#000000" transform="translate(0,0)"/>
<path d="" fill="#000000" transform="translate(0,0)"/>
<path d="" fill="#000000" transform="translate(0,0)"/>
<path d="" fill="#000000" transform="translate(0,0)"/>
<path d="" fill="#000000" transform="translate(0,0)"/>
<path d="" fill="#000000" transform="translate(0,0)"/>
<path d="" fill="#000000" transform="translate(0,0)"/>
<path d="" fill="#000000" transform="translate(0,0)"/>
<path d="" fill="#000000" transform="translate(0,0)"/>
<path d="" fill="#000000" transform="translate(0,0)"/>
<path d="" fill="#000000" transform="translate(0,0)"/>
<path d="" fill="#000000" transform="translate(0,0)"/>
<path d="" fill="#000000" transform="translate(0,0)"/>
<path d="" fill="#000000" transform="translate(0,0)"/>
<path d="" fill="#000000" transform="translate(0,0)"/>
<path d="" fill="#000000" transform="translate(0,0)"/>
<path d="" fill="#000000" transform="translate(0,0)"/>
<path d="" fill="#000000" transform="translate(0,0)"/>
<path d="" fill="#000000" transform="translate(0,0)"/>
<path d="" fill="#000000" transform="translate(0,0)"/>
<path d="" fill="#000000" transform="translate(0,0)"/>
<path d="" fill="#000000" transform="translate(0,0)"/>
<path d="" fill="#000000" transform="translate(0,0)"/>
<path d="" fill="#000000" transform="translate(0,0)"/>
<path d="" fill="#000000" transform="translate(0,0)"/>
<path d="" fill="#000000" transform="translate(0,0)"/>
<path d="" fill="#000000" transform="translate(0,0)"/>
<path d="" fill="#000000" transform="translate(0,0)"/>
<path d="" fill="#000000" transform="translate(0,0)"/>
<path d="" fill="#000000" transform="translate(0,0)"/>
<path d="" fill="#000000" transform="translate(0,0)"/>
<path d="" fill="#000000" transform="translate(0,0)"/>
<path d="" fill="#000000" transform="translate(0,0)"/>
<path d="" fill="#000000" transform="translate(0,0)"/>
<path d="" fill="#000000" transform="translate(0,0)"/>
<path d="" fill="#000000" transform="translate(0,0)"/>
<path d="" fill="#000000" transform="translate(0,0)"/>
<path d="" fill="#000000" transform="translate(0,0)"/>
<path d="" fill="#000000" transform="translate(0,0)"/>
<path d="" fill="#000000" transform="translate(0,0)"/>
<path d="" fill="#000000" transform="translate(0,0)"/>
<path d="" fill="#000000" transform="translate(0,0)"/>
<path d="" fill="#000000" transform="translate(0,0)"/>
<path d="" fill="#000000" transform="translate(0,0)"/>
<path d="" fill="#000000" transform="translate(0,0)"/>
<path d="" fill="#000000" transform="translate(0,0)"/>
<path d="" fill="#000000" transform="translate(0,0)"/>
<path d="" fill="#000000" transform="translate(0,0)"/>
<path d="" fill="#000000" transform="translate(0,0)"/>
<path d="" fill="#000000" transform="translate(0,0)"/>
<path d="" fill="#000000" transform="translate(0,0)"/>
<path d="" fill="#000000" transform="translate(0,0)"/>
<path d="" fill="#000000" transform="translate(0,0)"/>
<path d="" fill="#000000" transform="translate(0,0)"/>
<path d="" fill="#000000" transform="translate(0,0)"/>
<path d="" fill="#000000" transform="translate(0,0)"/>
<path d="" fill="#000000" transform="translate(0,0)"/>
<path d="" fill="#000000" transform="translate(0,0)"/>
<path d="" fill="#000000" transform="translate(0,0)"/>
<path d="" fill="#000000" transform="translate(0,0)"/>
<path d="" fill="#000000" transform="translate(0,0)"/>
<path d="" fill="#000000" transform="translate(0,0)"/>
<path d="" fill="#000000" transform="translate(0,0)"/>
<path d="" fill="#000000" transform="translate(0,0)"/>
<path d="" fill="#000000" transform="translate(0,0)"/>
<path d="" fill="#000000" transform="translate(0,0)"/>
<path d="" fill="#000000" transform="translate(0,0)"/>
<path d="" fill="#000000" transform="translate(0,0)"/>
<path d="" fill="#000000" transform="translate(0,0)"/>
<path d="" fill="#000000" transform="translate(0,0)"/>
<path d="" fill="#000000" transform="translate(0,0)"/>
<path d="" fill="#000000" transform="translate(0,0)"/>
<path d="" fill="#000000" transform="translate(0,0)"/>
<path d="" fill="#000000" transform="translate(0,0)"/>
<path d="" fill="#000000" transform="translate(0,0)"/>
<path d="" fill="#000000" transform="translate(0,0)"/>
<path d="" fill="#000000" transform="translate(0,0)"/>
<path d="" fill="#000000" transform="translate(0,0)"/>
<path d="" fill="#000000" transform="translate(0,0)"/>
<path d="" fill="#000000" transform="translate(0,0)"/>
<path d="" fill="#000000" transform="translate(0,0)"/>
<path d="" fill="#000000" transform="translate(0,0)"/>
<path d="" fill="#000000" transform="translate(0,0)"/>
<path d="" fill="#000000" transform="translate(0,0)"/>
<path d="" fill="#000000" transform="translate(0,0)"/>
<path d="" fill="#000000" transform="translate(0,0)"/>
<path d="" fill="#000000" transform="translate(0,0)"/>
<path d="" fill="#000000" transform="translate(0,0)"/>
<path d="" fill="#000000" transform="translate(0,0)"/>
<path d="" fill="#000000" transform="translate(0,0)"/>
<path d="" fill="#000000" transform="translate(0,0)"/>
<path d="" fill="#000000" transform="translate(0,0)"/>
<path d="" fill="#000000" transform="translate(0,0)"/>
<path d="" fill="#000000" transform="translate(0,0)"/>
<path d="" fill="#000000" transform="translate(0,0)"/>
</svg>
