<?xml version="1.0" encoding="UTF-8"?><svg width="150" height="150" viewBox="0 0 150 150" xmlns="http://www.w3.org/2000/svg">
                            <path class="building-outline" d="" stroke="none" fill="black" fill-rule="evenodd"></path><path class="park-area" d="M 103.231 6.788 C 92.862 9.215, 88.289 10.689, 88.981 11.381 C 90.751 13.151, 90.097 15.533, 87.034 18.467 C 84.101 21.277, 84.088 21.340, 85.784 24.273 C 89.216 30.202, 96.821 32.805, 98.763 28.714 C 99.342 27.496, 103.912 21.611, 108.919 15.635 C 117.603 5.273, 119.501 2.868, 118.809 3.107 C 118.639 3.165, 111.629 4.822, 103.231 6.788 M 26.697 95.750 C 24.617 99.458, 25.167 101.908, 29.077 106.351 C 32.714 110.482, 34.134 111.264, 42.926 113.977 C 48.313 115.640, 52.956 117, 53.242 117 C 53.528 117, 54.286 114.862, 54.927 112.250 C 55.567 109.638, 56.312 106.755, 56.582 105.845 C 56.983 104.499, 54.505 103.334, 43.286 99.595 C 29.069 94.857, 27.413 94.473, 26.697 95.750" stroke="none" fill="black" fill-rule="evenodd"></path><path class="road-trace" d="M 37.032 1.124 C 37.014 1.467, 38.143 3.793, 39.540 6.292 C 41.357 9.544, 41.889 11.593, 41.411 13.499 C 40.594 16.754, 39.164 17.393, 35.672 16.066 C 33.964 15.416, 33 15.401, 33 16.025 C 33 16.561, 33.450 17, 34 17 C 34.550 17, 35 17.502, 35 18.117 C 35 18.743, 34.117 19.002, 32.987 18.707 C 31.645 18.356, 30.625 18.833, 29.926 20.138 C 29.181 21.530, 28.281 21.907, 26.814 21.441 C 25.624 21.063, 24.439 21.290, 24.015 21.975 C 23.449 22.891, 22.330 22.880, 19.140 21.924 C 16.863 21.242, 15 20.305, 15 19.842 C 15 19.379, 15.338 19, 15.750 19 C 16.163 19, 16.500 17.425, 16.500 15.500 C 16.500 13.575, 16.399 12, 16.276 12 C 15.570 12, 13.182 17.848, 13.683 18.350 C 14.015 18.681, 13.509 19.251, 12.559 19.616 C 11.217 20.131, 11.124 20.458, 12.142 21.088 C 13.104 21.682, 12.794 22.160, 10.976 22.885 C 9.614 23.429, 9.063 23.902, 9.750 23.937 C 10.438 23.971, 11 24.705, 11 25.567 C 11 26.710, 10.390 26.967, 8.750 26.516 C 6.676 25.945, 6.637 26.007, 8.250 27.308 C 10.593 29.199, 10.454 29.977, 7.750 30.116 C 6.057 30.203, 5.933 30.345, 7.250 30.689 C 8.213 30.941, 9 31.747, 9 32.480 C 9 33.320, 8.261 33.620, 7 33.290 C 5.900 33.002, 5 33.232, 5 33.802 C 5 34.371, 4.727 35.548, 4.393 36.418 C 3.995 37.456, 4.338 38, 5.393 38 C 6.277 38, 7 38.633, 7 39.406 C 7 40.339, 6.242 40.653, 4.750 40.338 C 2.768 39.919, 2.708 39.996, 4.250 40.981 C 6.464 42.396, 6.549 44.425, 4.359 43.584 C 2.986 43.057, 2.924 43.204, 3.981 44.477 C 4.676 45.315, 4.797 46, 4.249 46 C 3.702 46, 3.219 48.138, 3.178 50.750 C 3.108 55.101, 3.222 55.338, 4.541 53.573 C 5.332 52.513, 6.321 52.012, 6.740 52.460 C 7.158 52.908, 6.963 53.466, 6.306 53.702 C 5.650 53.937, 5.362 54.780, 5.668 55.576 C 6.075 56.637, 5.726 56.847, 4.361 56.364 C 2.876 55.839, 2.741 55.967, 3.696 56.999 C 4.354 57.710, 4.658 59.464, 4.372 60.896 C 3.920 63.158, 4.203 63.520, 6.527 63.650 C 7.997 63.733, 9.718 64.343, 10.350 65.006 C 11.241 65.939, 10.711 66.083, 8 65.645 C 4.591 65.094, 4.572 65.109, 7.250 66.233 C 10.560 67.621, 10.903 69.026, 7.750 68.281 C 5.530 67.757, 5.527 67.771, 7.500 69.343 C 8.600 70.219, 9 70.951, 8.389 70.968 C 6.436 71.024, 8.064 76, 10.035 76 C 12.560 76, 15 77.045, 15 78.126 C 15 78.628, 13.763 78.779, 12.250 78.462 L 9.500 77.886 12 79.408 C 14.249 80.776, 14.299 80.936, 12.500 80.995 C 10.691 81.055, 10.663 81.156, 12.208 82.057 C 13.148 82.605, 13.679 83.673, 13.388 84.431 C 13.037 85.346, 13.872 86.033, 15.872 86.472 C 17.928 86.924, 18.712 87.587, 18.338 88.561 C 18.037 89.346, 17.388 89.740, 16.895 89.435 C 15.615 88.644, 15.788 90.388, 17.122 91.722 C 17.739 92.339, 18.916 92.586, 19.737 92.271 C 20.881 91.832, 21.073 92.194, 20.559 93.815 C 20.018 95.518, 20.388 96.059, 22.443 96.575 C 24.938 97.201, 26.049 99, 23.941 99 C 23.359 99, 23.160 99.450, 23.500 100 C 24.633 101.833, 25.834 101.032, 26.500 98 C 26.862 96.350, 27.460 95, 27.828 95 C 28.597 95, 56.331 104.132, 56.829 104.549 C 57.112 104.786, 53.994 115.906, 53.384 116.835 C 53.263 117.019, 48.604 115.566, 43.030 113.607 L 32.896 110.045 34.974 112.963 C 36.117 114.568, 37.940 116.164, 39.026 116.508 C 40.112 116.853, 41 117.478, 41 117.897 C 41 118.316, 41.967 118.623, 43.149 118.579 C 44.331 118.536, 45.509 119.110, 45.767 119.855 C 46.112 120.851, 45.650 121.024, 44.020 120.506 C 41.854 119.819, 41.846 119.848, 43.651 121.743 C 44.668 122.810, 45.842 123.500, 46.259 123.277 C 47.476 122.626, 51 124.037, 51 125.174 C 51 125.746, 50.261 125.931, 49.359 125.584 C 47.991 125.059, 47.926 125.206, 48.972 126.466 C 49.662 127.298, 50.630 127.729, 51.122 127.424 C 51.615 127.120, 52.952 127.167, 54.094 127.530 C 55.665 128.029, 56.029 128.748, 55.592 130.490 C 55.208 132.021, 55.518 132.985, 56.519 133.369 C 57.687 133.817, 57.890 133.412, 57.427 131.563 C 56.977 129.772, 57.284 129.077, 58.664 128.767 C 59.901 128.489, 59.113 127.918, 56.250 127.019 C 53.913 126.284, 52 125.610, 52 125.520 C 52 125.430, 52.705 123.286, 53.568 120.755 L 55.135 116.154 60.318 117.921 C 70.039 121.236, 70.715 121.271, 71.413 118.492 C 72.312 114.910, 75.205 115.151, 74.498 118.750 C 73.963 121.478, 73.968 121.481, 75.183 119.136 C 76.215 117.144, 76.139 116.575, 74.704 115.525 C 72.993 114.274, 72.457 111.876, 73.627 110.706 C 74.165 110.168, 80.691 112.357, 81.772 113.439 C 81.978 113.645, 80.983 116.273, 79.561 119.280 C 77.361 123.931, 75.720 125.620, 68.568 130.599 C 59.230 137.100, 57.861 140.045, 66.806 134.390 C 74.813 129.328, 78.521 125.517, 81.442 119.347 C 82.835 116.406, 84.317 114.001, 84.737 114.002 C 85.157 114.003, 89.240 116.253, 93.810 119.002 C 102.289 124.101, 104 124.772, 104 122.993 C 104 122.440, 105.125 121.009, 106.500 119.813 C 107.875 118.618, 109 117.045, 109 116.320 C 109 115.594, 109.730 115, 110.622 115 C 111.951 115, 112.020 114.729, 111 113.500 C 109.955 112.241, 110.136 111.981, 112.128 111.884 C 113.822 111.801, 114 111.637, 112.750 111.311 C 111.787 111.059, 111 110.243, 111 109.496 C 111 108.454, 111.720 108.346, 114.102 109.029 C 116.960 109.849, 117.292 109.686, 118.321 106.959 C 118.936 105.332, 120.127 103.993, 120.969 103.985 C 122.242 103.972, 122.265 103.821, 121.104 103.086 C 118.981 101.741, 120.530 99.185, 123.689 98.822 C 126.173 98.537, 126.621 97.924, 127.577 93.500 C 128.562 88.938, 128.891 88.517, 131.329 88.688 C 132.798 88.792, 134 88.454, 134 87.938 C 134 87.422, 132.875 87, 131.500 87 C 130.125 87, 129 86.498, 129 85.883 C 129 85.269, 129.787 84.989, 130.750 85.261 C 134.907 86.437, 135.418 86.435, 135.580 85.250 C 135.673 84.563, 135.860 83.662, 135.993 83.250 C 136.127 82.838, 136.184 82.162, 136.118 81.750 C 136.053 81.337, 136.436 81, 136.969 81 C 137.501 81, 137.693 80.364, 137.395 79.587 C 137.076 78.757, 137.604 77.981, 138.677 77.703 C 140.333 77.275, 140.340 77.221, 138.750 77.116 C 136.182 76.946, 136.613 75.020, 139.250 74.884 C 140.943 74.797, 141.067 74.655, 139.750 74.311 C 138.787 74.059, 138 73.478, 138 73.020 C 138 72.562, 138.970 72.441, 140.156 72.751 C 141.513 73.106, 142.074 72.928, 141.669 72.273 C 141.314 71.700, 139.017 70.930, 136.564 70.562 C 133.333 70.077, 132.251 69.510, 132.637 68.504 C 133.041 67.450, 133.787 67.349, 135.724 68.085 C 137.128 68.619, 138.513 68.820, 138.801 68.532 C 139.089 68.245, 137.867 67.501, 136.086 66.880 C 134.181 66.216, 133.217 65.383, 133.744 64.856 C 134.270 64.330, 136.359 64.568, 138.819 65.436 C 141.119 66.248, 143 66.530, 143 66.064 C 143 65.598, 141.857 64.930, 140.459 64.579 C 137.109 63.738, 138.341 61.845, 141.811 62.502 L 144.500 63.011 141.972 61.756 C 140.395 60.973, 139.576 59.841, 139.795 58.750 C 140.011 57.676, 139.539 57, 138.573 57 C 136.771 57, 136.419 54.360, 138.145 53.785 C 138.775 53.575, 137.425 52.845, 135.145 52.162 C 132.865 51.479, 131 50.488, 131 49.960 C 131 48.765, 131.680 48.761, 135.757 49.930 C 137.540 50.442, 139 50.492, 139 50.041 C 139 49.591, 137.425 48.927, 135.500 48.566 C 133.575 48.205, 132 47.555, 132 47.121 C 132 45.507, 133.278 45.155, 135.742 46.092 C 137.136 46.622, 138.513 46.820, 138.801 46.532 C 139.089 46.245, 137.902 45.513, 136.163 44.907 C 132.097 43.490, 133.010 41.856, 137.197 43.057 C 140.241 43.929, 142.755 43.511, 139.893 42.608 C 139.127 42.366, 135.668 41.253, 132.206 40.135 L 125.912 38.101 124.927 40.691 C 124.386 42.115, 123.168 45.917, 122.221 49.139 C 121.213 52.569, 119.936 54.998, 119.139 54.999 C 117.197 55.001, 118.641 47.940, 120.907 46.353 C 121.861 45.684, 123.191 43.306, 123.861 41.069 C 124.872 37.697, 125.516 37, 127.623 37 C 129.223 37, 130.005 36.536, 129.732 35.750 C 129.493 35.063, 128.353 34.533, 127.199 34.574 C 126.044 34.615, 125.340 34.259, 125.634 33.784 C 125.927 33.309, 125.030 33.205, 123.641 33.554 C 119.590 34.571, 118.972 33.449, 120.712 28.232 C 121.580 25.630, 122.356 23.406, 122.438 23.291 C 122.519 23.175, 126.995 24.447, 132.385 26.115 C 137.774 27.784, 142.401 28.932, 142.667 28.666 C 142.933 28.400, 142.217 27.886, 141.075 27.524 C 139.934 27.162, 139 26.460, 139 25.964 C 139 25.468, 139.651 25.313, 140.447 25.618 C 141.661 26.084, 141.701 25.755, 140.697 23.566 C 139.933 21.903, 138.172 20.556, 135.833 19.846 C 133.501 19.138, 132.347 18.258, 132.665 17.430 C 132.940 16.713, 133.856 16.391, 134.699 16.715 C 135.971 17.203, 136.044 16.950, 135.124 15.232 C 134.514 14.092, 132.443 12.641, 130.522 12.007 C 128.600 11.373, 126.740 10.389, 126.389 9.820 C 125.976 9.153, 126.548 9.039, 128 9.500 C 129.534 9.987, 130.032 9.861, 129.566 9.107 C 129.189 8.497, 126.907 7.502, 124.494 6.894 C 122.080 6.286, 119.970 5.135, 119.803 4.336 C 119.629 3.502, 115.228 7.921, 109.488 14.691 C 101.249 24.409, 98.785 28.120, 95.578 35.646 L 91.680 44.792 87.090 42.832 C 84.565 41.755, 82.073 40.451, 81.550 39.936 C 81.028 39.421, 79.902 39, 79.048 39 C 78.195 39, 76.471 37.088, 75.217 34.750 C 73.964 32.413, 71.040 29.219, 68.719 27.653 C 62.527 23.475, 60.615 20.444, 60.615 14.807 C 60.615 9.886, 59.418 8.209, 58.789 12.250 C 58.174 16.206, 60.037 22.417, 62.664 25.165 C 65.008 27.617, 65.117 28.116, 64.028 31.415 C 63.377 33.387, 62.497 35, 62.072 35 C 60.540 35, 53.077 29.013, 51.925 26.859 C 50.879 24.905, 51.127 24.345, 54.116 21.905 C 55.970 20.392, 57.128 18.795, 56.689 18.356 C 56.250 17.917, 55.486 18.214, 54.990 19.016 C 54.273 20.176, 54.107 20.067, 54.180 18.487 C 54.231 17.394, 53.753 15.212, 53.118 13.638 C 51.978 10.810, 51.194 10.651, 47 12.398 C 45.880 12.864, 45.451 12.260, 45.306 10.011 C 44.885 3.493, 44.515 2.948, 42.075 5.250 C 41.145 6.127, 40.627 6.169, 40.339 5.392 C 39.764 3.841, 37.070 0.366, 37.032 1.124 M 118 6.926 C 118 7.332, 119.575 8.148, 121.500 8.739 C 123.425 9.329, 125 9.480, 125 9.074 C 125 8.668, 123.425 7.852, 121.500 7.261 C 119.575 6.671, 118 6.520, 118 6.926 M 42.015 7.750 C 42.043 9.119, 43.882 11.452, 44.469 10.864 C 45.257 10.076, 44.002 7, 42.893 7 C 42.402 7, 42.007 7.338, 42.015 7.750 M 113.068 12.417 C 111.181 14.371, 109.978 16.311, 110.395 16.729 C 110.813 17.146, 112.401 15.960, 113.924 14.093 C 116.555 10.870, 116.863 10.757, 120.010 11.854 C 121.833 12.489, 123.559 12.774, 123.845 12.488 C 124.749 11.585, 122.553 10.060, 119.469 9.450 C 116.986 8.959, 115.938 9.445, 113.068 12.417 M 48.210 13.302 C 44.832 14.835, 45.819 17.500, 49.764 17.500 C 53.365 17.500, 53.436 17.385, 51.715 14.381 C 50.702 12.615, 50.119 12.436, 48.210 13.302 M 116.560 12.903 C 116.293 13.335, 117.633 14.166, 119.538 14.750 C 121.442 15.335, 123 15.449, 123 15.004 C 123 13.862, 117.147 11.953, 116.560 12.903 M 125.597 12.844 C 125.310 13.308, 126.633 14.166, 128.538 14.750 C 132.568 15.987, 133.340 14.460, 129.435 12.975 C 126.320 11.791, 126.249 11.788, 125.597 12.844 M 41.710 16 C 41.423 17.100, 41.595 18, 42.094 18 C 43.318 18, 47 21.752, 47 23 C 47 23.550, 46.325 24, 45.500 24 C 44.675 24, 44 24.450, 44 25 C 44 26.356, 46.334 26.266, 47.744 24.856 C 48.602 23.998, 48.274 22.501, 46.427 18.856 C 43.769 13.611, 42.531 12.861, 41.710 16 M 48.507 14.989 C 48.157 15.555, 48.558 15.723, 49.448 15.382 C 51.180 14.717, 51.497 14, 50.059 14 C 49.541 14, 48.843 14.445, 48.507 14.989 M 113.667 15.667 C 112.317 17.016, 113.085 18.009, 116.622 19.487 C 120.830 21.245, 122.370 21.407, 121.500 20 C 121.160 19.450, 120.035 19, 119 19 C 117.965 19, 116.856 18.577, 116.537 18.059 C 116.196 17.507, 117.515 17.304, 119.728 17.568 L 123.500 18.018 120.500 16.554 C 117.222 14.955, 114.705 14.628, 113.667 15.667 M 125 15.892 C 125 16.911, 129.968 18.365, 130.757 17.577 C 131.043 17.290, 130.061 16.593, 128.574 16.028 C 125.276 14.774, 125 14.764, 125 15.892 M 36 18.893 C 36 19.384, 36.675 20.045, 37.500 20.362 C 38.414 20.712, 39 20.363, 39 19.469 C 39 18.661, 38.325 18, 37.500 18 C 36.675 18, 36 18.402, 36 18.893 M 48.912 19.075 C 47.764 19.802, 47.821 19.972, 49.219 19.985 C 50.338 19.995, 50.735 20.527, 50.357 21.511 C 49.942 22.593, 50.236 22.847, 51.389 22.404 C 53.347 21.653, 53.386 21.243, 51.662 19.519 C 50.802 18.659, 49.820 18.500, 48.912 19.075 M 107.200 19.200 C 105.754 20.646, 105.640 22, 106.965 22 C 107.495 22, 108.411 21.100, 109 20 C 110.179 17.797, 109.088 17.312, 107.200 19.200 M 124.550 18.888 C 126.063 20.301, 130 21.231, 130 20.174 C 130 19.082, 127.620 18, 125.218 18 C 124.229 18, 123.969 18.345, 124.550 18.888 M 40.497 20.004 C 39.773 21.176, 42.335 22.388, 44.214 21.762 C 45.043 21.486, 44.723 20.922, 43.308 20.165 C 41.867 19.393, 40.909 19.339, 40.497 20.004 M 109.980 20.524 C 109.284 21.362, 108.993 22.327, 109.333 22.667 C 110.060 23.393, 113 21.156, 113 19.878 C 113 18.500, 111.370 18.849, 109.980 20.524 M 31 21 C 31 21.550, 31.675 22, 32.500 22 C 33.325 22, 34 21.550, 34 21 C 34 20.450, 33.325 20, 32.500 20 C 31.675 20, 31 20.450, 31 21 M 114.488 21.019 C 113.861 22.034, 114.626 22.515, 118.250 23.381 C 119.763 23.742, 121 23.678, 121 23.238 C 121 22.051, 115.094 20.039, 114.488 21.019 M 123 20.996 C 123 22.138, 128.853 24.047, 129.440 23.097 C 129.707 22.665, 128.367 21.834, 126.462 21.250 C 124.558 20.665, 123 20.551, 123 20.996 M 132 20.826 C 132 22.019, 134.465 23.010, 137.332 22.970 C 139.037 22.946, 139.179 22.758, 138 22.091 C 135.252 20.536, 132 19.850, 132 20.826 M 35.188 22.063 C 35.428 22.784, 36.216 23.572, 36.938 23.813 C 37.688 24.063, 38.063 23.688, 37.813 22.938 C 37.572 22.216, 36.784 21.428, 36.063 21.188 C 35.313 20.938, 34.938 21.313, 35.188 22.063 M 13.565 22.895 C 12.783 24.160, 15.898 25.167, 18.266 24.416 C 19.464 24.035, 20.007 24.179, 19.636 24.779 C 19.299 25.326, 19.917 26.007, 21.011 26.293 C 24.808 27.285, 23.036 24.327, 19.134 23.158 C 14.487 21.766, 14.269 21.756, 13.565 22.895 M 25 23.383 C 25 23.594, 25.900 24.002, 27 24.290 C 28.100 24.577, 29 24.405, 29 23.906 C 29 23.408, 28.100 23, 27 23 C 25.900 23, 25 23.173, 25 23.383 M 30.188 24.063 C 30.428 24.784, 31.216 25.572, 31.938 25.813 C 32.688 26.063, 33.063 25.688, 32.813 24.938 C 32.572 24.216, 31.784 23.428, 31.063 23.188 C 30.313 22.938, 29.938 23.313, 30.188 24.063 M 38.755 25.500 C 38.384 27.442, 38.692 28, 40.139 28 C 41.162 28, 42 27.587, 42 27.082 C 42 26.577, 42.273 25.452, 42.607 24.582 C 43.035 23.466, 42.628 23, 41.224 23 C 39.895 23, 39.074 23.831, 38.755 25.500 M 102.500 25 C 101.505 26.100, 101.140 27, 101.690 27 C 102.240 27, 103.505 26.100, 104.500 25 C 105.495 23.900, 105.860 23, 105.310 23 C 104.760 23, 103.495 23.900, 102.500 25 M 131 23.892 C 131 24.501, 131.563 25.006, 132.250 25.014 C 132.938 25.021, 134.625 25.307, 136 25.650 C 137.747 26.085, 138.199 25.951, 137.500 25.207 C 135.977 23.585, 131 22.578, 131 23.892 M 34 25.531 C 34 26.339, 34.675 27, 35.500 27 C 36.325 27, 37 26.598, 37 26.107 C 37 25.616, 36.325 24.955, 35.500 24.638 C 34.586 24.288, 34 24.637, 34 25.531 M 105.653 25.831 C 104.741 26.838, 104.298 27.964, 104.667 28.333 C 105.409 29.076, 109 26.185, 109 24.845 C 109 23.428, 107.402 23.899, 105.653 25.831 M 115 25 C 115.825 25.533, 117.175 25.969, 118 25.969 C 119.333 25.969, 119.333 25.862, 118 25 C 117.175 24.467, 115.825 24.031, 115 24.031 C 113.667 24.031, 113.667 24.138, 115 25 M 12.547 25.786 C 11.390 26.943, 12.103 27.772, 14.750 28.351 C 16.262 28.681, 18.573 29.256, 19.884 29.628 C 21.609 30.117, 22.147 29.942, 21.832 28.997 C 21.367 27.601, 13.465 24.869, 12.547 25.786 M 24 26.025 C 24 27.113, 28.163 29, 30.565 29 C 33.130 29, 32.080 27.224, 28.851 26.098 C 24.941 24.735, 24 24.721, 24 26.025 M 49 25.453 C 49 26.752, 51.440 31, 52.186 31 C 52.662 31, 52.353 29.650, 51.500 28 C 50.116 25.324, 49 24.187, 49 25.453 M 109.200 26.200 C 107.756 27.644, 107.586 30.374, 108.995 29.503 C 110.426 28.619, 112.226 25, 111.235 25 C 110.776 25, 109.860 25.540, 109.200 26.200 M 113.232 27.195 C 113.720 28.659, 119 30.209, 119 28.889 C 119 28.373, 117.846 27.512, 116.435 26.975 C 113.134 25.720, 112.749 25.747, 113.232 27.195 M 43.188 28.063 C 43.428 28.784, 44.216 29.572, 44.938 29.813 C 45.688 30.063, 46.063 29.688, 45.813 28.938 C 45.572 28.216, 44.784 27.428, 44.063 27.188 C 43.313 26.938, 42.938 27.313, 43.188 28.063 M 33 28.893 C 33 29.384, 33.675 30.045, 34.500 30.362 C 35.414 30.712, 36 30.363, 36 29.469 C 36 28.661, 35.325 28, 34.500 28 C 33.675 28, 33 28.402, 33 28.893 M 47 28.893 C 47 29.384, 47.652 30.036, 48.449 30.342 C 49.418 30.714, 49.714 30.418, 49.342 29.449 C 48.735 27.867, 47 27.455, 47 28.893 M 99.583 29.643 C 98.746 31.825, 99.858 32.839, 101.039 30.971 C 102.222 29.101, 102.247 28, 101.107 28 C 100.616 28, 99.930 28.739, 99.583 29.643 M 11 30 C 11 30.550, 11.113 31.005, 11.250 31.011 C 11.387 31.017, 13.637 31.670, 16.250 32.463 C 20.060 33.619, 21 33.648, 21 32.610 C 21 31.899, 19.260 30.795, 17.134 30.158 C 12.395 28.738, 11 28.702, 11 30 M 23 29.828 C 23 30.958, 30.030 33.304, 30.877 32.456 C 31.775 31.558, 29.474 30.045, 26.219 29.394 C 24.186 28.987, 23 29.147, 23 29.828 M 37.496 30.007 C 37.153 30.561, 37.596 31.292, 38.480 31.631 C 40.394 32.365, 41.461 31.556, 40.541 30.067 C 39.711 28.723, 38.306 28.696, 37.496 30.007 M 66 30.059 C 66 30.641, 66.450 30.840, 67 30.500 C 67.550 30.160, 68 29.684, 68 29.441 C 68 29.198, 67.550 29, 67 29 C 66.450 29, 66 29.477, 66 30.059 M 102.481 31.061 C 101.580 33.899, 102.581 34.652, 103.922 32.146 C 104.574 30.928, 104.635 29.892, 104.075 29.546 C 103.563 29.230, 102.846 29.911, 102.481 31.061 M 110.620 29.805 C 110.344 30.253, 111.891 31.092, 114.059 31.670 C 116.227 32.249, 118 32.361, 118 31.920 C 118 30.345, 111.447 28.467, 110.620 29.805 M 42 31.531 C 42 32.339, 42.675 33, 43.500 33 C 44.325 33, 45 32.598, 45 32.107 C 45 31.616, 44.325 30.955, 43.500 30.638 C 42.586 30.288, 42 30.637, 42 31.531 M 32 32.417 C 32 33.288, 32.712 34, 33.583 34 C 34.454 34, 34.989 33.466, 34.771 32.813 C 34.153 30.958, 32 30.651, 32 32.417 M 10.556 32.777 C 10.260 33.074, 10.540 33.945, 11.178 34.714 C 12.073 35.793, 12.043 36.043, 11.044 35.806 C 8.824 35.281, 8.800 37.715, 11.020 38.295 C 12.347 38.642, 13.331 38.301, 13.688 37.371 C 14.097 36.304, 15.081 36.079, 17.245 36.554 C 19.422 37.032, 20.123 36.868, 19.817 35.951 C 19.365 34.596, 11.450 31.884, 10.556 32.777 M 22 32.957 C 22 34.100, 26.099 36, 28.565 36 C 29.354 36, 30 35.580, 30 35.067 C 30 34.218, 29.217 33.878, 23.750 32.353 C 22.788 32.085, 22 32.357, 22 32.957 M 49.813 32.683 C 50.534 32.972, 51.397 32.936, 51.729 32.604 C 52.061 32.272, 51.471 32.036, 50.417 32.079 C 49.252 32.127, 49.015 32.364, 49.813 32.683 M 53 33 C 53 33.550, 53.413 34, 53.918 34 C 54.423 34, 55.661 34.309, 56.668 34.687 C 58.281 35.292, 58.336 35.172, 57.128 33.687 C 55.627 31.843, 53 31.405, 53 33 M 64.651 33.468 C 64.341 34.275, 64.467 35.170, 64.930 35.457 C 65.393 35.743, 66.007 35.083, 66.293 33.989 C 66.891 31.703, 65.498 31.261, 64.651 33.468 M 108.053 33.900 C 107.296 35.315, 107.390 35.936, 108.421 36.331 C 110.160 36.999, 111 36.186, 111 33.833 C 111 31.445, 109.347 31.483, 108.053 33.900 M 36 33.893 C 36 35.017, 38.601 36.066, 39.402 35.264 C 40.606 34.061, 39.949 33, 38 33 C 36.900 33, 36 33.402, 36 33.893 M 47 34 C 47.825 34.533, 49.175 34.945, 50 34.914 C 50.989 34.878, 50.819 34.567, 49.500 34 C 46.751 32.819, 45.172 32.819, 47 34 M 67.583 33.866 C 67.152 34.563, 67.070 35.403, 67.400 35.733 C 68.295 36.628, 69.271 35.312, 68.787 33.862 C 68.449 32.846, 68.213 32.846, 67.583 33.866 M 97.339 34.687 C 96.983 35.684, 96.509 36.837, 96.287 37.250 C 96.064 37.663, 96.343 38, 96.906 38 C 98.471 38, 100.212 34.249, 98.996 33.497 C 98.440 33.154, 97.695 33.689, 97.339 34.687 M 112.429 35.012 C 112.429 37.374, 114.352 37.098, 114.823 34.667 C 115.001 33.750, 114.535 33, 113.788 33 C 113.040 33, 112.429 33.905, 112.429 35.012 M 41.188 35.063 C 41.428 35.784, 42.216 36.572, 42.938 36.813 C 43.688 37.063, 44.063 36.688, 43.813 35.938 C 43.572 35.216, 42.784 34.428, 42.063 34.188 C 41.313 33.938, 40.938 34.313, 41.188 35.063 M 70 35.559 C 70 36.416, 70.450 36.840, 71 36.500 C 71.550 36.160, 72 35.459, 72 34.941 C 72 34.423, 71.550 34, 71 34 C 70.450 34, 70 34.702, 70 35.559 M 116 35.468 C 116 36.275, 114.856 37.535, 113.459 38.268 C 110.956 39.579, 110.946 39.632, 112.784 41.751 L 114.650 43.902 116.233 38.951 C 117.104 36.228, 117.407 34, 116.908 34 C 116.409 34, 116 34.661, 116 35.468 M 6 36 C 6 36.550, 6.450 37, 7 37 C 7.550 37, 8 36.550, 8 36 C 8 35.450, 7.550 35, 7 35 C 6.450 35, 6 35.450, 6 36 M 31.229 36.188 C 31.847 38.042, 34 38.349, 34 36.583 C 34 35.712, 33.288 35, 32.417 35 C 31.546 35, 31.011 35.534, 31.229 36.188 M 45 35.816 C 45 36.838, 49.109 38.224, 49.873 37.460 C 50.509 36.824, 49.875 36.364, 47.250 35.557 C 46.009 35.175, 45 35.292, 45 35.816 M 53 36 C 53.825 36.533, 55.400 36.945, 56.500 36.914 L 58.500 36.859 56.500 36 C 55.400 35.527, 53.825 35.116, 53 35.086 C 51.667 35.037, 51.667 35.138, 53 36 M 73 36.500 C 73 37.325, 73.436 38, 73.969 38 C 74.501 38, 74.678 37.325, 74.362 36.500 C 74.045 35.675, 73.609 35, 73.393 35 C 73.177 35, 73 35.675, 73 36.500 M 99.710 37 C 99.423 38.100, 99.579 39, 100.058 39 C 100.538 39, 101.411 38.100, 102 37 C 102.837 35.437, 102.760 35, 101.652 35 C 100.872 35, 99.998 35.900, 99.710 37 M 117.918 37.681 C 116.033 42.576, 116.246 45.500, 118.487 45.500 C 120.591 45.500, 122.786 41.986, 123.237 37.895 C 123.437 36.081, 122.959 35.429, 121.252 35.184 C 119.560 34.941, 118.734 35.560, 117.918 37.681 M 21 36.796 C 21 37.969, 26.812 39.521, 27.738 38.595 C 28.644 37.689, 27.669 37.084, 24.177 36.385 C 22.228 35.996, 21 36.154, 21 36.796 M 35 36.941 C 35 38.334, 36.838 39.218, 38.107 38.434 C 38.878 37.957, 38.803 37.490, 37.857 36.890 C 36.072 35.759, 35 35.778, 35 36.941 M 59.544 36.928 C 58.902 37.967, 62.816 39.518, 63.742 38.591 C 64.067 38.266, 63.696 37.993, 62.917 37.985 C 61.750 37.972, 61.765 37.798, 63 37 C 64.219 36.212, 64.090 36.028, 62.309 36.015 C 61.104 36.007, 59.860 36.418, 59.544 36.928 M 15 38.500 C 15 39.333, 15.889 40, 17 40 C 19.384 40, 19.653 38.464, 17.418 37.607 C 15.183 36.749, 15 36.817, 15 38.500 M 40 38.531 C 40 39.339, 40.675 40, 41.500 40 C 42.325 40, 43 39.598, 43 39.107 C 43 38.616, 42.325 37.955, 41.500 37.638 C 40.586 37.288, 40 37.637, 40 38.531 M 52 37.977 C 52 38.411, 52.900 39.002, 54 39.290 C 55.100 39.577, 56 39.457, 56 39.023 C 56 38.589, 55.100 37.998, 54 37.710 C 52.900 37.423, 52 37.543, 52 37.977 M 66 38.334 C 66 40.200, 66.547 40.561, 70.750 41.462 C 73.260 42, 74 41.824, 74 40.688 C 74 39.879, 72.917 38.945, 71.593 38.613 C 70.269 38.280, 68.469 37.733, 67.593 37.397 C 66.558 37, 66 37.329, 66 38.334 M 106.585 37.862 C 106.257 38.394, 106.553 39.057, 107.244 39.336 C 107.935 39.614, 107.600 39.892, 106.500 39.953 C 104.526 40.062, 104.526 40.083, 106.441 41.532 C 109.038 43.496, 111.701 43.549, 110.087 41.605 C 109.451 40.838, 109.058 39.657, 109.215 38.980 C 109.568 37.457, 107.405 36.536, 106.585 37.862 M 29 39.031 C 29 40.320, 31.849 41.484, 32.764 40.569 C 33.137 40.196, 32.780 39.473, 31.971 38.961 C 30.035 37.737, 29 37.761, 29 39.031 M 45 39 C 45.825 39.533, 47.400 39.945, 48.500 39.914 L 50.500 39.859 48.500 39 C 47.400 38.527, 45.825 38.116, 45 38.086 C 43.667 38.037, 43.667 38.138, 45 39 M 8 39.916 C 8 41.040, 10.812 42.413, 15.544 43.600 C 18.849 44.430, 18.775 42.245, 15.456 40.983 C 10.557 39.121, 8 38.755, 8 39.916 M 20 40.025 C 20 41.605, 25.132 43.268, 26.326 42.074 C 26.992 41.408, 26.416 40.729, 24.598 40.037 C 21.161 38.730, 20 38.727, 20 40.025 M 59 40.094 C 59 40.592, 59.413 41, 59.918 41 C 60.423 41, 61.622 41.301, 62.582 41.670 C 63.680 42.091, 64.087 41.950, 63.680 41.291 C 62.825 39.908, 59 38.930, 59 40.094 M 94.583 40.643 C 94.237 41.547, 94.159 42.492, 94.410 42.743 C 95.205 43.538, 97 41.942, 97 40.441 C 97 38.479, 95.361 38.617, 94.583 40.643 M 34 40.893 C 34 42.017, 36.601 43.066, 37.402 42.264 C 38.606 41.061, 37.949 40, 36 40 C 34.900 40, 34 40.402, 34 40.893 M 44.515 41.024 C 45.179 42.099, 49 42.950, 49 42.023 C 49 41.589, 47.889 41.021, 46.530 40.761 C 45.172 40.501, 44.265 40.620, 44.515 41.024 M 52 41 C 52.825 41.533, 54.400 41.945, 55.500 41.914 L 57.500 41.859 55.500 41 C 54.400 40.527, 52.825 40.116, 52 40.086 C 50.667 40.037, 50.667 40.138, 52 41 M 77.195 42.500 C 77.215 44.150, 77.439 44.704, 77.693 43.731 C 77.947 42.758, 77.930 41.408, 77.656 40.731 C 77.382 40.054, 77.175 40.850, 77.195 42.500 M 126 40.902 C 126 41.398, 127.350 42.275, 129 42.850 C 131.355 43.671, 132 43.610, 132 42.565 C 132 41.832, 130.988 40.962, 129.750 40.630 C 126.667 39.804, 126 39.852, 126 40.902 M 28 42.477 C 28 43.186, 28.900 44.002, 30 44.290 C 31.237 44.613, 32 44.320, 32 43.523 C 32 42.814, 31.100 41.998, 30 41.710 C 28.763 41.387, 28 41.680, 28 42.477 M 39 42.500 C 39 43.417, 39.484 44.005, 40.075 43.808 C 40.666 43.611, 41.150 43.023, 41.150 42.500 C 41.150 41.977, 40.666 41.389, 40.075 41.192 C 39.484 40.995, 39 41.583, 39 42.500 M 65 42.094 C 65 42.592, 65.900 43, 67 43 C 68.100 43, 69 42.827, 69 42.617 C 69 42.406, 68.100 41.998, 67 41.710 C 65.900 41.423, 65 41.595, 65 42.094 M 79 42 C 79 42.550, 79.563 43.007, 80.250 43.015 C 81.097 43.026, 81.025 43.331, 80.029 43.961 C 79.220 44.473, 78.890 45.223, 79.296 45.629 C 80.441 46.775, 82.338 44.323, 81.664 42.567 C 81.001 40.840, 79 40.414, 79 42 M 19 43.487 C 19 44.932, 21.160 46, 24.082 46 C 27.191 46, 26.279 44.421, 22.500 43.261 C 19.745 42.416, 19 42.464, 19 43.487 M 43 43.532 C 43 44.340, 43.413 45, 43.918 45 C 44.423 45, 45.610 45.297, 46.555 45.659 C 47.720 46.106, 48.132 45.896, 47.835 45.005 C 47.160 42.980, 43 41.713, 43 43.532 M 50 42.335 C 50 42.593, 51.452 43.311, 53.227 43.929 C 55.002 44.548, 56.015 44.643, 55.477 44.140 C 54.338 43.074, 50 41.644, 50 42.335 M 58.500 43 C 58.840 43.550, 60.104 43.993, 61.309 43.985 C 63.090 43.972, 63.219 43.788, 62 43 C 60.030 41.727, 57.713 41.727, 58.500 43 M 6.682 44.387 C 6.308 45.360, 6.724 45.623, 8.075 45.270 C 10.289 44.691, 10.685 43, 8.607 43 C 7.841 43, 6.975 43.624, 6.682 44.387 M 33 43.941 C 33 45.334, 34.838 46.218, 36.107 45.434 C 36.878 44.957, 36.803 44.490, 35.857 43.890 C 34.072 42.759, 33 42.778, 33 43.941 M 70.500 44 C 70.840 44.550, 71.541 45, 72.059 45 C 72.577 45, 73 44.550, 73 44 C 73 43.450, 72.298 43, 71.441 43 C 70.584 43, 70.160 43.450, 70.500 44 M 84 44.089 C 84 46.008, 86.269 54.497, 87.001 55.315 C 87.584 55.967, 89.824 49.411, 90.089 46.278 C 90.257 44.285, 88.255 45.306, 87.239 47.733 L 86.079 50.500 86.591 47.377 C 86.959 45.136, 86.665 44.085, 85.552 43.658 C 84.698 43.331, 84 43.524, 84 44.089 M 104.500 44 C 104.840 44.550, 105.541 45, 106.059 45 C 106.577 45, 107 44.550, 107 44 C 107 43.450, 106.298 43, 105.441 43 C 104.584 43, 104.160 43.450, 104.500 44 M 125 43.957 C 125 45.180, 129.972 47.361, 130.822 46.511 C 131.588 45.745, 129.905 44.347, 127.250 43.545 C 125.875 43.130, 125 43.290, 125 43.957 M 11 45 C 11 45.550, 11.450 46, 12 46 C 12.550 46, 13 45.550, 13 45 C 13 44.450, 12.550 44, 12 44 C 11.450 44, 11 44.450, 11 45 M 49.432 45.111 C 48.614 46.434, 48.924 46.692, 52.382 47.560 C 54.525 48.097, 55.150 47.951, 54.829 46.987 C 54.238 45.214, 50.229 43.821, 49.432 45.111 M 57.515 45.024 C 58.179 46.099, 62 46.950, 62 46.023 C 62 45.589, 60.889 45.021, 59.530 44.761 C 58.172 44.501, 57.265 44.620, 57.515 45.024 M 64.813 44.683 C 65.534 44.972, 66.397 44.936, 66.729 44.604 C 67.061 44.272, 66.471 44.036, 65.417 44.079 C 64.252 44.127, 64.015 44.364, 64.813 44.683 M 93 45 C 93 45.550, 93.450 46, 94 46 C 94.550 46, 95 45.550, 95 45 C 95 44.450, 94.550 44, 94 44 C 93.450 44, 93 44.450, 93 45 M 108.444 45.285 C 107.504 47.735, 109.048 49.665, 110.242 47.532 C 110.881 46.390, 110.845 45.445, 110.136 44.736 C 109.375 43.975, 108.886 44.134, 108.444 45.285 M 14 46 C 14 46.550, 14.675 47, 15.500 47 C 16.325 47, 17 46.550, 17 46 C 17 45.450, 16.325 45, 15.500 45 C 14.675 45, 14 45.450, 14 46 M 27.218 46.154 C 27.464 46.895, 28.468 47.655, 29.448 47.846 C 30.588 48.066, 31.069 47.706, 30.782 46.846 C 30.536 46.105, 29.532 45.345, 28.552 45.154 C 27.412 44.934, 26.931 45.294, 27.218 46.154 M 38 46 C 38 46.550, 38.675 47, 39.500 47 C 40.325 47, 41 46.550, 41 46 C 41 45.450, 40.325 45, 39.500 45 C 38.675 45, 38 45.450, 38 46 M 96 46 C 96 46.550, 96.450 47, 97 47 C 97.550 47, 98 46.550, 98 46 C 98 45.450, 97.550 45, 97 45 C 96.450 45, 96 45.450, 96 46 M 103.768 46.168 C 104.350 46.750, 105.415 47.028, 106.137 46.788 C 106.886 46.538, 106.432 46.085, 105.080 45.731 C 103.417 45.296, 103.026 45.426, 103.768 46.168 M 111.269 48.475 C 110.634 50.544, 110.572 52, 111.118 52 C 112.479 52, 114.229 46.829, 113.213 45.813 C 112.730 45.330, 111.874 46.502, 111.269 48.475 M 17.607 47.582 C 16.661 50.046, 16.881 51, 18.393 51 C 19.703 51, 21 48.970, 21 46.918 C 21 45.365, 18.251 45.903, 17.607 47.582 M 42 46.933 C 42 48.099, 45.922 49.411, 46.796 48.537 C 47.546 47.787, 45.085 46.038, 43.250 46.015 C 42.563 46.007, 42 46.420, 42 46.933 M 64 47.031 C 64 47.564, 64.675 48, 65.500 48 C 66.325 48, 67 47.823, 67 47.607 C 67 47.391, 66.325 46.955, 65.500 46.638 C 64.675 46.322, 64 46.499, 64 47.031 M 71.500 47 C 71.840 47.550, 72.316 48, 72.559 48 C 72.802 48, 73 47.550, 73 47 C 73 46.450, 72.523 46, 71.941 46 C 71.359 46, 71.160 46.450, 71.500 47 M 80.750 46.757 C 79.787 46.971, 79 47.564, 79 48.073 C 79 49.351, 81.732 49.243, 82.541 47.933 C 83.384 46.569, 82.932 46.272, 80.750 46.757 M 99.240 47.220 C 99.458 47.874, 101.112 49.011, 102.916 49.747 C 105.197 50.678, 106.079 50.738, 105.815 49.944 C 105.605 49.316, 103.951 48.178, 102.139 47.416 C 99.763 46.417, 98.954 46.363, 99.240 47.220 M 10.500 48 C 10.840 48.550, 11.316 49, 11.559 49 C 11.802 49, 12 48.550, 12 48 C 12 47.450, 11.523 47, 10.941 47 C 10.359 47, 10.160 47.450, 10.500 48 M 22 48 C 22 48.550, 22.477 49, 23.059 49 C 23.641 49, 23.840 48.550, 23.500 48 C 23.160 47.450, 22.684 47, 22.441 47 C 22.198 47, 22 47.450, 22 48 M 32 47.893 C 32 49.472, 34.815 49.924, 35.386 48.437 C 35.750 47.488, 35.269 47, 33.969 47 C 32.886 47, 32 47.402, 32 47.893 M 56 47.933 C 56 49.198, 59.713 50.296, 61.098 49.440 C 61.883 48.955, 61.811 48.495, 60.857 47.890 C 59.043 46.741, 56 46.768, 56 47.933 M 94.733 48.124 C 95.412 48.808, 96.219 49.115, 96.526 48.807 C 96.834 48.499, 96.279 47.940, 95.293 47.564 C 93.868 47.022, 93.753 47.136, 94.733 48.124 M 116.035 48.934 C 114.765 51.308, 114.638 54.795, 115.871 53.450 C 116.878 52.351, 118.275 47, 117.554 47 C 117.288 47, 116.605 47.870, 116.035 48.934 M 124 47.892 C 124 48.973, 128.991 50.343, 129.839 49.494 C 130.650 48.683, 127.930 47.034, 125.750 47.015 C 124.787 47.007, 124 47.401, 124 47.892 M 5.597 48.844 C 5.251 49.404, 5.455 50.163, 6.050 50.531 C 7.588 51.481, 8.580 50.180, 7.296 48.896 C 6.578 48.178, 6.019 48.161, 5.597 48.844 M 13.500 49 C 13.840 49.550, 14.541 50, 15.059 50 C 15.577 50, 16 49.550, 16 49 C 16 48.450, 15.298 48, 14.441 48 C 13.584 48, 13.160 48.450, 13.500 49 M 26 49.594 C 26 50.367, 26.900 51, 28 51 C 29.100 51, 30 50.602, 30 50.117 C 30 49.631, 29.100 48.998, 28 48.710 C 26.700 48.370, 26 48.680, 26 49.594 M 36.543 48.931 C 36.226 49.443, 36.425 50.144, 36.984 50.490 C 38.177 51.227, 40 50.291, 40 48.941 C 40 47.724, 37.293 47.716, 36.543 48.931 M 48 48.873 C 48 50.109, 52.766 51.567, 53.713 50.620 C 54.582 49.751, 53.915 49.268, 50.748 48.473 C 49.010 48.037, 48 48.184, 48 48.873 M 69.500 49 C 72.249 50.181, 73.828 50.181, 72 49 C 71.175 48.467, 69.825 48.055, 69 48.086 C 68.011 48.122, 68.181 48.433, 69.500 49 M 92 49.500 C 92.685 50.325, 93.695 51, 94.245 51 C 94.803 51, 94.694 50.337, 94 49.500 C 93.315 48.675, 92.305 48, 91.755 48 C 91.197 48, 91.306 48.663, 92 49.500 M 40.698 50.344 C 40.342 51.273, 40.930 52.015, 42.319 52.388 C 45.553 53.255, 46 53.147, 46 51.500 C 46 50.675, 45.587 50, 45.082 50 C 44.577 50, 43.510 49.749, 42.711 49.443 C 41.912 49.136, 41.006 49.542, 40.698 50.344 M 62.570 49.886 C 62.269 50.374, 62.917 51.007, 64.011 51.293 C 65.300 51.630, 66 51.318, 66 50.406 C 66 48.861, 63.443 48.474, 62.570 49.886 M 82 49.658 C 81.175 49.933, 79.838 50.372, 79.028 50.633 C 77.732 51.051, 77.732 51.219, 79.028 52.038 C 81.173 53.395, 81.807 53.229, 83 51 C 83.589 49.900, 83.942 49.036, 83.785 49.079 C 83.628 49.122, 82.825 49.383, 82 49.658 M 98 50.030 C 98 51.279, 102.180 54.007, 103.163 53.399 C 104.714 52.441, 104.017 51.445, 101 50.306 C 99.350 49.683, 98 49.559, 98 50.030 M 9 51 C 9 51.550, 9.450 52, 10 52 C 10.550 52, 11 51.550, 11 51 C 11 50.450, 10.550 50, 10 50 C 9.450 50, 9 50.450, 9 51 M 12 51.531 C 12 52.339, 12.675 53, 13.500 53 C 14.325 53, 15 52.598, 15 52.107 C 15 51.616, 14.325 50.955, 13.500 50.638 C 12.586 50.288, 12 50.637, 12 51.531 M 31 51 C 31 51.550, 31.450 52, 32 52 C 32.550 52, 33 51.550, 33 51 C 33 50.450, 32.550 50, 32 50 C 31.450 50, 31 50.450, 31 51 M 67.507 50.989 C 67.157 51.555, 67.558 51.723, 68.448 51.382 C 70.180 50.717, 70.497 50, 69.059 50 C 68.541 50, 67.843 50.445, 67.507 50.989 M 107.500 51 C 107.840 51.550, 108.316 52, 108.559 52 C 108.802 52, 109 51.550, 109 51 C 109 50.450, 108.523 50, 107.941 50 C 107.359 50, 107.160 50.450, 107.500 51 M 123 50.924 C 123 52.464, 127.255 54.022, 128.433 52.912 C 129.633 51.782, 129.124 51.320, 125.748 50.473 C 123.954 50.023, 123 50.179, 123 50.924 M 47 52.324 C 47 53.127, 48.178 54.079, 49.618 54.440 C 54.351 55.628, 54.015 52.985, 49.250 51.545 C 47.634 51.057, 47 51.276, 47 52.324 M 89.768 52.780 C 89.512 53.758, 89.890 55.108, 90.609 55.780 C 93.574 58.549, 96.167 55.947, 93.443 52.937 C 91.267 50.533, 90.366 50.494, 89.768 52.780 M 16 53 C 16 53.550, 16.675 54, 17.500 54 C 18.325 54, 19 53.550, 19 53 C 19 52.450, 18.325 52, 17.500 52 C 16.675 52, 16 52.450, 16 53 M 25.500 53 C 25.840 53.550, 26.793 54, 27.618 54 C 28.443 54, 28.840 53.550, 28.500 53 C 28.160 52.450, 27.207 52, 26.382 52 C 25.557 52, 25.160 52.450, 25.500 53 M 35.800 53.200 C 36.733 54.133, 37.267 54.133, 38.200 53.200 C 39.133 52.267, 38.867 52, 37 52 C 35.133 52, 34.867 52.267, 35.800 53.200 M 62.188 53.063 C 62.428 53.784, 63.216 54.572, 63.938 54.813 C 64.688 55.063, 65.063 54.688, 64.813 53.938 C 64.572 53.216, 63.784 52.428, 63.063 52.188 C 62.313 51.938, 61.938 52.313, 62.188 53.063 M 95.510 53.016 C 95.856 53.575, 96.557 53.774, 97.069 53.457 C 98.456 52.600, 98.198 52, 96.441 52 C 95.584 52, 95.165 52.457, 95.510 53.016 M 104.955 53.554 C 103.589 55.200, 104.665 57.340, 106.319 56.266 C 106.969 55.845, 108.279 55.500, 109.231 55.500 C 111.824 55.500, 111.315 53.594, 108.522 52.848 C 106.986 52.437, 105.666 52.698, 104.955 53.554 M 8.500 54 C 8.840 54.550, 9.316 55, 9.559 55 C 9.802 55, 10 54.550, 10 54 C 10 53.450, 9.523 53, 8.941 53 C 8.359 53, 8.160 53.450, 8.500 54 M 20 54 C 20 54.550, 20.450 55, 21 55 C 21.550 55, 22 54.550, 22 54 C 22 53.450, 21.550 53, 21 53 C 20.450 53, 20 53.450, 20 54 M 30 54.094 C 30 54.592, 30.900 55, 32 55 C 33.100 55, 34 54.827, 34 54.617 C 34 54.406, 33.100 53.998, 32 53.710 C 30.900 53.423, 30 53.595, 30 54.094 M 40 53.865 C 40 55.041, 43.880 56.453, 44.742 55.591 C 45.511 54.822, 44.994 54.400, 42.250 53.557 C 40.956 53.159, 40 53.290, 40 53.865 M 54 54.383 C 54 56.067, 58.101 57.299, 59.396 56.004 C 59.969 55.431, 59.280 54.677, 57.598 54.037 C 54.119 52.715, 54 52.726, 54 54.383 M 122 54.435 C 122 56.019, 126.102 57.298, 127.309 56.091 C 127.772 55.628, 126.767 54.766, 125.076 54.176 C 122.645 53.329, 122 53.383, 122 54.435 M 11.500 55 C 11.840 55.550, 12.541 56, 13.059 56 C 13.577 56, 14 55.550, 14 55 C 14 54.450, 13.298 54, 12.441 54 C 11.584 54, 11.160 54.450, 11.500 55 M 24 55.500 C 24 56.333, 24.889 57, 26 57 C 28.384 57, 28.653 55.464, 26.418 54.607 C 24.183 53.749, 24 53.817, 24 55.500 M 98.188 55.063 C 98.428 55.784, 99.216 56.572, 99.938 56.813 C 100.688 57.063, 101.063 56.688, 100.813 55.938 C 100.572 55.216, 99.784 54.428, 99.063 54.188 C 98.313 53.938, 97.938 54.313, 98.188 55.063 M 113.278 55.333 C 113.789 56.867, 125.152 60.248, 126.218 59.182 C 126.685 58.715, 123.879 57.404, 119.983 56.267 C 115.523 54.966, 113.040 54.620, 113.278 55.333 M 130.813 54.683 C 131.534 54.972, 132.397 54.936, 132.729 54.604 C 133.061 54.272, 132.471 54.036, 131.417 54.079 C 130.252 54.127, 130.015 54.364, 130.813 54.683 M 15 56 C 15 56.550, 15.702 57, 16.559 57 C 17.416 57, 17.840 56.550, 17.500 56 C 17.160 55.450, 16.459 55, 15.941 55 C 15.423 55, 15 55.450, 15 56 M 35.500 56 C 35.840 56.550, 36.541 57, 37.059 57 C 37.577 57, 38 56.550, 38 56 C 38 55.450, 37.298 55, 36.441 55 C 35.584 55, 35.160 55.450, 35.500 56 M 46 55.873 C 46 57.109, 50.766 58.567, 51.713 57.620 C 52.582 56.751, 51.915 56.268, 48.748 55.473 C 47.010 55.037, 46 55.184, 46 55.873 M 61 56.283 C 61 58.105, 68.859 60.541, 70.250 59.150 C 70.922 58.478, 69.808 57.757, 66.877 56.971 C 64.470 56.326, 62.163 55.591, 61.750 55.340 C 61.337 55.088, 61 55.512, 61 56.283 M 69.500 56 C 69.840 56.550, 70.316 57, 70.559 57 C 70.802 57, 71 56.550, 71 56 C 71 55.450, 70.523 55, 69.941 55 C 69.359 55, 69.160 55.450, 69.500 56 M 83 55.893 C 83 56.384, 83.652 57.036, 84.449 57.342 C 85.418 57.714, 85.714 57.418, 85.342 56.449 C 84.735 54.867, 83 54.455, 83 55.893 M 7.500 57 C 7.840 57.550, 8.316 58, 8.559 58 C 8.802 58, 9 57.550, 9 57 C 9 56.450, 8.523 56, 7.941 56 C 7.359 56, 7.160 56.450, 7.500 57 M 19 57 C 19 57.550, 19.477 58, 20.059 58 C 20.641 58, 20.840 57.550, 20.500 57 C 20.160 56.450, 19.684 56, 19.441 56 C 19.198 56, 19 56.450, 19 57 M 29 56.893 C 29 57.997, 31.595 59.072, 32.375 58.292 C 32.689 57.978, 32.706 57.334, 32.414 56.861 C 31.712 55.725, 29 55.750, 29 56.893 M 39 56.816 C 39 57.838, 43.109 59.224, 43.873 58.460 C 44.509 57.824, 43.875 57.364, 41.250 56.557 C 40.009 56.175, 39 56.292, 39 56.816 M 88.583 56.866 C 88.152 57.563, 88.070 58.403, 88.400 58.733 C 89.295 59.628, 90.271 58.312, 89.787 56.862 C 89.449 55.846, 89.213 55.846, 88.583 56.866 M 96 57.319 C 96 59.185, 97.631 60.406, 98.420 59.130 C 98.727 58.633, 98.308 57.671, 97.489 56.991 C 96.278 55.986, 96 56.047, 96 57.319 M 10.500 58 C 10.840 58.550, 11.541 59, 12.059 59 C 12.577 59, 13 58.550, 13 58 C 13 57.450, 12.298 57, 11.441 57 C 10.584 57, 10.160 57.450, 10.500 58 M 34 58.531 C 34 59.339, 34.675 60, 35.500 60 C 36.325 60, 37 59.598, 37 59.107 C 37 58.616, 36.325 57.955, 35.500 57.638 C 34.586 57.288, 34 57.637, 34 58.531 M 101.597 57.844 C 101.251 58.404, 101.455 59.163, 102.050 59.531 C 103.588 60.481, 104.580 59.180, 103.296 57.896 C 102.578 57.178, 102.019 57.161, 101.597 57.844 M 107 57.878 C 107 58.360, 107.675 59.315, 108.500 60 C 109.753 61.040, 110 60.896, 110 59.122 C 110 57.902, 109.362 57, 108.500 57 C 107.675 57, 107 57.395, 107 57.878 M 112 58.532 C 112 59.340, 112.675 60, 113.500 60 C 114.325 60, 115.225 60, 115.500 60 C 116.876 60, 115.892 58.504, 114.074 57.832 C 112.569 57.275, 112 57.467, 112 58.532 M 14 58.921 C 14 59.984, 19.862 61.471, 20.710 60.623 C 21.022 60.311, 20.061 59.593, 18.574 59.028 C 15.232 57.757, 14 57.728, 14 58.921 M 23.500 59 C 23.840 59.550, 24.766 60, 25.559 60 C 26.352 60, 27 59.550, 27 59 C 27 58.450, 26.073 58, 24.941 58 C 23.809 58, 23.160 58.450, 23.500 59 M 45 58.892 C 45 59.911, 49.968 61.365, 50.757 60.577 C 51.043 60.290, 50.061 59.593, 48.574 59.028 C 45.276 57.774, 45 57.764, 45 58.892 M 92.702 58.631 C 92.355 58.979, 92.546 60.152, 93.128 61.239 C 94.382 63.582, 96.399 62.203, 95.426 59.667 C 94.759 57.929, 93.778 57.556, 92.702 58.631 M 6.550 59.888 C 8.063 61.301, 12 62.231, 12 61.174 C 12 60.082, 9.620 59, 7.218 59 C 6.229 59, 5.969 59.345, 6.550 59.888 M 28.538 59.939 C 28.248 60.407, 28.669 61.043, 29.474 61.352 C 30.278 61.660, 31.173 61.529, 31.462 61.061 C 31.752 60.593, 31.331 59.957, 30.526 59.648 C 29.722 59.340, 28.827 59.471, 28.538 59.939 M 38 59.933 C 38 61.099, 41.922 62.411, 42.796 61.537 C 43.546 60.787, 41.085 59.038, 39.250 59.015 C 38.563 59.007, 38 59.420, 38 59.933 M 59.565 59.895 C 58.896 60.977, 61.802 62.240, 63.107 61.434 C 63.616 61.119, 63.774 60.443, 63.457 59.931 C 62.725 58.746, 60.289 58.723, 59.565 59.895 M 118 60.445 C 118 61.730, 123.839 63.494, 124.826 62.507 C 125.610 61.724, 124.558 61.020, 121.136 60.039 C 118.764 59.359, 118 59.457, 118 60.445 M 127.592 59.852 C 127.104 60.641, 133.302 63, 135.866 63 C 138.432 63, 136.738 61.238, 133.134 60.158 C 128.511 58.773, 128.267 58.760, 127.592 59.852 M 22.276 61.329 C 22.755 62.767, 26 63.518, 26 62.190 C 26 61.664, 25.074 60.991, 23.943 60.695 C 22.634 60.353, 22.028 60.584, 22.276 61.329 M 52 60.826 C 52 61.918, 54.380 63, 56.782 63 C 58.858 63, 57.266 61.456, 54.250 60.545 C 53.007 60.169, 52 60.295, 52 60.826 M 65 61.532 C 65 62.984, 67.752 64.271, 69.090 63.444 C 70.740 62.425, 70.040 61.241, 67.500 60.755 C 65.908 60.451, 65 60.733, 65 61.532 M 75 60.883 C 75 62.061, 78.863 63.031, 79.493 62.011 C 79.766 61.570, 79.279 60.937, 78.412 60.605 C 76.197 59.755, 75 59.852, 75 60.883 M 89 60.435 C 89 60.674, 89.467 62.097, 90.037 63.598 C 90.765 65.512, 91.389 66.011, 92.130 65.270 C 92.870 64.530, 92.849 63.586, 92.057 62.107 C 91.085 60.291, 89 59.150, 89 60.435 M 99 61 C 99 61.550, 99.702 62, 100.559 62 C 101.416 62, 101.840 61.550, 101.500 61 C 101.160 60.450, 100.459 60, 99.941 60 C 99.423 60, 99 60.450, 99 61 M 106 60.378 C 106 60.585, 106.787 61.373, 107.750 62.128 C 109.336 63.371, 109.371 63.336, 108.128 61.750 C 106.821 60.084, 106 59.555, 106 60.378 M 13 61.921 C 13 62.984, 18.862 64.471, 19.710 63.623 C 20.022 63.311, 19.061 62.593, 17.574 62.028 C 14.232 60.757, 13 60.728, 13 61.921 M 33 62 C 33 62.550, 33.675 63, 34.500 63 C 35.325 63, 36 62.550, 36 62 C 36 61.450, 35.325 61, 34.500 61 C 33.675 61, 33 61.450, 33 62 M 44 61.873 C 44 63.109, 48.766 64.567, 49.713 63.620 C 50.582 62.751, 49.915 62.268, 46.748 61.473 C 45.010 61.037, 44 61.184, 44 61.873 M 111.500 62 C 111.840 62.550, 113.104 62.993, 114.309 62.985 C 116.090 62.972, 116.219 62.788, 115 62 C 113.030 60.727, 110.713 60.727, 111.500 62 M 27.473 63.044 C 27.148 63.570, 27.097 64, 27.359 64 C 27.622 64, 28.548 64.273, 29.418 64.607 C 30.288 64.941, 31 64.764, 31 64.214 C 31 62.815, 28.191 61.883, 27.473 63.044 M 38 63 C 38.825 63.533, 40.175 63.945, 41 63.914 C 41.989 63.878, 41.819 63.567, 40.500 63 C 37.751 61.819, 36.172 61.819, 38 63 M 69.548 67.152 C 67.558 73.852, 67.527 73.665, 70.750 74.470 C 72.263 74.847, 74.259 75.840, 75.187 76.676 C 76.115 77.512, 77.352 77.900, 77.937 77.539 C 78.522 77.178, 79 77.359, 79 77.941 C 79 78.523, 78.662 79.003, 78.250 79.007 C 77.838 79.011, 77.409 81.025, 77.298 83.483 C 77.187 85.940, 76.609 88.862, 76.013 89.976 C 75.188 91.517, 75.236 92.017, 76.215 92.070 C 76.922 92.109, 76.650 92.474, 75.612 92.882 C 74.072 93.487, 74.578 93.949, 78.362 95.394 C 83.360 97.303, 83.504 97.544, 82.009 101.475 C 81.141 103.759, 80.755 103.939, 78.882 102.937 C 76.424 101.621, 75.041 102.968, 75.015 106.703 C 75.004 108.398, 75.854 109.142, 78.706 109.929 C 83.118 111.148, 83.318 110.925, 85.024 102.889 C 87.190 92.680, 84.722 82.286, 78.023 73.414 C 75.859 70.548, 73.794 67.029, 73.434 65.593 C 72.336 61.220, 71.170 61.688, 69.548 67.152 M 81 62.883 C 81 64.054, 85.559 64.891, 87.020 63.988 C 87.739 63.543, 87.296 63.044, 85.835 62.652 C 82.567 61.777, 81 61.852, 81 62.883 M 96.598 62.736 C 95.487 63.847, 95.991 64.764, 98 65.290 C 99.242 65.615, 100 65.320, 100 64.513 C 100 63.077, 97.541 61.792, 96.598 62.736 M 126.543 62.930 C 125.859 64.038, 130.710 65.624, 131.713 64.620 C 132.506 63.827, 132.015 63.407, 129.334 62.584 C 128.143 62.218, 126.887 62.374, 126.543 62.930 M 21.276 64.329 C 21.755 65.767, 25 66.518, 25 65.190 C 25 64.664, 24.074 63.991, 22.943 63.695 C 21.634 63.353, 21.028 63.584, 21.276 64.329 M 51 63.962 C 51 65.134, 55.805 66.529, 56.713 65.620 C 57.553 64.780, 56.986 64.398, 53.750 63.622 C 52.144 63.236, 51 63.378, 51 63.962 M 75.508 65.250 C 75.862 66.487, 77.848 69.975, 79.922 73 C 86.800 83.035, 89.015 93.244, 86.608 103.824 C 85.724 107.713, 85 111.132, 85 111.422 C 85 112.066, 91.082 115.277, 91.444 114.824 C 91.585 114.646, 93.456 109.550, 95.601 103.500 C 99.666 92.033, 100.180 86.702, 97.179 87.147 C 95.116 87.453, 87.867 85.135, 86.500 83.732 C 85.822 83.036, 86.064 82.904, 87.250 83.322 C 88.882 83.896, 88.899 83.694, 87.500 80.347 C 85.653 75.925, 85.651 76, 87.583 76 C 88.454 76, 88.960 75.438, 88.708 74.750 C 88.230 73.444, 87.793 73.421, 84.500 74.519 C 82.861 75.066, 82.948 74.821, 84.985 73.161 C 87.911 70.777, 87.167 69.305, 83.915 71.046 C 82.007 72.067, 81.449 71.967, 80.303 70.400 C 79.118 68.779, 79.234 68.315, 81.224 66.689 C 83.348 64.954, 83.365 64.859, 81.470 65.264 C 80.354 65.502, 78.874 65.091, 78.181 64.349 C 76.222 62.251, 74.789 62.734, 75.508 65.250 M 110 64 C 110 64.550, 110.477 65, 111.059 65 C 111.641 65, 111.840 64.550, 111.500 64 C 111.160 63.450, 110.684 63, 110.441 63 C 110.198 63, 110 63.450, 110 64 M 117.750 63.662 C 118.438 63.940, 119.563 63.940, 120.250 63.662 C 120.938 63.385, 120.375 63.158, 119 63.158 C 117.625 63.158, 117.063 63.385, 117.750 63.662 M 32 64.393 C 32 64.609, 32.675 65.045, 33.500 65.362 C 34.325 65.678, 35 65.501, 35 64.969 C 35 64.436, 34.325 64, 33.500 64 C 32.675 64, 32 64.177, 32 64.393 M 36 64.826 C 36 65.918, 38.380 67, 40.782 67 C 42.858 67, 41.266 65.456, 38.250 64.545 C 37.007 64.169, 36 64.295, 36 64.826 M 44.483 64.973 C 44.750 65.405, 45.876 65.996, 46.986 66.286 C 48.095 66.576, 48.784 66.460, 48.517 66.027 C 48.250 65.595, 47.124 65.004, 46.014 64.714 C 44.905 64.424, 44.216 64.540, 44.483 64.973 M 64 64.776 C 64 66.101, 67.848 67.055, 68.558 65.906 C 68.866 65.408, 68.678 65, 68.141 65 C 67.603 65, 66.452 64.727, 65.582 64.393 C 64.712 64.059, 64 64.232, 64 64.776 M 102.813 64.683 C 103.534 64.972, 104.397 64.936, 104.729 64.604 C 105.061 64.272, 104.471 64.036, 103.417 64.079 C 102.252 64.127, 102.015 64.364, 102.813 64.683 M 12 65.996 C 12 67.138, 17.853 69.047, 18.440 68.097 C 18.707 67.665, 17.367 66.834, 15.462 66.250 C 13.558 65.665, 12 65.551, 12 65.996 M 26.543 65.930 C 26.257 66.393, 26.917 67.007, 28.011 67.293 C 29.105 67.579, 30 67.453, 30 67.013 C 30 65.838, 27.152 64.946, 26.543 65.930 M 58 66.031 C 58 67.320, 60.849 68.484, 61.764 67.569 C 62.137 67.196, 61.780 66.473, 60.971 65.961 C 59.035 64.737, 58 64.761, 58 66.031 M 87 66.469 C 87 67.361, 87.587 67.712, 88.494 67.364 C 89.316 67.048, 89.740 66.388, 89.435 65.895 C 88.563 64.483, 87 64.851, 87 66.469 M 116.550 65.914 C 117.458 66.787, 121.383 67.423, 123.500 67.040 C 125.131 66.745, 120.709 65.147, 118.050 65.070 C 116.545 65.027, 115.967 65.353, 116.550 65.914 M 125.181 66.699 C 125.555 68.643, 128.193 69.524, 130.726 68.552 C 132.753 67.774, 131.410 66.473, 127.669 65.590 C 125.308 65.032, 124.895 65.216, 125.181 66.699 M 20.768 67.168 C 21.350 67.750, 22.415 68.028, 23.137 67.788 C 23.886 67.538, 23.432 67.085, 22.080 66.731 C 20.417 66.296, 20.026 66.426, 20.768 67.168 M 31.188 67.063 C 31.428 67.784, 32.216 68.572, 32.938 68.813 C 33.688 69.063, 34.063 68.688, 33.813 67.938 C 33.572 67.216, 32.784 66.428, 32.063 66.188 C 31.313 65.938, 30.938 66.313, 31.188 67.063 M 43 66.987 C 43 67.816, 45.435 69, 47.141 69 C 47.678 69, 47.873 68.604, 47.575 68.121 C 46.841 66.934, 43 65.982, 43 66.987 M 50 66.335 C 50 66.593, 51.452 67.311, 53.227 67.929 C 55.002 68.548, 56.015 68.643, 55.477 68.140 C 54.338 67.074, 50 65.644, 50 66.335 M 92.439 67.317 C 91.580 69.533, 93.528 71.872, 95.004 70.396 C 95.675 69.725, 95.534 68.749, 94.575 67.446 C 93.210 65.591, 93.110 65.585, 92.439 67.317 M 96.015 66.750 C 96.024 67.162, 96.449 68.162, 96.961 68.971 C 98.113 70.793, 99.465 69.653, 98.655 67.543 C 98.057 65.985, 95.987 65.363, 96.015 66.750 M 109 67 C 109 67.550, 110.237 67.993, 111.750 67.985 C 113.893 67.973, 114.169 67.755, 113 67 C 111.043 65.736, 109 65.736, 109 67 M 35.442 68.094 C 35.134 68.592, 35.246 69.006, 35.691 69.014 C 36.136 69.021, 37.583 69.317, 38.906 69.671 C 40.452 70.085, 41.084 69.944, 40.672 69.278 C 39.776 67.829, 36.118 67, 35.442 68.094 M 63 67.933 C 63 69.099, 66.922 70.411, 67.796 69.537 C 68.546 68.787, 66.085 67.038, 64.250 67.015 C 63.563 67.007, 63 67.420, 63 67.933 M 11.500 68.817 C 12.050 69.390, 13.850 70.144, 15.500 70.492 C 17.572 70.930, 18.036 70.835, 17 70.184 C 14.568 68.656, 10.336 67.604, 11.500 68.817 M 26.500 69 C 26.840 69.550, 27.568 70, 28.118 70 C 28.668 70, 28.840 69.550, 28.500 69 C 28.160 68.450, 27.432 68, 26.882 68 C 26.332 68, 26.160 68.450, 26.500 69 M 49.507 68.989 C 49.234 69.430, 49.721 70.063, 50.588 70.395 C 52.913 71.287, 55.198 71.130, 54.575 70.121 C 53.798 68.864, 50.095 68.037, 49.507 68.989 M 57 68.987 C 57 69.678, 59.352 71, 60.582 71 C 61.946 71, 60.665 69.146, 59 68.710 C 57.900 68.423, 57 68.547, 57 68.987 M 88.357 69.513 C 87.688 71.255, 89.633 74, 91.536 74 C 92.555 74, 92.588 73.369, 91.694 71 C 90.452 67.709, 89.254 67.175, 88.357 69.513 M 100 69.383 C 100 70.144, 101.237 71.010, 102.750 71.306 C 106.029 71.950, 108.213 70.378, 105.992 68.974 C 103.743 67.552, 100 67.808, 100 69.383 M 115.750 68.662 C 116.438 68.940, 117.563 68.940, 118.250 68.662 C 118.938 68.385, 118.375 68.158, 117 68.158 C 115.625 68.158, 115.063 68.385, 115.750 68.662 M 20 69.383 C 20 69.594, 20.901 70.002, 22.001 70.290 C 23.102 70.578, 23.751 70.405, 23.442 69.907 C 22.904 69.036, 20 68.594, 20 69.383 M 42 69.826 C 42 70.918, 44.380 72, 46.782 72 C 48.858 72, 47.266 70.456, 44.250 69.545 C 43.007 69.169, 42 69.295, 42 69.826 M 108.425 69.879 C 109.424 71.495, 113 71.907, 113 70.406 C 113 69.564, 111.973 69, 110.441 69 C 109.034 69, 108.127 69.396, 108.425 69.879 M 121.500 70 C 124.231 71.174, 125 71.174, 125 70 C 125 69.450, 123.763 69.032, 122.250 69.070 C 119.813 69.133, 119.728 69.238, 121.500 70 M 25.733 71.124 C 26.412 71.808, 27.219 72.115, 27.526 71.807 C 27.834 71.499, 27.279 70.940, 26.293 70.564 C 24.868 70.022, 24.753 70.136, 25.733 71.124 M 30 71.500 C 30 72.325, 30.675 73, 31.500 73 C 32.325 73, 33 72.325, 33 71.500 C 33 70.675, 32.325 70, 31.500 70 C 30.675 70, 30 70.675, 30 71.500 M 62 70.816 C 62 71.838, 66.109 73.224, 66.873 72.460 C 67.509 71.824, 66.875 71.364, 64.250 70.557 C 63.009 70.175, 62 70.292, 62 70.816 M 114.570 70.886 C 114.269 71.374, 114.891 72, 115.953 72.278 C 118.094 72.837, 119.231 72.183, 118.414 70.861 C 117.719 69.737, 115.270 69.754, 114.570 70.886 M 127 71 C 128.970 72.273, 131.287 72.273, 130.500 71 C 130.160 70.450, 128.896 70.007, 127.691 70.015 C 125.910 70.028, 125.781 70.212, 127 71 M 12.866 72.541 C 14.718 73.399, 16.480 73.853, 16.783 73.550 C 17.684 72.650, 16.558 72.052, 12.927 71.501 L 9.500 70.982 12.866 72.541 M 20 72 C 21.958 73.266, 23.282 73.266, 22.500 72 C 22.160 71.450, 21.121 71.007, 20.191 71.015 C 18.734 71.029, 18.707 71.165, 20 72 M 49.271 72.329 C 49.483 72.973, 50.684 73.650, 51.939 73.834 C 54.706 74.239, 53.891 72.466, 50.958 71.699 C 49.638 71.354, 49.026 71.582, 49.271 72.329 M 56 71.893 C 56 73.002, 59.076 74.257, 59.864 73.469 C 60.182 73.151, 59.780 72.473, 58.971 71.961 C 57.101 70.778, 56 70.753, 56 71.893 M 120 71.786 C 120 73.298, 123.191 74.209, 124.367 73.033 C 125.078 72.322, 125.051 72, 124.282 72 C 123.667 72, 122.452 71.727, 121.582 71.393 C 120.712 71.059, 120 71.236, 120 71.786 M 132.500 72 C 132.840 72.550, 133.879 72.993, 134.809 72.985 C 136.266 72.971, 136.293 72.835, 135 72 C 133.042 70.734, 131.718 70.734, 132.500 72 M 41 72.892 C 41 73.911, 45.968 75.365, 46.757 74.577 C 47.043 74.290, 46.061 73.593, 44.574 73.028 C 41.276 71.774, 41 71.764, 41 72.892 M 94.177 73.667 C 94.663 76.176, 97 76.520, 97 74.083 C 97 72.855, 96.354 72, 95.427 72 C 94.495 72, 93.985 72.680, 94.177 73.667 M 97.972 76.105 C 97.364 78.362, 97.107 80.837, 97.402 81.605 C 98.324 84.008, 100.024 83.131, 100.666 79.922 C 101.061 77.943, 102.124 76.523, 103.641 75.947 C 106.617 74.815, 106.663 73.411, 103.750 72.630 C 99.734 71.554, 99.094 71.939, 97.972 76.105 M 108 73 C 108.825 73.533, 110.400 73.969, 111.500 73.969 C 113.156 73.969, 113.242 73.803, 112 73 C 111.175 72.467, 109.600 72.031, 108.500 72.031 C 106.844 72.031, 106.758 72.197, 108 73 M 126.276 73.329 C 126.755 74.767, 130 75.518, 130 74.190 C 130 73.664, 129.074 72.991, 127.943 72.695 C 126.634 72.353, 126.028 72.584, 126.276 73.329 M 9.500 73.817 C 10.050 74.390, 11.850 75.144, 13.500 75.492 C 15.572 75.930, 16.036 75.835, 15 75.184 C 12.568 73.656, 8.336 72.604, 9.500 73.817 M 18 73.883 C 18 74.369, 18.900 75.002, 20 75.290 C 22.362 75.907, 22.714 74.488, 20.418 73.607 C 18.319 72.801, 18 72.838, 18 73.883 M 24.750 73.662 C 25.438 73.940, 26.563 73.940, 27.250 73.662 C 27.938 73.385, 27.375 73.158, 26 73.158 C 24.625 73.158, 24.063 73.385, 24.750 73.662 M 35 74 C 35.825 74.533, 37.175 74.945, 38 74.914 C 38.989 74.878, 38.819 74.567, 37.500 74 C 34.751 72.819, 33.172 72.819, 35 74 M 61 73.883 C 61 74.898, 65.153 76.181, 65.927 75.406 C 66.574 74.759, 63.923 73.036, 62.250 73.015 C 61.563 73.007, 61 73.398, 61 73.883 M 114 73.977 C 114 74.411, 114.900 75.002, 116 75.290 C 117.100 75.577, 118 75.457, 118 75.023 C 118 74.589, 117.100 73.998, 116 73.710 C 114.900 73.423, 114 73.543, 114 73.977 M 29.500 75 C 29.840 75.550, 30.541 76, 31.059 76 C 31.577 76, 32 75.550, 32 75 C 32 74.450, 31.298 74, 30.441 74 C 29.584 74, 29.160 74.450, 29.500 75 M 48 75.032 C 48 75.811, 50.466 77, 52.082 77 C 54.105 77, 52.838 75.202, 50.500 74.755 C 49.125 74.492, 48 74.617, 48 75.032 M 55 74.893 C 55 76.002, 58.076 77.257, 58.864 76.469 C 59.182 76.151, 58.780 75.473, 57.971 74.961 C 56.101 73.778, 55 73.753, 55 74.893 M 107 75.094 C 107 75.592, 107.413 76, 107.918 76 C 108.423 76, 109.622 76.301, 110.582 76.670 C 111.680 77.091, 112.087 76.950, 111.680 76.291 C 110.825 74.908, 107 73.930, 107 75.094 M 131.500 75 C 131.840 75.550, 132.991 76, 134.059 76 C 135.127 76, 136 75.550, 136 75 C 136 74.450, 134.848 74, 133.441 74 C 131.990 74, 131.149 74.433, 131.500 75 M 24 76 C 24 76.550, 24.702 77, 25.559 77 C 26.416 77, 26.840 76.550, 26.500 76 C 26.160 75.450, 25.459 75, 24.941 75 C 24.423 75, 24 75.450, 24 76 M 33 75.816 C 33 76.838, 37.109 78.224, 37.873 77.460 C 38.509 76.824, 37.875 76.364, 35.250 75.557 C 34.009 75.175, 33 75.292, 33 75.816 M 41 76 C 41.825 76.533, 43.400 76.945, 44.500 76.914 L 46.500 76.859 44.500 76 C 43.400 75.527, 41.825 75.116, 41 75.086 C 39.667 75.037, 39.667 75.138, 41 76 M 67 76 C 67 76.550, 67.675 77, 68.500 77 C 69.325 77, 70 76.550, 70 76 C 70 75.450, 69.325 75, 68.500 75 C 67.675 75, 67 75.450, 67 76 M 91.822 75.512 C 90.813 76.520, 94.421 85.980, 95.817 85.990 C 96.724 85.997, 96.918 85.298, 96.440 83.750 C 95.252 79.899, 92.444 74.890, 91.822 75.512 M 120.500 76 C 123.231 77.174, 124 77.174, 124 76 C 124 75.450, 122.763 75.032, 121.250 75.070 C 118.813 75.133, 118.728 75.238, 120.500 76 M 18.500 77 C 21.249 78.181, 22.828 78.181, 21 77 C 20.175 76.467, 18.825 76.055, 18 76.086 C 17.011 76.122, 17.181 76.433, 18.500 77 M 28 76.924 C 28 77.398, 28.675 78.045, 29.500 78.362 C 30.325 78.678, 31 78.549, 31 78.076 C 31 77.602, 30.325 76.955, 29.500 76.638 C 28.675 76.322, 28 76.451, 28 76.924 M 60 76.883 C 60 77.805, 64.120 79.214, 64.806 78.527 C 65.023 78.310, 64.904 77.653, 64.541 77.067 C 63.748 75.783, 60 75.632, 60 76.883 M 71.962 76 C 70.929 80.681, 71.028 81.126, 72.965 80.511 C 74.876 79.904, 74.893 80.037, 73.480 84.692 C 71.736 90.441, 71.696 91, 73.025 91 C 74.065 91, 75.213 88.549, 76.317 83.971 C 76.756 82.150, 76.247 80.609, 74.500 78.471 C 73.164 76.837, 72.022 75.725, 71.962 76 M 113.500 77 C 113.840 77.550, 114.793 78, 115.618 78 C 116.443 78, 116.840 77.550, 116.500 77 C 116.160 76.450, 115.207 76, 114.382 76 C 113.557 76, 113.160 76.450, 113.500 77 M 126.346 77.134 C 127.670 77.903, 128.505 77.895, 129.296 77.104 C 130.101 76.299, 129.601 76.008, 127.450 76.030 C 124.864 76.057, 124.728 76.193, 126.346 77.134 M 40 77.987 C 40 78.816, 42.435 80, 44.141 80 C 44.678 80, 44.873 79.604, 44.575 79.121 C 43.841 77.934, 40 76.982, 40 77.987 M 47.320 77.709 C 48.175 79.092, 52 80.070, 52 78.906 C 52 78.408, 51.587 78, 51.082 78 C 50.577 78, 49.378 77.699, 48.418 77.330 C 47.320 76.909, 46.913 77.050, 47.320 77.709 M 55 78 C 55.825 78.533, 56.950 78.969, 57.500 78.969 C 58.050 78.969, 57.825 78.533, 57 78 C 56.175 77.467, 55.050 77.031, 54.500 77.031 C 53.950 77.031, 54.175 77.467, 55 78 M 88 77.532 C 88 79.206, 91.064 85, 91.949 85 C 93.315 85, 93.280 84.607, 91.551 80.468 C 90.754 78.561, 89.629 77, 89.051 77 C 88.473 77, 88 77.239, 88 77.532 M 106 77.883 C 106 78.369, 107.125 78.982, 108.500 79.245 C 111.254 79.771, 111.928 78.570, 109.418 77.607 C 107.197 76.755, 106 76.852, 106 77.883 M 119 78 C 119 78.550, 120.013 78.993, 121.250 78.985 C 123.069 78.972, 123.213 78.784, 122 78 C 120.061 76.747, 119 76.747, 119 78 M 131.500 78 C 131.840 78.550, 132.766 79, 133.559 79 C 134.352 79, 135 78.550, 135 78 C 135 77.450, 134.073 77, 132.941 77 C 131.809 77, 131.160 77.450, 131.500 78 M 16.570 78.886 C 15.982 79.838, 20.069 81.264, 20.927 80.406 C 21.453 79.880, 19.057 78.043, 17.809 78.015 C 17.429 78.007, 16.872 78.399, 16.570 78.886 M 23.813 78.683 C 24.534 78.972, 25.397 78.936, 25.729 78.604 C 26.061 78.272, 25.471 78.036, 24.417 78.079 C 23.252 78.127, 23.015 78.364, 23.813 78.683 M 33 79 C 33.825 79.533, 35.400 79.945, 36.500 79.914 L 38.500 79.859 36.500 79 C 35.400 78.527, 33.825 78.116, 33 78.086 C 31.667 78.037, 31.667 78.138, 33 79 M 66.500 79 C 66.840 79.550, 67.541 80, 68.059 80 C 68.577 80, 69 79.550, 69 79 C 69 78.450, 68.298 78, 67.441 78 C 66.584 78, 66.160 78.450, 66.500 79 M 102 79.929 C 102 80.989, 101.325 82.532, 100.500 83.357 C 98.475 85.382, 98.613 85.914, 101 85.290 C 102.100 85.002, 103.006 84.257, 103.014 83.633 C 103.021 83.010, 103.299 81.487, 103.630 80.250 C 103.992 78.900, 103.787 78, 103.117 78 C 102.502 78, 102 78.868, 102 79.929 M 125 78.977 C 125 79.411, 125.900 80.002, 127 80.290 C 128.100 80.577, 129 80.457, 129 80.023 C 129 79.589, 128.100 78.998, 127 78.710 C 125.900 78.423, 125 78.543, 125 78.977 M 27 79.393 C 27 79.609, 27.698 80.054, 28.552 80.382 C 29.442 80.723, 29.843 80.555, 29.493 79.989 C 28.906 79.038, 27 78.583, 27 79.393 M 53.068 81.750 C 51.765 84.609, 51.797 84.686, 54.464 85.155 C 55.711 85.374, 56.559 84.862, 56.787 83.750 C 57.020 82.615, 56.506 81.965, 55.323 81.900 C 54.064 81.832, 54.274 81.582, 56 81.094 C 58.409 80.413, 58.422 80.366, 56.355 79.815 C 54.734 79.382, 53.932 79.854, 53.068 81.750 M 113.500 80 C 116.231 81.174, 117 81.174, 117 80 C 117 79.450, 115.763 79.032, 114.250 79.070 C 111.813 79.133, 111.728 79.238, 113.500 80 M 22 81 C 22 81.550, 22.675 82, 23.500 82 C 24.325 82, 25 81.550, 25 81 C 25 80.450, 24.325 80, 23.500 80 C 22.675 80, 22 80.450, 22 81 M 32 81.094 C 32 81.592, 32.413 82, 32.918 82 C 33.423 82, 34.622 82.301, 35.582 82.670 C 36.680 83.091, 37.087 82.950, 36.680 82.291 C 35.825 80.908, 32 79.930, 32 81.094 M 39.500 81 C 39.840 81.550, 41.104 81.968, 42.309 81.930 C 44.421 81.862, 44.428 81.829, 42.500 81 C 39.748 79.817, 38.769 79.817, 39.500 81 M 47 81 C 47.825 81.533, 49.400 81.969, 50.500 81.969 C 52.156 81.969, 52.242 81.803, 51 81 C 50.175 80.467, 48.600 80.031, 47.500 80.031 C 45.844 80.031, 45.758 80.197, 47 81 M 105.500 81 C 105.840 81.550, 107.018 82, 108.118 82 C 109.218 82, 109.840 81.550, 109.500 81 C 109.160 80.450, 107.982 80, 106.882 80 C 105.782 80, 105.160 80.450, 105.500 81 M 119 81 C 120.970 82.273, 123.287 82.273, 122.500 81 C 122.160 80.450, 120.896 80.007, 119.691 80.015 C 117.910 80.028, 117.781 80.212, 119 81 M 131.500 81 C 134.231 82.174, 135 82.174, 135 81 C 135 80.450, 133.762 80.032, 132.250 80.070 C 129.813 80.133, 129.728 80.238, 131.500 81 M 16.500 82 C 16.840 82.550, 17.879 82.993, 18.809 82.985 C 20.266 82.971, 20.293 82.835, 19 82 C 17.042 80.734, 15.718 80.734, 16.500 82 M 26.538 81.939 C 26.248 82.407, 26.669 83.043, 27.474 83.352 C 28.278 83.660, 29.173 83.529, 29.462 83.061 C 29.752 82.593, 29.331 81.957, 28.526 81.648 C 27.722 81.340, 26.827 81.471, 26.538 81.939 M 60 82 C 60.825 82.533, 62.175 82.969, 63 82.969 C 64.333 82.969, 64.333 82.862, 63 82 C 62.175 81.467, 60.825 81.031, 60 81.031 C 58.667 81.031, 58.667 81.138, 60 82 M 65 82.393 C 65 84.393, 67.725 85.160, 68.417 83.355 C 69.271 81.131, 69.192 81, 67 81 C 65.900 81, 65 81.627, 65 82.393 M 111.571 81.886 C 111.270 82.373, 112.143 82.985, 113.512 83.247 C 116.257 83.772, 116.922 82.568, 114.418 81.607 C 112.368 80.820, 112.220 80.835, 111.571 81.886 M 124 82 C 124 82.550, 124.927 83, 126.059 83 C 127.191 83, 127.840 82.550, 127.500 82 C 127.160 81.450, 126.234 81, 125.441 81 C 124.648 81, 124 81.450, 124 82 M 38 83.139 C 38 83.612, 38.638 84, 39.418 84 C 40.198 84, 41.622 84.301, 42.582 84.670 C 43.681 85.092, 44.088 84.951, 43.679 84.289 C 42.860 82.964, 38 81.980, 38 83.139 M 69.651 83.468 C 68.913 85.390, 70.981 86.649, 72.046 84.926 C 72.926 83.502, 72.414 82, 71.048 82 C 70.589 82, 69.960 82.661, 69.651 83.468 M 130 83 C 130 83.550, 131.012 83.993, 132.250 83.985 C 134.069 83.972, 134.213 83.784, 133 83 C 131.061 81.747, 130 81.747, 130 83 M 15 83.987 C 15 84.678, 17.352 86, 18.582 86 C 19.946 86, 18.665 84.146, 17 83.710 C 15.900 83.423, 15 83.547, 15 83.987 M 21 83.393 C 21 83.609, 21.675 84.045, 22.500 84.362 C 23.325 84.678, 24 84.501, 24 83.969 C 24 83.436, 23.325 83, 22.500 83 C 21.675 83, 21 83.177, 21 83.393 M 32 84 C 32.825 84.533, 34.175 84.969, 35 84.969 C 36.333 84.969, 36.333 84.862, 35 84 C 34.175 83.467, 32.825 83.031, 32 83.031 C 30.667 83.031, 30.667 83.138, 32 84 M 58.159 84.604 C 58.611 86.976, 63 87.851, 63 85.570 C 63 84.706, 62.587 84, 62.082 84 C 61.577 84, 60.406 83.709, 59.480 83.354 C 58.212 82.867, 57.886 83.175, 58.159 84.604 M 104.500 83.839 C 105.944 85.274, 108.517 85.668, 108.811 84.500 C 108.949 83.950, 107.811 83.353, 106.281 83.173 C 104.436 82.956, 103.837 83.180, 104.500 83.839 M 118 84 C 119.957 85.264, 122 85.264, 122 84 C 122 83.450, 120.763 83.007, 119.250 83.015 C 117.107 83.027, 116.831 83.245, 118 84 M 26 85.031 C 26 85.564, 26.675 86, 27.500 86 C 28.325 86, 29 85.823, 29 85.607 C 29 85.391, 28.325 84.955, 27.500 84.638 C 26.675 84.322, 26 84.499, 26 85.031 M 45 85.139 C 45 85.612, 45.413 86, 45.918 86 C 46.423 86, 47.548 86.273, 48.418 86.607 C 49.288 86.941, 50 86.768, 50 86.224 C 50 85.679, 48.875 85.018, 47.500 84.755 C 46.125 84.492, 45 84.665, 45 85.139 M 111 85.031 C 111 86.422, 113.626 87.349, 115.059 86.464 C 115.901 85.943, 115.847 85.518, 114.857 84.890 C 112.996 83.711, 111 83.784, 111 85.031 M 123.500 85 C 123.840 85.550, 124.991 86, 126.059 86 C 127.127 86, 128 85.550, 128 85 C 128 84.450, 126.848 84, 125.441 84 C 123.990 84, 123.149 84.433, 123.500 85 M 21 86.031 C 21 86.564, 21.675 87, 22.500 87 C 23.325 87, 24 86.823, 24 86.607 C 24 86.391, 23.325 85.955, 22.500 85.638 C 21.675 85.322, 21 85.499, 21 86.031 M 30.165 85.995 C 30.840 88.020, 35 89.287, 35 87.468 C 35 86.660, 34.587 86, 34.082 86 C 33.577 86, 32.390 85.703, 31.445 85.341 C 30.280 84.894, 29.868 85.104, 30.165 85.995 M 38 86 C 38.825 86.533, 40.400 86.969, 41.500 86.969 C 43.156 86.969, 43.242 86.803, 42 86 C 41.175 85.467, 39.600 85.031, 38.500 85.031 C 36.844 85.031, 36.758 85.197, 38 86 M 64.154 86.552 C 64.345 87.532, 65.105 88.536, 65.846 88.782 C 66.706 89.069, 67.066 88.588, 66.846 87.448 C 66.655 86.468, 65.895 85.464, 65.154 85.218 C 64.294 84.931, 63.934 85.412, 64.154 86.552 M 117.212 86.879 C 117.382 87.775, 118.634 88.600, 120.010 88.724 C 121.380 88.847, 121.887 88.680, 121.137 88.353 C 120.105 87.902, 120.067 87.577, 120.979 87.013 C 121.748 86.538, 121.229 86.086, 119.544 85.764 C 117.495 85.372, 116.972 85.622, 117.212 86.879 M 51 86.717 C 51 87.248, 52.847 88.237, 55.104 88.913 C 57.361 89.589, 59.836 90.384, 60.604 90.678 C 61.372 90.973, 62 90.705, 62 90.082 C 62 88.891, 58.377 87.231, 53.750 86.302 C 52.237 85.999, 51 86.185, 51 86.717 M 100.667 86.667 C 100.300 87.033, 100 87.798, 100 88.367 C 100 88.993, 100.466 88.934, 101.183 88.217 C 101.834 87.566, 102.134 86.801, 101.850 86.517 C 101.566 86.233, 101.033 86.300, 100.667 86.667 M 104 87 C 104.825 87.533, 106.400 87.969, 107.500 87.969 C 109.156 87.969, 109.242 87.803, 108 87 C 107.175 86.467, 105.600 86.031, 104.500 86.031 C 102.844 86.031, 102.758 86.197, 104 87 M 25 87.393 C 25 87.609, 25.675 88.045, 26.500 88.362 C 27.325 88.678, 28 88.501, 28 87.969 C 28 87.436, 27.325 87, 26.500 87 C 25.675 87, 25 87.177, 25 87.393 M 36.441 88.096 C 36.132 88.595, 37.094 89.465, 38.579 90.030 C 41.413 91.107, 42.599 90.778, 41.616 89.187 C 40.764 87.809, 37.096 87.035, 36.441 88.096 M 44.425 87.879 C 45.159 89.066, 49 90.018, 49 89.013 C 49 88.184, 46.565 87, 44.859 87 C 44.322 87, 44.127 87.396, 44.425 87.879 M 68 88.500 C 68 89.325, 68.675 90, 69.500 90 C 70.325 90, 71 89.325, 71 88.500 C 71 87.675, 70.325 87, 69.500 87 C 68.675 87, 68 87.675, 68 88.500 M 110 87.987 C 110 88.816, 112.435 90, 114.141 90 C 114.678 90, 114.873 89.604, 114.575 89.121 C 113.841 87.934, 110 86.982, 110 87.987 M 123.750 87.662 C 124.438 87.940, 125.563 87.940, 126.250 87.662 C 126.938 87.385, 126.375 87.158, 125 87.158 C 123.625 87.158, 123.063 87.385, 123.750 87.662 M 19.694 88.639 C 18.761 89.573, 19.888 91, 21.559 91 C 22.352 91, 23 90.325, 23 89.500 C 23 87.994, 20.889 87.444, 19.694 88.639 M 29.219 89.156 C 29.430 89.790, 30.630 90.689, 31.884 91.153 C 33.471 91.740, 34.049 91.646, 33.781 90.844 C 33.570 90.210, 32.370 89.311, 31.116 88.847 C 29.529 88.260, 28.951 88.354, 29.219 89.156 M 102.417 89.134 C 102.123 89.610, 102.246 90.006, 102.691 90.014 C 103.136 90.021, 104.513 90.299, 105.750 90.630 C 106.987 90.962, 108 90.783, 108 90.233 C 108 88.949, 103.125 87.989, 102.417 89.134 M 24 90.417 C 24 91.287, 24.712 92, 25.583 92 C 26.454 92, 26.989 91.466, 26.771 90.813 C 26.153 88.958, 24 88.651, 24 90.417 M 51 89.809 C 51 90.254, 53.250 91.338, 56 92.217 C 62.326 94.240, 62.624 92.741, 56.322 90.594 C 50.880 88.740, 51 88.758, 51 89.809 M 62.571 91.571 C 62.196 93.066, 62.339 94.739, 62.889 95.289 C 63.556 95.956, 64.117 95.383, 64.571 93.571 C 64.947 92.077, 64.804 90.404, 64.254 89.854 C 63.587 89.187, 63.026 89.760, 62.571 91.571 M 116 89.977 C 116 90.411, 116.900 91.002, 118 91.290 C 119.100 91.577, 120 91.457, 120 91.023 C 120 90.589, 119.100 89.998, 118 89.710 C 116.900 89.423, 116 89.543, 116 89.977 M 124.118 89.750 C 124.454 91.874, 123.847 94.010, 122.536 95.321 C 121.250 96.607, 121.311 96.848, 123.035 97.299 C 125.347 97.904, 125.528 97.660, 126.414 92.750 C 126.957 89.743, 126.785 89, 125.545 89 C 124.695 89, 124.053 89.338, 124.118 89.750 M 43 90.883 C 43 92.016, 47.894 92.980, 48.518 91.971 C 49.033 91.138, 46.666 90, 44.418 90 C 43.638 90, 43 90.398, 43 90.883 M 109 91 C 109 91.550, 110.013 91.993, 111.250 91.985 C 113.069 91.972, 113.213 91.784, 112 91 C 110.061 89.747, 109 89.747, 109 91 M 28.227 92.180 C 28.729 93.686, 32.796 95.140, 33.467 94.053 C 33.759 93.581, 32.615 92.713, 30.924 92.123 C 28.667 91.337, 27.951 91.352, 28.227 92.180 M 35.426 91.881 C 36.126 93.013, 41 93.964, 41 92.968 C 41 92.079, 38.456 91, 36.359 91 C 35.547 91, 35.127 91.396, 35.426 91.881 M 66.072 93.250 C 65.019 95.996, 66.611 98.230, 68.026 95.992 C 69.288 93.996, 69.253 91, 67.968 91 C 67.400 91, 66.547 92.013, 66.072 93.250 M 103 91.558 C 103 91.763, 103.900 92.411, 105 93 C 106.105 93.591, 107 93.659, 107 93.152 C 107 92.647, 106.100 91.998, 105 91.710 C 103.900 91.423, 103 91.354, 103 91.558 M 121 92.559 C 121 93.416, 121.450 93.840, 122 93.500 C 122.550 93.160, 123 92.459, 123 91.941 C 123 91.423, 122.550 91, 122 91 C 121.450 91, 121 91.702, 121 92.559 M 50 92.701 C 50 93.205, 52.250 94.338, 55 95.217 C 60.052 96.833, 62.162 95.773, 57.456 93.983 C 52.940 92.266, 50 91.761, 50 92.701 M 69.751 94.524 C 69.271 97.032, 70.137 98.529, 71.361 97.306 C 72.327 96.340, 72.127 92, 71.117 92 C 70.631 92, 70.016 93.136, 69.751 94.524 M 116 93 C 116 93.550, 116.702 94, 117.559 94 C 118.416 94, 118.840 93.550, 118.500 93 C 118.160 92.450, 117.459 92, 116.941 92 C 116.423 92, 116 92.450, 116 93 M 22.625 93.708 C 22.311 94.022, 22.294 94.666, 22.586 95.139 C 23.288 96.275, 26 96.250, 26 95.107 C 26 94.003, 23.405 92.928, 22.625 93.708 M 35 94.532 C 35 95.340, 35.413 96, 35.918 96 C 36.423 96, 37.610 96.297, 38.555 96.659 C 39.720 97.106, 40.132 96.896, 39.835 96.005 C 39.160 93.980, 35 92.713, 35 94.532 M 42 93.532 C 42 94.390, 46.419 95.813, 47.357 95.258 C 47.828 94.978, 47.603 94.363, 46.857 93.890 C 45.359 92.941, 42 92.693, 42 93.532 M 108 93.941 C 108 94.459, 108.450 95.160, 109 95.500 C 109.550 95.840, 110 95.416, 110 94.559 C 110 93.702, 109.550 93, 109 93 C 108.450 93, 108 93.423, 108 93.941 M 111 95.500 C 111 96.325, 111.450 97, 112 97 C 112.550 97, 113 96.325, 113 95.500 C 113 94.675, 112.550 94, 112 94 C 111.450 94, 111 94.675, 111 95.500 M 49 95.701 C 49 96.205, 51.250 97.338, 54 98.217 C 59.052 99.833, 61.162 98.773, 56.456 96.983 C 51.940 95.266, 49 94.761, 49 95.701 M 73 96.433 C 73 97.387, 73.879 98.005, 75.250 98.014 C 76.487 98.021, 78.625 98.272, 80 98.571 L 82.500 99.115 80 97.682 C 75.576 95.147, 73 94.687, 73 96.433 M 99.500 96 C 99.160 96.550, 99.359 97, 99.941 97 C 100.523 97, 101 96.550, 101 96 C 101 95.450, 100.802 95, 100.559 95 C 100.316 95, 99.840 95.450, 99.500 96 M 114 96.559 C 114 97.416, 114.450 97.840, 115 97.500 C 115.550 97.160, 116 96.459, 116 95.941 C 116 95.423, 115.550 95, 115 95 C 114.450 95, 114 95.702, 114 96.559 M 117 96.878 C 117 98.045, 117.423 99, 117.941 99 C 119.673 99, 119.994 97.240, 118.489 95.991 C 117.250 94.962, 117 95.111, 117 96.878 M 41 96.892 C 41 97.973, 45.991 99.343, 46.839 98.494 C 47.650 97.683, 44.930 96.034, 42.750 96.015 C 41.788 96.007, 41 96.401, 41 96.892 M 60.596 98.474 C 60.273 99.761, 59.733 101.531, 59.397 102.407 C 59.013 103.410, 59.319 104, 60.225 104 C 62.214 104, 64.258 97.313, 62.479 96.630 C 61.720 96.339, 60.940 97.102, 60.596 98.474 M 103 97 C 103 97.550, 103.675 98, 104.500 98 C 105.325 98, 106 97.550, 106 97 C 106 96.450, 105.325 96, 104.500 96 C 103.675 96, 103 96.450, 103 97 M 107 97.865 C 107 99.041, 110.880 100.453, 111.742 99.591 C 112.511 98.822, 111.994 98.400, 109.250 97.557 C 107.956 97.159, 107 97.290, 107 97.865 M 48 98.798 C 48 99.356, 50.105 100.529, 52.678 101.406 C 58.216 103.293, 58 103.270, 58 101.975 C 58 100.949, 55.059 99.555, 50.456 98.400 C 49.057 98.048, 48 98.220, 48 98.798 M 63.975 100.565 C 62.639 104.081, 62.747 105, 64.500 105 C 65.325 105, 66.006 104.438, 66.014 103.750 C 66.021 103.063, 66.299 101.487, 66.630 100.250 C 67.477 97.092, 65.193 97.363, 63.975 100.565 M 98.565 98.895 C 98.260 99.388, 98.748 100.073, 99.649 100.419 C 101.596 101.166, 102.458 100.550, 101.541 99.067 C 100.737 97.766, 99.313 97.684, 98.565 98.895 M 67.505 101.976 C 66.781 105.275, 67.442 107, 69.431 107 C 70.313 107, 70.709 105.689, 70.639 103 C 70.515 98.275, 68.465 97.605, 67.505 101.976 M 72 100.250 C 72 101.057, 73.651 101.535, 76.655 101.600 C 80.795 101.688, 81.105 101.550, 79.463 100.350 C 77.135 98.647, 72 98.578, 72 100.250 M 103 99.882 C 103 100.432, 103.450 101.160, 104 101.500 C 104.550 101.840, 105 101.668, 105 101.118 C 105 100.568, 104.550 99.840, 104 99.500 C 103.450 99.160, 103 99.332, 103 99.882 M 113 99.783 C 113 100.902, 117.928 102.406, 118.785 101.549 C 119.581 100.752, 118.848 100.251, 115.748 99.473 C 114.123 99.065, 113 99.192, 113 99.783 M 106.192 101.091 C 106.741 102.757, 111 103.624, 111 102.070 C 111 101.481, 110.587 101, 110.082 101 C 109.577 101, 108.390 100.703, 107.445 100.341 C 106.239 99.878, 105.866 100.101, 106.192 101.091 M 97.533 101.947 C 97.241 102.419, 98.385 103.287, 100.076 103.877 C 102.333 104.663, 103.049 104.648, 102.773 103.820 C 102.271 102.314, 98.204 100.860, 97.533 101.947 M 112.591 102.853 C 111.969 103.858, 116.873 105.460, 117.785 104.549 C 118.506 103.828, 117.959 103.389, 115.334 102.584 C 114.143 102.218, 112.909 102.339, 112.591 102.853 M 72 105.559 C 72 107.010, 72.433 107.851, 73 107.500 C 73.550 107.160, 74 106.009, 74 104.941 C 74 103.873, 73.550 103, 73 103 C 72.450 103, 72 104.152, 72 105.559 M 104 104.066 C 104 104.916, 106.569 106, 108.582 106 C 111.264 106, 109.997 104.227, 107 103.787 C 105.350 103.545, 104 103.670, 104 104.066 M 96.488 105.019 C 95.954 105.883, 97.043 106.485, 102.834 108.530 C 103.567 108.789, 103.986 108.459, 103.765 107.796 C 103.188 106.064, 97.244 103.795, 96.488 105.019 M 56.783 110 C 55.534 113.905, 55.465 115, 56.467 115 C 57.173 115, 58.020 113.763, 58.351 112.250 C 58.681 110.737, 59.240 108.487, 59.593 107.250 C 60.899 102.662, 58.323 105.183, 56.783 110 M 111.543 105.930 C 110.859 107.038, 115.710 108.624, 116.713 107.620 C 117.506 106.827, 117.015 106.407, 114.334 105.584 C 113.143 105.218, 111.887 105.374, 111.543 105.930 M 59.992 110.529 C 58.596 115.514, 59.341 117.863, 60.964 113.595 C 62.764 108.861, 63.244 106, 62.238 106 C 61.700 106, 60.689 108.038, 59.992 110.529 M 62.783 112 C 61.167 117.052, 62.227 119.162, 64.017 114.456 C 65.734 109.940, 66.239 107, 65.299 107 C 64.795 107, 63.662 109.250, 62.783 112 M 95.507 107.989 C 95.227 108.441, 97.024 109.502, 99.499 110.345 C 101.975 111.189, 104 111.524, 104 111.091 C 104 109.919, 96.098 107.033, 95.507 107.989 M 105 108.031 C 105 109.422, 107.626 110.349, 109.059 109.464 C 109.901 108.943, 109.847 108.518, 108.857 107.890 C 106.996 106.711, 105 106.784, 105 108.031 M 65.784 112.998 L 64.181 118.007 66.698 118.639 C 69.583 119.363, 70.537 118.282, 71.488 113.213 C 72.208 109.373, 72.256 109.480, 69.443 108.618 C 67.674 108.076, 67.161 108.690, 65.784 112.998 M 94 110.799 C 94 111.692, 102.015 115, 104.178 115 C 106.546 115, 104.471 113.158, 100.896 112.087 C 98.639 111.411, 96.164 110.616, 95.396 110.322 C 94.628 110.027, 94 110.242, 94 110.799 M 106 112.941 C 106 114.009, 106.408 115.134, 106.907 115.442 C 107.405 115.751, 107.560 115.032, 107.249 113.845 C 106.863 112.366, 107.049 111.912, 107.842 112.403 C 108.479 112.796, 109 112.641, 109 112.059 C 109 111.477, 108.325 111, 107.500 111 C 106.675 111, 106 111.873, 106 112.941 M 36.425 113.879 C 37.159 115.066, 41 116.018, 41 115.013 C 41 114.184, 38.565 113, 36.859 113 C 36.322 113, 36.127 113.396, 36.425 113.879 M 93 114.431 C 93 115.292, 95.138 117.336, 97.750 118.974 C 102.117 121.711, 102.602 121.815, 103.763 120.266 C 105.951 117.348, 105.113 116.689, 95.250 113.575 C 93.572 113.046, 93 113.263, 93 114.431 M 43 116 C 43 116.550, 44.013 116.993, 45.250 116.985 C 47.069 116.972, 47.213 116.784, 46 116 C 44.061 114.747, 43 114.747, 43 116 M 48 117.465 C 48 117.795, 49.013 118.510, 50.250 119.054 C 52.357 119.980, 52.326 120.018, 49.750 119.660 C 47.909 119.404, 47 119.727, 47 120.639 C 47 121.387, 47.413 122, 47.918 122 C 48.423 122, 49.489 122.250, 50.287 122.557 C 51.217 122.914, 51.949 122.302, 52.329 120.850 C 52.654 119.606, 52.826 118.511, 52.710 118.418 C 51.910 117.773, 48 116.982, 48 117.465 M 64.769 139.224 C 65.089 140.448, 65.534 140.898, 65.759 140.224 C 65.983 139.551, 66.813 139, 67.602 139 C 68.633 139, 68.886 139.776, 68.498 141.750 C 67.981 144.384, 68.008 144.405, 69.132 142.250 C 70.835 138.985, 72.356 139.470, 71.640 143.050 C 71.262 144.941, 71.404 145.868, 72.015 145.491 C 72.557 145.156, 73 143.956, 73 142.824 C 73 141.179, 73.450 140.887, 75.250 141.370 C 76.487 141.701, 77.868 141.979, 78.317 141.986 C 78.767 141.994, 78.815 143.009, 78.423 144.242 C 77.796 146.219, 77.903 146.326, 79.324 145.146 C 80.211 144.410, 80.838 143.289, 80.718 142.654 C 80.598 142.019, 81.333 141.643, 82.350 141.817 C 83.537 142.020, 83.946 141.722, 83.491 140.986 C 83.101 140.355, 81.761 140.094, 80.513 140.407 C 79.266 140.720, 75.644 140.082, 72.466 138.988 C 65.007 136.422, 64.044 136.451, 64.769 139.224 M 76 143.918 C 76 144.423, 75.699 145.622, 75.330 146.582 C 74.909 147.680, 75.050 148.087, 75.709 147.680 C 77.092 146.825, 78.070 143, 76.906 143 C 76.408 143, 76 143.413, 76 143.918" stroke="none" fill="black" fill-rule="evenodd"></path><path class="marker-path" d="M 66.571 67.571 C 63.172 70.971, 64.705 75.069, 71.763 81.450 L 75.026 84.399 80.013 79.487 C 85.352 74.229, 86.406 70.549, 83.429 67.571 C 81.564 65.706, 77.883 65.517, 76.200 67.200 C 75.267 68.133, 74.733 68.133, 73.800 67.200 C 72.117 65.517, 68.436 65.706, 66.571 67.571" stroke="none" fill="black" fill-rule="evenodd"></path>
                        </svg>